<svg width="32" height="12" viewBox="0 0 32 12" fill="none" xmlns="http://www.w3.org/2000/svg">
<path d="M0 6C0 2.68629 2.68629 0 6 0H26C29.3137 0 32 2.68629 32 6C32 9.31371 29.3137 12 26 12H6C2.68629 12 0 9.31371 0 6Z" fill="#777777"/>
<path d="M5.40625 3.25391H6.51562L8.72656 9H7.58984L7.14062 7.81641H4.79688L4.32812 9H3.19141L5.40625 3.25391ZM5.96875 4.77734L5.20312 6.75H6.73047L5.96875 4.77734Z" fill="white"/>
<path d="M9.73812 3.25391H10.8319V7.95703H12.4256V9H9.73812V3.25391Z" fill="white"/>
<path d="M13.4177 3.25391H14.5778C15.2054 3.25391 15.6572 3.3125 15.9333 3.42969C16.2119 3.54427 16.4307 3.73177 16.5895 3.99219C16.751 4.25 16.8317 4.5599 16.8317 4.92188C16.8317 5.32292 16.7262 5.65625 16.5153 5.92188C16.307 6.1875 16.0231 6.3724 15.6637 6.47656C15.4528 6.53646 15.0687 6.56641 14.5114 6.56641V9H13.4177V3.25391ZM14.5114 5.5H14.8591C15.1325 5.5 15.3226 5.48047 15.4294 5.44141C15.5361 5.40234 15.6195 5.33854 15.6794 5.25C15.7419 5.15885 15.7731 5.04948 15.7731 4.92188C15.7731 4.70052 15.6872 4.53906 15.5153 4.4375C15.3903 4.36198 15.1585 4.32422 14.82 4.32422H14.5114V5.5Z" fill="white"/>
<path d="M18.062 3.25391H19.1714V5.42188H21.0933V3.25391H22.1987V9H21.0933V6.48047H19.1714V9H18.062V3.25391Z" fill="white"/>
<path d="M25.4212 3.25391H26.5306L28.7416 9H27.6048L27.1556 7.81641H24.8119L24.3431 9H23.2064L25.4212 3.25391ZM25.9837 4.77734L25.2181 6.75H26.7455L25.9837 4.77734Z" fill="white"/>
</svg>
