<svg width="40" height="40" viewBox="0 0 40 40" fill="none" xmlns="http://www.w3.org/2000/svg">
<path fill-rule="evenodd" clip-rule="evenodd" d="M23.4999 26.0223C22.311 24.9112 22.011 22.889 20.011 22.889C18.0999 22.889 17.6999 24.8779 16.511 25.9112C15.4444 26.8334 12.5333 27.9223 13.4999 29.6223C15.1221 32.5001 16.411 29.9668 20.011 29.9668C23.611 29.9668 24.811 32.5223 26.5333 29.6223C27.4221 28.1112 24.4555 26.9223 23.4999 26.0223ZM16.6555 16.6557C17.7444 16.6557 18.6221 15.6668 18.6221 14.4557C18.6221 13.2445 17.8666 9.02232 16.6555 9.02232C15.4444 9.02232 14.6888 13.2445 14.6888 14.4557C14.6888 15.6668 15.5666 16.6557 16.6555 16.6557ZM18.9221 16.789C18.3444 17.4334 17.5444 17.8334 16.6555 17.8334C15.7555 17.8334 14.9555 17.4334 14.3888 16.789C13.8444 16.189 13.511 15.3557 13.511 14.4557C13.511 13.6445 13.811 11.6334 14.3333 10.1668C14.811 8.84455 15.5555 7.83344 16.6555 7.83344C17.7444 7.83344 18.4888 8.84455 18.9666 10.1668C19.4999 11.6334 19.7999 13.6445 19.7999 14.4557C19.7999 15.3557 19.4666 16.189 18.9221 16.789ZM12.9221 21.7112C12.9221 20.5001 11.9444 16.3112 10.9555 16.2779C9.9777 16.2445 8.99992 20.5001 8.99992 21.7112C8.99992 22.9223 9.8777 23.9112 10.9555 23.9112C12.0444 23.9112 12.9221 22.9223 12.9221 21.7112ZM13.211 17.5445C13.7333 18.989 14.0999 20.9112 14.0999 21.7112C14.0999 22.6112 13.7666 23.4445 13.2221 24.0557C12.6555 24.689 11.8444 25.089 10.9555 25.089C10.0666 25.089 9.26659 24.689 8.69992 24.0557H8.68881C8.15548 23.4445 7.81104 22.6223 7.81104 21.7112L7.82215 21.689V21.6112V21.589C7.84437 20.8557 8.11104 19.3779 8.49992 18.1112C9.01104 16.489 9.82215 15.1001 10.9444 15.1001H10.9666H10.9777H10.9888C11.9888 15.1334 12.7221 16.189 13.211 17.5445ZM29.0333 15.1001H29.0444H29.0666C29.9888 15.1334 30.7444 16.2668 31.2444 17.6668C31.7555 19.089 32.1666 20.9223 32.1666 21.7112C32.1666 22.6112 31.8333 23.4445 31.2888 24.0557C30.711 24.689 29.911 25.089 29.0221 25.089C28.1333 25.089 27.3333 24.689 26.7555 24.0557C26.211 23.4445 25.8777 22.6223 25.8777 21.7112L25.8888 21.689V21.6223V21.6112C25.911 20.8668 26.2221 19.3779 26.6333 18.1112C27.1666 16.489 27.9999 15.1001 29.011 15.1001H29.0333ZM29.0221 16.2779C28.2221 16.2557 27.0555 20.5001 27.0555 21.7112C27.0555 22.9223 27.9333 23.9112 29.0221 23.9112C30.111 23.9112 30.9888 22.9223 30.9888 21.7112C30.9888 20.5001 29.8221 16.3112 29.0221 16.2779ZM23.7444 16.6557C24.8221 16.6557 25.711 15.6668 25.711 14.4557C25.711 13.2445 24.9221 8.98899 23.7444 9.02232C22.5666 9.05566 21.7777 13.2445 21.7777 14.4557C21.7777 15.6668 22.6666 16.6557 23.7444 16.6557ZM26.011 16.789C25.4333 17.4334 24.6333 17.8334 23.7444 17.8334C22.8555 17.8334 22.0555 17.4334 21.4777 16.789C20.9333 16.189 20.5999 15.3557 20.5999 14.4557C20.5999 13.6445 20.911 11.6557 21.4333 10.2001C21.911 8.88899 22.6444 7.87788 23.711 7.84455H23.7333H23.7444L23.7555 7.83344C24.9999 7.83344 25.811 9.24455 26.2777 10.8668C26.6444 12.1334 26.8666 13.6112 26.8888 14.3334V14.3557V14.4445V14.4557C26.8888 15.3557 26.5555 16.189 26.011 16.789ZM23.511 24.1001C23.7666 24.5001 24.0221 24.9112 24.2999 25.1668C24.4666 25.3223 24.8221 25.5557 25.211 25.8112C26.8221 26.8668 28.7777 28.1334 27.5444 30.2223C25.9777 32.8668 24.7555 32.4223 22.8221 31.7334C22.0777 31.4668 21.1666 31.1445 20.011 31.1445C18.8444 31.1445 17.9221 31.4668 17.1777 31.7334C15.211 32.4112 13.9666 32.8445 12.4777 30.2001C11.1888 27.9557 13.1777 26.689 14.8333 25.6445C15.1999 25.4112 15.5333 25.2001 15.7333 25.0223V25.0334C16.011 24.7779 16.2888 24.389 16.5555 24.0001C17.3444 22.8445 18.1221 21.7001 20.011 21.7001C21.9999 21.7001 22.7444 22.889 23.511 24.1001Z" fill="#03A869"/>
</svg>
