<svg width="24" height="24" viewBox="0 0 24 24" fill="none" xmlns="http://www.w3.org/2000/svg">
<path fill-rule="evenodd" clip-rule="evenodd" d="M20 7C20 8.65685 18.6569 10 17 10C15.3431 10 14 8.65685 14 7C14 5.34315 15.3431 4 17 4C18.6569 4 20 5.34315 20 7ZM21 7C21 9.20914 19.2091 11 17 11C14.7909 11 13 9.20914 13 7C13 4.79086 14.7909 3 17 3C19.2091 3 21 4.79086 21 7ZM7 15C8.65685 15 10 13.6569 10 12C10 10.3431 8.65685 9 7 9C5.34315 9 4 10.3431 4 12C4 13.6569 5.34315 15 7 15ZM10.7742 13.3281C10.9205 12.9126 11 12.4656 11 12C11 11.5344 10.9205 11.0875 10.7742 10.6719L13.6735 9.22225C13.489 8.94651 13.3378 8.64654 13.2257 8.32812L10.3264 9.77778C9.60886 8.70579 8.38685 8 7 8C4.79086 8 3 9.79086 3 12C3 14.2091 4.79086 16 7 16C8.62234 16 10.0191 15.0342 10.6467 13.6461C10.5556 13.8476 10.4483 14.0402 10.3264 14.2222L13.2258 15.6719C13.0795 16.0875 13 16.5344 13 17C13 19.2091 14.7909 21 17 21C19.2091 21 21 19.2091 21 17C21 14.7909 19.2091 13 17 13C15.6131 13 14.3911 13.7058 13.6736 14.7778L10.7742 13.3281ZM17 20C18.6569 20 20 18.6569 20 17C20 15.3431 18.6569 14 17 14C15.3431 14 14 15.3431 14 17C14 18.6569 15.3431 20 17 20Z" fill="url(#paint0_linear)"/>
<defs>
<linearGradient id="paint0_linear" x1="3" y1="12" x2="21" y2="12" gradientUnits="userSpaceOnUse">
<stop stop-color="#03A868"/>
<stop offset="1" stop-color="#00783D"/>
</linearGradient>
</defs>
</svg>
