<svg width="24" height="24" viewBox="0 0 24 24" fill="none" xmlns="http://www.w3.org/2000/svg">
<path fill-rule="evenodd" clip-rule="evenodd" d="M8 3H18C18.5523 3 19 3.44772 19 4V20C19 20.5523 18.5523 21 18 21H8C7.44772 21 7 20.5523 7 20V19.5V18V17.5C7 17.2239 6.77614 17 6.5 17C6.22386 17 6 17.2239 6 17.5V18V19.5V20C6 21.1046 6.89543 22 8 22H18C19.1046 22 20 21.1046 20 20V4C20 2.89543 19.1046 2 18 2H8C6.89543 2 6 2.89543 6 4V4.5V6V6.5C6 6.77614 6.22386 7 6.5 7C6.77614 7 7 6.77614 7 6.5V6V4.5V4C7 3.44772 7.44771 3 8 3ZM10.4 8.7C10.2343 8.47909 9.92091 8.43431 9.7 8.6C9.47909 8.76569 9.43431 9.07909 9.6 9.3L11.25 11.5H2.75C2.47386 11.5 2.25 11.7239 2.25 12C2.25 12.2761 2.47386 12.5 2.75 12.5H11.25L9.6 14.7C9.43431 14.9209 9.47909 15.2343 9.7 15.4C9.92091 15.5657 10.2343 15.5209 10.4 15.3L12.6433 12.3089C12.6673 12.2784 12.6874 12.2455 12.7034 12.211C12.7645 12.0793 12.7666 11.9244 12.7034 11.789C12.6874 11.7545 12.6673 11.7216 12.6433 11.6911L10.4 8.7Z" fill="white"/>
</svg>
