<svg width="24" height="24" viewBox="0 0 24 24" fill="none" xmlns="http://www.w3.org/2000/svg">
<path fill-rule="evenodd" clip-rule="evenodd" d="M15 3H16C16.5523 3 17 3.44772 17 4V20C17 20.5523 16.5523 21 16 21H8C7.44772 21 7 20.5523 7 20V4C7 3.44772 7.44772 3 8 3H9V3.3C9 3.6866 9.3134 4 9.7 4H14.3C14.6866 4 15 3.6866 15 3.3V3ZM6 4C6 2.89543 6.89543 2 8 2H16C17.1046 2 18 2.89543 18 4V20C18 21.1046 17.1046 22 16 22H8C6.89543 22 6 21.1046 6 20V4Z" fill="url(#paint0_linear)"/>
<defs>
<linearGradient id="paint0_linear" x1="6" y1="12" x2="18" y2="12" gradientUnits="userSpaceOnUse">
<stop stop-color="#03A868"/>
<stop offset="1" stop-color="#00783D"/>
</linearGradient>
</defs>
</svg>
