<svg width="24" height="24" viewBox="0 0 24 24" fill="none" xmlns="http://www.w3.org/2000/svg">
<path fill-rule="evenodd" clip-rule="evenodd" d="M10 4H14C14.5523 4 15 4.44772 15 5V6H9V5C9 4.44772 9.44772 4 10 4ZM20 6H16V5C16 3.89543 15.1046 3 14 3H10C8.89543 3 8 3.89543 8 5V6H4C2.89543 6 2 6.89543 2 8V10.9384C2 11.6665 2.39305 12.3204 3 12.6707V19C3 20.1046 3.89543 21 5 21H19C20.1046 21 21 20.1046 21 19V12.6707C21.607 12.3204 22 11.6665 22 10.9384V8C22 6.89543 21.1046 6 20 6ZM20 13L14.5 14.375V15C14.5 15.5523 14.0523 16 13.5 16H10.5C9.94772 16 9.5 15.5523 9.5 15V14.375L4 13V19C4 19.5523 4.44772 20 5 20H19C19.5523 20 20 19.5523 20 19V13ZM20 7H4C3.44772 7 3 7.44772 3 8V10.9384C3 11.3973 3.3123 11.7973 3.75746 11.9086L9.5 13.3442V13C9.5 12.4477 9.94772 12 10.5 12H13.5C14.0523 12 14.5 12.4477 14.5 13V13.3442L20.2425 11.9086C20.6877 11.7973 21 11.3973 21 10.9384V8C21 7.44772 20.5523 7 20 7ZM10.5 13H13.5V15H10.5V13Z" fill="url(#paint0_linear)"/>
<defs>
<linearGradient id="paint0_linear" x1="2" y1="12" x2="22" y2="12" gradientUnits="userSpaceOnUse">
<stop stop-color="#03A868"/>
<stop offset="1" stop-color="#00783D"/>
</linearGradient>
</defs>
</svg>
