<svg width="24" height="24" viewBox="0 0 24 24" fill="none" xmlns="http://www.w3.org/2000/svg">
<path fill-rule="evenodd" clip-rule="evenodd" d="M13.5 4.5C13.5 5.32843 12.8284 6 12 6C11.1716 6 10.5 5.32843 10.5 4.5C10.5 3.67157 11.1716 3 12 3C12.8284 3 13.5 3.67157 13.5 4.5ZM12 7C10.6193 7 9.5 5.88071 9.5 4.5C9.5 3.11929 10.6193 2 12 2C13.3807 2 14.5 3.11929 14.5 4.5C14.5 5.88071 13.3807 7 12 7ZM10.5 14V13H9.5H9C8.17157 13 7.5 12.3284 7.5 11.5C7.5 10.6716 8.17157 10 9 10H12C12.8284 10 13.5 10.6716 13.5 11.5V19.5C13.5 20.3284 12.8284 21 12 21C11.1716 21 10.5 20.3284 10.5 19.5V14ZM6.5 11.5C6.5 12.8807 7.61929 14 9 14H9.5V15V19.5C9.5 20.8807 10.6193 22 12 22C13.3807 22 14.5 20.8807 14.5 19.5V11.5C14.5 10.1193 13.3807 9 12 9H9C7.61929 9 6.5 10.1193 6.5 11.5Z" fill="url(#paint0_linear)"/>
<defs>
<linearGradient id="paint0_linear" x1="6.5" y1="12" x2="14.5" y2="12" gradientUnits="userSpaceOnUse">
<stop stop-color="#03A868"/>
<stop offset="1" stop-color="#00783D"/>
</linearGradient>
</defs>
</svg>
