<svg width="24" height="24" viewBox="0 0 24 24" fill="none" xmlns="http://www.w3.org/2000/svg">
<path d="M13.6139 4.06614L13.6139 4.06612C14.2829 3.68926 15.0007 3.5 15.7526 3.5C18.3251 3.5 20.5 5.82437 20.5 8.78523C20.5 10.881 19.4951 13.1687 17.4046 15.591C15.6595 17.6129 13.5137 19.3077 12.012 20.3775L12.012 20.3775L12 20.3861L11.988 20.3775L11.9632 20.4123L11.9632 20.4123L11.988 20.3775C10.4863 19.3077 8.34045 17.6129 6.59544 15.591C4.50492 13.1687 3.5 10.881 3.5 8.78523C3.5 5.82437 5.67492 3.5 8.24739 3.5C8.99931 3.5 9.71709 3.68926 10.3861 4.06613L10.3861 4.06614C10.8412 4.32243 11.2626 4.66501 11.6261 5.07438L12 5.49552L12.3739 5.07436C12.7373 4.66502 13.1588 4.32244 13.6139 4.06614Z" stroke="url(#paint0_linear)"/>
<defs>
<linearGradient id="paint0_linear" x1="3" y1="12" x2="21" y2="12" gradientUnits="userSpaceOnUse">
<stop stop-color="#03A868"/>
<stop offset="1" stop-color="#00783D"/>
</linearGradient>
</defs>
</svg>
