<svg width="24" height="24" viewBox="0 0 24 24" fill="none" xmlns="http://www.w3.org/2000/svg">
<path fill-rule="evenodd" clip-rule="evenodd" d="M5.5 7C4.67157 7 4 6.32843 4 5.5C4 4.67157 4.67157 4 5.5 4C6.32843 4 7 4.67157 7 5.5C7 6.32843 6.32843 7 5.5 7ZM3 5.5C3 4.11929 4.11929 3 5.5 3C6.88071 3 8 4.11929 8 5.5C8 6.88071 6.88071 8 5.5 8C4.11929 8 3 6.88071 3 5.5ZM5.5 13.5C4.67157 13.5 4 12.8284 4 12C4 11.1716 4.67157 10.5 5.5 10.5C6.32843 10.5 7 11.1716 7 12C7 12.8284 6.32843 13.5 5.5 13.5ZM3 12C3 10.6193 4.11929 9.5 5.5 9.5C6.88071 9.5 8 10.6193 8 12C8 13.3807 6.88071 14.5 5.5 14.5C4.11929 14.5 3 13.3807 3 12ZM4 18.5C4 19.3284 4.67157 20 5.5 20C6.32843 20 7 19.3284 7 18.5C7 17.6716 6.32843 17 5.5 17C4.67157 17 4 17.6716 4 18.5ZM5.5 16C4.11929 16 3 17.1193 3 18.5C3 19.8807 4.11929 21 5.5 21C6.88071 21 8 19.8807 8 18.5C8 17.1193 6.88071 16 5.5 16ZM12 4H18.5C19.3284 4 20 4.67157 20 5.5C20 6.32843 19.3284 7 18.5 7H12C11.1716 7 10.5 6.32843 10.5 5.5C10.5 4.67157 11.1716 4 12 4ZM9.5 5.5C9.5 4.11929 10.6193 3 12 3H18.5C19.8807 3 21 4.11929 21 5.5C21 6.88071 19.8807 8 18.5 8H12C10.6193 8 9.5 6.88071 9.5 5.5ZM18.5 10.5H12C11.1716 10.5 10.5 11.1716 10.5 12C10.5 12.8284 11.1716 13.5 12 13.5H18.5C19.3284 13.5 20 12.8284 20 12C20 11.1716 19.3284 10.5 18.5 10.5ZM12 9.5C10.6193 9.5 9.5 10.6193 9.5 12C9.5 13.3807 10.6193 14.5 12 14.5H18.5C19.8807 14.5 21 13.3807 21 12C21 10.6193 19.8807 9.5 18.5 9.5H12ZM12 17H18.5C19.3284 17 20 17.6716 20 18.5C20 19.3284 19.3284 20 18.5 20H12C11.1716 20 10.5 19.3284 10.5 18.5C10.5 17.6716 11.1716 17 12 17ZM9.5 18.5C9.5 17.1193 10.6193 16 12 16H18.5C19.8807 16 21 17.1193 21 18.5C21 19.8807 19.8807 21 18.5 21H12C10.6193 21 9.5 19.8807 9.5 18.5Z" fill="url(#paint0_linear)"/>
<defs>
<linearGradient id="paint0_linear" x1="3" y1="12" x2="21" y2="12" gradientUnits="userSpaceOnUse">
<stop stop-color="#03A868"/>
<stop offset="1" stop-color="#00783D"/>
</linearGradient>
</defs>
</svg>
