<svg width="24" height="24" viewBox="0 0 24 24" fill="none" xmlns="http://www.w3.org/2000/svg">
<path d="M20.5251 9.85292L19.0236 6.51922C19.0195 6.5101 19.0155 6.50097 19.0117 6.49185L18.6941 5.78666L17.8865 5.58245C17.1134 5.42363 15.6727 5.07649 14.2178 4.44372C12.0192 3.48763 10.4551 4.19673 9.16403 5.43003C8.46582 5.50707 7.50882 5.68046 6.56824 5.85315C5.96828 5.96337 5.40114 6.06624 4.94035 6.13736L3.95053 6.29451L3.8389 6.71312C3.83732 6.71905 3.83586 6.72509 3.83429 6.73102L3.3391 8.58667L2.01686 13.5447L2 13.5976L2.84548 14.2527C3.07391 14.4055 3.34438 14.5843 3.62778 14.7715C4.29722 15.2144 5.02972 15.6974 5.35347 15.9375C7.50376 17.53 10.0715 19.2279 10.579 19.5181C11.0531 19.789 11.8885 20.0475 12.5037 19.9926C12.7442 19.9711 13.3504 19.9168 13.7454 19.4997C14.1986 19.642 14.6707 19.5909 15.094 19.3474C15.5162 19.1044 15.8403 18.6885 16.0093 18.2032C16.4378 18.2565 16.9163 18.1466 17.3363 17.8755C17.7301 17.6216 18.0065 17.2659 18.1378 16.8672C18.5305 16.8702 18.9358 16.6993 19.2839 16.3655C19.7814 15.8895 19.974 15.2345 19.8549 14.6161L21.1585 13.6961L22 13.1281L20.5252 9.85281L20.5251 9.85292ZM18.5566 15.5207C18.3857 15.6847 18.1364 15.7898 18.0129 15.68C18.0067 15.6745 17.9977 15.6758 17.9913 15.6705C17.9802 15.6614 17.9741 15.6484 17.962 15.64C17.5508 15.3535 15.6738 13.6447 14.5121 12.5665C14.2881 12.3579 13.9455 12.3801 13.7488 12.6175C13.5509 12.8537 13.5724 13.2142 13.7971 13.4222C14.0699 13.6755 16.2585 15.704 17.1254 16.4044C17.0854 16.6595 16.8783 16.8332 16.7717 16.9022C16.4409 17.1156 16.0783 17.1174 15.9329 16.9972C15.9285 16.9937 15.9227 16.9943 15.9183 16.991C15.9111 16.9854 15.9075 16.977 15.9001 16.9716C15.2098 16.4849 13.4411 14.8122 13.0404 14.4242C12.8201 14.2107 12.4783 14.2267 12.2757 14.4586C12.0738 14.6908 12.0879 15.0518 12.3082 15.2647C12.3275 15.2833 14.0629 16.9494 15.0234 17.7094C14.957 17.9831 14.7958 18.2192 14.5751 18.3465C14.412 18.4409 14.1506 18.5052 13.8292 18.2966C12.9992 17.6735 11.305 16.0685 10.9716 15.7509C10.7504 15.5391 10.4072 15.5581 10.2075 15.7918C10.0071 16.0255 10.0246 16.3863 10.2463 16.5975C10.6415 16.9739 11.8087 18.0749 12.688 18.8126C12.598 18.8324 12.5031 18.8477 12.4124 18.8557C12.0554 18.8876 11.4226 18.702 11.0952 18.515C10.696 18.2866 8.17207 16.6313 5.97659 15.0046C5.64441 14.7581 4.89167 14.2601 4.20267 13.8051C3.83339 13.5613 3.49322 13.3367 3.24219 13.1665L4.80466 7.30939C5.32672 7.2384 6.02032 7.11229 6.75429 6.97742C7.16933 6.90121 7.58493 6.82595 7.98243 6.75733C7.42102 7.4778 6.60264 8.75141 6.81297 9.85802C6.9092 10.3615 7.20699 10.7615 7.67553 11.0149C8.60319 11.5174 10.1948 10.8843 10.8986 9.79532C11.3994 9.67278 11.7313 9.50566 12.0894 9.2768C12.7716 9.84653 13.6781 10.507 14.6301 11.2008C16.2876 12.4081 18.1663 13.7767 18.6996 14.5907C18.9964 15.0433 18.6652 15.4174 18.5569 15.521L18.5566 15.5207ZM13.8049 5.49842C15.5546 6.25979 17.2505 6.62719 17.9609 6.7597C17.9879 6.84314 18.0094 6.92776 18.0457 7.00871L20.6126 12.7079L19.3346 13.6097C18.5347 12.6606 16.8684 11.4442 15.2449 10.2615C14.1627 9.47307 13.1407 8.72842 12.4776 8.13855C12.2949 7.97713 12.0331 7.96018 11.834 8.096C11.3098 8.45535 11.0726 8.60575 10.4576 8.72676C10.2937 8.75923 10.1531 8.8691 10.0765 9.02531C9.71048 9.77032 8.56227 10.2118 8.16971 9.99977C7.94679 9.87876 7.89418 9.74033 7.87395 9.63307C7.783 9.15426 8.18017 8.27556 8.88513 7.39401C10.6312 5.2122 11.9634 4.69664 13.805 5.49842H13.8049Z" fill="white"/>
</svg>
