<svg width="24" height="24" viewBox="0 0 24 24" fill="none" xmlns="http://www.w3.org/2000/svg">
<path fill-rule="evenodd" clip-rule="evenodd" d="M16 3H6C5.44772 3 5 3.44772 5 4V20C5 20.5523 5.44772 21 6 21H16C16.5523 21 17 20.5523 17 20V19.5V18V17.5C17 17.2239 17.2239 17 17.5 17C17.7761 17 18 17.2239 18 17.5V18V19.5V20C18 21.1046 17.1046 22 16 22H6C4.89543 22 4 21.1046 4 20V4C4 2.89543 4.89543 2 6 2H16C17.1046 2 18 2.89543 18 4V4.5V6V6.5C18 6.77614 17.7761 7 17.5 7C17.2239 7 17 6.77614 17 6.5V6V4.5V4C17 3.44772 16.5523 3 16 3ZM19.4 8.7C19.2343 8.47909 18.9209 8.43431 18.7 8.6C18.4791 8.76569 18.4343 9.07909 18.6 9.3L20.25 11.5H11.75C11.4739 11.5 11.25 11.7239 11.25 12C11.25 12.2761 11.4739 12.5 11.75 12.5H20.25L18.6 14.7C18.4343 14.9209 18.4791 15.2343 18.7 15.4C18.9209 15.5657 19.2343 15.5209 19.4 15.3L21.6433 12.3089C21.6673 12.2784 21.6874 12.2455 21.7034 12.211C21.7645 12.0793 21.7666 11.9244 21.7034 11.789C21.6874 11.7545 21.6673 11.7216 21.6433 11.6911L19.4 8.7Z" fill="url(#paint0_linear)"/>
<defs>
<linearGradient id="paint0_linear" x1="4" y1="12" x2="21.75" y2="12" gradientUnits="userSpaceOnUse">
<stop stop-color="#03A868"/>
<stop offset="1" stop-color="#00783D"/>
</linearGradient>
</defs>
</svg>
