<svg width="40" height="40" viewBox="0 0 40 40" fill="none" xmlns="http://www.w3.org/2000/svg">
<path fill-rule="evenodd" clip-rule="evenodd" d="M32.9778 26.2445C33.0333 26.1667 33.0666 26.0889 33.1 26.0111C33.1333 25.9334 33.1666 25.8445 33.1777 25.7667C33.2 25.6778 33.2111 25.5889 33.2111 25.5V17.6445C33.2111 17.5667 33.2 17.4778 33.1777 17.3889C33.1666 17.3 33.1333 17.2222 33.1 17.1445C33.0666 17.0556 33.0333 16.9778 32.9778 16.9111C32.9333 16.8334 32.8777 16.7667 32.8111 16.7111C32.7555 16.6445 32.6889 16.5889 32.6111 16.5445C32.5444 16.4889 32.4666 16.4556 32.3777 16.4222C32.3 16.3889 32.2222 16.3556 32.1333 16.3445C32.0444 16.3222 31.9666 16.3111 31.8777 16.3111C31.7889 16.3111 31.7 16.3222 31.6111 16.3445C31.5222 16.3556 31.4444 16.3889 31.3666 16.4222C31.2778 16.4556 31.2111 16.4889 31.1333 16.5445C31.0555 16.5889 30.9889 16.6445 30.9333 16.7111C30.8666 16.7667 30.8111 16.8334 30.7666 16.9111C30.7111 16.9778 30.6777 17.0556 30.6444 17.1445C30.6111 17.2222 30.5777 17.3 30.5666 17.3889C30.5444 17.4778 30.5333 17.5667 30.5333 17.6445V22.0667V22.0889H30.5222H9.47775H9.46664V22.0667V17.6445C9.46664 17.5667 9.45553 17.4778 9.43331 17.3889C9.42219 17.3 9.38886 17.2222 9.35553 17.1445C9.32219 17.0556 9.28886 16.9778 9.23331 16.9111C9.18886 16.8334 9.13331 16.7667 9.06664 16.7111C9.01108 16.6445 8.94442 16.5889 8.86664 16.5445C8.79997 16.4889 8.72219 16.4556 8.63331 16.4222C8.55553 16.3889 8.47775 16.3556 8.38886 16.3445C8.29997 16.3222 8.21108 16.3111 8.12219 16.3111C8.03331 16.3111 7.95553 16.3222 7.86664 16.3445C7.77775 16.3556 7.69997 16.3889 7.6222 16.4222C7.53331 16.4556 7.45553 16.4889 7.38886 16.5445C7.31108 16.5889 7.24442 16.6445 7.18886 16.7111C7.12219 16.7667 7.06664 16.8334 7.02219 16.9111C6.96664 16.9778 6.93331 17.0556 6.89997 17.1445C6.86664 17.2222 6.83331 17.3 6.82219 17.3889C6.79997 17.4778 6.78886 17.5667 6.78886 17.6445V25.5C6.78886 25.5889 6.79997 25.6778 6.82219 25.7667C6.83331 25.8445 6.86664 25.9334 6.89997 26.0111C6.93331 26.0889 6.96664 26.1667 7.02219 26.2445C7.06664 26.3111 7.12219 26.3889 7.18886 26.4445C7.24442 26.5111 7.31108 26.5667 7.38886 26.6111C7.45553 26.6556 7.53331 26.7 7.6222 26.7334C7.69997 26.7667 7.77775 26.7889 7.86664 26.8111C7.95553 26.8334 8.03331 26.8334 8.12219 26.8334H31.8666C31.9555 26.8334 32.0444 26.8334 32.1222 26.8111C32.2111 26.8 32.3 26.7667 32.3777 26.7334C32.4555 26.7 32.5333 26.6556 32.6111 26.6111C32.6889 26.5667 32.7555 26.5111 32.8111 26.4445C32.8777 26.3889 32.9333 26.3111 32.9778 26.2445ZM10.8777 13.8334C10.8222 13.9445 10.7778 14.0556 10.7333 14.2C10.7111 14.3222 10.6778 14.4556 10.6666 14.6C10.6555 14.7445 10.6444 14.9111 10.6444 15.0778V20.6445V20.9H10.9H29.1H29.3555V20.6445V15.0778C29.3555 14.9111 29.3444 14.7445 29.3333 14.6C29.3222 14.4556 29.2889 14.3222 29.2555 14.2C29.2222 14.0667 29.1777 13.9445 29.1222 13.8334C29.0666 13.7222 28.9889 13.6334 28.9111 13.5556C28.8333 13.4667 28.7333 13.4 28.6333 13.3445C28.5222 13.2889 28.4 13.2334 28.2666 13.2C28.1444 13.1667 28.0111 13.1445 27.8666 13.1334C27.7111 13.1111 27.5555 13.1111 27.3778 13.1111H12.6222C12.4444 13.1111 12.2889 13.1111 12.1333 13.1334C11.9889 13.1445 11.8555 13.1667 11.7333 13.2C11.6 13.2334 11.4777 13.2889 11.3666 13.3445C11.2666 13.4 11.1666 13.4667 11.0889 13.5556C11 13.6334 10.9333 13.7222 10.8777 13.8334ZM31.3889 15.1778C31.4444 15.1667 31.5 15.1667 31.5444 15.1556C31.6 15.1445 31.6555 15.1445 31.7111 15.1334C31.7666 15.1334 31.8222 15.1334 31.8777 15.1334C32.0444 15.1334 32.2111 15.1445 32.3666 15.1778C32.5333 15.2111 32.6889 15.2667 32.8333 15.3222C32.9889 15.3889 33.1333 15.4667 33.2666 15.5556C33.4111 15.6445 33.5333 15.7556 33.6555 15.8667C33.7666 15.9889 33.8778 16.1111 33.9666 16.2556C34.0555 16.3889 34.1333 16.5334 34.2 16.6889C34.2555 16.8334 34.3111 17 34.3444 17.1556C34.3778 17.3111 34.3889 17.4778 34.3889 17.6445V25.5C34.3889 25.6667 34.3778 25.8334 34.3444 25.9889C34.3111 26.1556 34.2555 26.3111 34.2 26.4667C34.1333 26.6222 34.0555 26.7667 33.9666 26.9C33.8778 27.0334 33.7666 27.1667 33.6555 27.2778C33.5333 27.4 33.4 27.5 33.2666 27.6C33.1333 27.6889 32.9889 27.7667 32.8333 27.8334C32.6777 27.8889 32.5222 27.9445 32.3555 27.9667C32.2 28 32.0333 28.0222 31.8666 28.0222H30.8H30.5333V28.2778V29.3556C30.5333 29.3889 30.5333 29.4334 30.5222 29.4667C30.5222 29.5111 30.5111 29.5445 30.4889 29.5778C30.4777 29.6111 30.4555 29.6445 30.4444 29.6778C30.4222 29.7111 30.3889 29.7445 30.3666 29.7667C30.3333 29.8 30.3111 29.8222 30.2778 29.8445C30.2444 29.8667 30.2111 29.8889 30.1666 29.9C30.1333 29.9111 30.1 29.9222 30.0666 29.9334C30.0222 29.9445 29.9889 29.9445 29.9444 29.9445C29.9111 29.9445 29.8666 29.9445 29.8333 29.9334C29.8 29.9222 29.7555 29.9111 29.7222 29.9C29.6889 29.8889 29.6555 29.8667 29.6222 29.8445C29.5889 29.8222 29.5555 29.8 29.5333 29.7667C29.5 29.7445 29.4777 29.7111 29.4555 29.6778C29.4333 29.6445 29.4111 29.6111 29.4 29.5778C29.3889 29.5445 29.3778 29.5111 29.3666 29.4667C29.3555 29.4334 29.3555 29.3889 29.3555 29.3556V28.2778V28.0222H29.1H10.9H10.6444V28.2778V29.3556C10.6444 29.3889 10.6444 29.4334 10.6333 29.4667C10.6222 29.5111 10.6111 29.5445 10.6 29.5778C10.5889 29.6111 10.5666 29.6445 10.5444 29.6778C10.5222 29.7111 10.5 29.7445 10.4666 29.7667C10.4444 29.8 10.4111 29.8222 10.3778 29.8445C10.3444 29.8667 10.3111 29.8889 10.2778 29.9C10.2444 29.9111 10.2 29.9222 10.1666 29.9334C10.1333 29.9445 10.0889 29.9445 10.0555 29.9445C10.0111 29.9445 9.97775 29.9445 9.93331 29.9334C9.89997 29.9222 9.86664 29.9111 9.82219 29.9C9.78886 29.8889 9.75553 29.8667 9.72219 29.8445C9.68886 29.8222 9.66664 29.8 9.63331 29.7667C9.61108 29.7445 9.57775 29.7111 9.55553 29.6778C9.54442 29.6445 9.5222 29.6111 9.51108 29.5778C9.48886 29.5445 9.47775 29.5111 9.47775 29.4667C9.46664 29.4334 9.46664 29.3889 9.46664 29.3556V28.2778V28.0222H9.19997H8.12219C7.95553 28.0222 7.78886 28 7.63331 27.9667C7.46664 27.9445 7.31108 27.8889 7.16664 27.8334C7.01108 27.7667 6.86664 27.6889 6.73331 27.6C6.58886 27.5 6.46664 27.4 6.34442 27.2778C6.23331 27.1667 6.12219 27.0334 6.03331 26.9C5.94442 26.7667 5.86664 26.6222 5.79997 26.4667C5.74442 26.3111 5.68886 26.1556 5.65553 26C5.6222 25.8334 5.61108 25.6667 5.61108 25.5V17.6445C5.61108 17.4778 5.6222 17.3111 5.65553 17.1556C5.68886 16.9889 5.74442 16.8334 5.79997 16.6889C5.86664 16.5334 5.94442 16.3889 6.03331 16.2556C6.12219 16.1111 6.23331 15.9889 6.34442 15.8667C6.46664 15.7556 6.58886 15.6445 6.73331 15.5556C6.86664 15.4667 7.01108 15.3889 7.16664 15.3222C7.31108 15.2667 7.46664 15.2111 7.63331 15.1778C7.78886 15.1445 7.95553 15.1334 8.12219 15.1334C8.17775 15.1334 8.23331 15.1334 8.28886 15.1445C8.34442 15.1445 8.39997 15.1556 8.45553 15.1556C8.51108 15.1667 8.56664 15.1778 8.6222 15.1889C8.67775 15.2 8.72219 15.2111 8.77775 15.2222C8.81108 15.2334 8.83331 15.2445 8.86664 15.2556C8.88886 15.2667 8.92219 15.2667 8.94442 15.2778L9.02219 15.3111C9.05553 15.3222 9.07775 15.3334 9.09997 15.3445L9.46664 15.5V15.1111V15.0778C9.46664 14.8111 9.47775 14.5667 9.51108 14.3334C9.54442 14.1 9.59997 13.8889 9.66664 13.6889C9.73331 13.4889 9.81108 13.3111 9.91108 13.1556C10.0111 12.9889 10.1222 12.8445 10.2555 12.7111C10.3777 12.5889 10.5333 12.4667 10.6889 12.3778C10.8555 12.2778 11.0333 12.1889 11.2222 12.1222C11.4222 12.0556 11.6333 12.0111 11.8666 11.9778C12.1 11.9445 12.3555 11.9222 12.6222 11.9222H27.3778C27.6444 11.9222 27.9 11.9445 28.1333 11.9778C28.3666 12.0111 28.5777 12.0556 28.7777 12.1222C28.9666 12.1889 29.1444 12.2778 29.3111 12.3667C29.4666 12.4667 29.6222 12.5889 29.7444 12.7111C29.8778 12.8445 29.9889 12.9889 30.0889 13.1556C30.1889 13.3111 30.2666 13.4889 30.3333 13.6889C30.4 13.8889 30.4555 14.1 30.4889 14.3334C30.5222 14.5667 30.5333 14.8111 30.5333 15.0778V15.1111V15.5L30.9 15.3445C30.9222 15.3334 30.9444 15.3222 30.9777 15.3111C31 15.3 31.0333 15.2889 31.0666 15.2778C31.0889 15.2667 31.1222 15.2556 31.1444 15.2445C31.1777 15.2334 31.2 15.2334 31.2333 15.2222C31.2778 15.2111 31.3333 15.1889 31.3889 15.1778Z" fill="#03A869"/>
</svg>
