<svg width="26" height="29" viewBox="0 0 26 29" fill="none" xmlns="http://www.w3.org/2000/svg">
<path fill-rule="evenodd" clip-rule="evenodd" d="M7.9954 4.19756V3.01224H18.0048V4.19756C18.0048 4.51741 18.2682 4.78082 18.5881 4.78082C18.9079 4.78082 19.1713 4.51741 19.1713 4.19756V3.01224H22.8966C23.1977 3.01224 23.4611 3.12513 23.668 3.33209C23.8562 3.52023 23.9879 3.80245 23.9879 4.10349V8.69427H2.01233V4.10349C2.01233 3.80245 2.12522 3.53905 2.33218 3.33209C2.52033 3.14394 2.80255 3.01224 3.10359 3.01224H6.82889V4.19756C6.82889 4.51741 7.0923 4.78082 7.41215 4.78082C7.732 4.78082 7.9954 4.51741 7.9954 4.19756ZM12.7555 21.0555L15.954 22.5419C16.255 22.6736 16.5937 22.5419 16.7442 22.2597C16.8759 21.9586 16.7442 21.62 16.462 21.4694L13.5834 20.1336V15.3923C13.5834 15.0724 13.32 14.809 13.0001 14.809C12.6803 14.809 12.4169 15.0724 12.4169 15.3923V20.5099C12.4169 20.6228 12.4545 20.7168 12.5109 20.8109V20.8297V20.8486V20.8674V20.8862C12.5674 20.9614 12.6238 21.0179 12.6991 21.0555H12.7179H12.7555ZM13.0001 12.6454C17.3463 12.6454 20.8835 16.1637 20.8835 20.5287C20.8835 22.1844 20.3755 23.7272 19.4912 25.0066H22.9154C23.2165 25.0066 23.4799 24.8937 23.6868 24.6867C23.875 24.4986 24.0067 24.2164 24.0067 23.9153V9.86078H2.03115V23.9153C2.03115 24.2164 2.14404 24.4798 2.351 24.6867C2.53915 24.8749 2.82137 25.0066 3.1224 25.0066H6.54667C5.66238 23.7272 5.15439 22.2032 5.15439 20.5287C5.15439 16.1825 8.67273 12.6454 13.0377 12.6454H13.0001ZM18.4752 26.1731C17.0641 27.5466 15.1262 28.3932 13.0001 28.3932C10.874 28.3932 8.93614 27.5466 7.52503 26.1731H3.10359C1.86182 26.1731 0.845825 25.1571 0.845825 23.9153V4.10349C0.845825 2.86172 1.86182 1.84573 3.10359 1.84573H6.82889V0.660403C6.82889 0.340554 7.0923 0.0771484 7.41215 0.0771484C7.732 0.0771484 7.9954 0.340554 7.9954 0.660403V1.84573H18.0048V0.660403C18.0048 0.340554 18.2682 0.0771484 18.5881 0.0771484C18.9079 0.0771484 19.1713 0.340554 19.1713 0.660403V1.84573H22.8966C24.1384 1.84573 25.1544 2.86172 25.1544 4.10349V23.9153C25.1544 25.1571 24.1384 26.1731 22.8966 26.1731H18.4752ZM17.7226 15.7874C16.5185 14.5833 14.8439 13.8307 12.9813 13.8307C11.1375 13.8307 9.46295 14.5833 8.23999 15.7874C7.03585 16.9915 6.28327 18.666 6.28327 20.5287C6.28327 22.3725 7.03585 24.047 8.23999 25.27C9.44413 26.4741 11.1186 27.2267 12.9813 27.2267C14.8251 27.2267 16.4996 26.4741 17.7226 25.27C18.9267 24.0659 19.6793 22.3914 19.6793 20.5287C19.6793 18.6849 18.9267 17.0104 17.7226 15.7874Z" fill="#FEFEFE"/>
</svg>
