<svg width="40" height="40" viewBox="0 0 40 40" fill="none" xmlns="http://www.w3.org/2000/svg">
<path fill-rule="evenodd" clip-rule="evenodd" d="M23.3444 32.3334V28.2779C23.3444 27.3668 23.5333 26.489 23.8666 25.689C24.2111 24.8668 24.7111 24.1223 25.3333 23.5001C25.9555 22.8668 26.7 22.3668 27.5333 22.0223C28.3333 21.689 29.2 21.5112 30.1222 21.5112H32.7333H33.1H33.1111V21.5223L33.0555 21.889C32.8778 23.1445 32.5222 24.3445 32.0111 25.4668C31.4889 26.6112 30.8 27.6779 29.9889 28.6223C29.1666 29.5668 28.2222 30.4001 27.1666 31.089C26.1222 31.7556 24.9889 32.289 23.7777 32.6556L23.3555 32.7779H23.3444V32.7668V32.3334ZM17.8333 32.7334V28.2779C17.8333 27.2001 17.6111 26.1779 17.2222 25.2445C16.8222 24.2668 16.2333 23.4001 15.5 22.6668C14.7666 21.9334 13.8889 21.3334 12.9222 20.9334C11.9778 20.5445 10.9555 20.3334 9.87775 20.3334H7.12219H6.79997H6.78886V20.3223V20.0001C6.78886 19.8001 6.79997 19.6001 6.81108 19.4001C6.82219 19.2001 6.83331 19.0001 6.85553 18.789C6.86664 18.6001 6.89997 18.4001 6.92219 18.2001C6.95553 18.0112 6.97775 17.8112 7.02219 17.6223L7.04442 17.4668H7.05553L7.18886 17.389C9.15553 16.3334 11.2333 15.5334 13.3777 15.0001C15.5444 14.4556 17.7778 14.1779 20 14.1779C22.2333 14.1779 24.4555 14.4556 26.6333 15.0001C28.7666 15.5334 30.8444 16.3334 32.8111 17.389L32.9555 17.4668L32.9889 17.6223C33.0222 17.8112 33.0555 18.0112 33.0778 18.2001C33.1 18.4001 33.1333 18.6001 33.1444 18.8001C33.1666 19.0001 33.1777 19.2001 33.1889 19.4001C33.2 19.6001 33.2111 19.8001 33.2111 20.0001V20.3223V20.3334H33.2H32.8778H30.1222C29.0444 20.3334 28.0222 20.5445 27.0777 20.9334C26.1111 21.3334 25.2333 21.9334 24.5 22.6668C23.7666 23.4001 23.1777 24.2668 22.7778 25.2445C22.3889 26.1779 22.1666 27.2001 22.1666 28.2779V32.7334V33.0112V33.0223L21.8889 33.0556C21.7333 33.0779 21.5666 33.1001 21.4222 33.1223C21.2666 33.1334 21.1111 33.1556 20.9555 33.1668C20.8 33.1779 20.6333 33.189 20.4777 33.2001C20.3222 33.2001 20.1555 33.2112 20 33.2112C19.8444 33.2112 19.6777 33.2001 19.5222 33.2001C19.3666 33.189 19.2 33.1779 19.0444 33.1668C18.8889 33.1556 18.7333 33.1334 18.5777 33.1223C18.4333 33.1001 18.2666 33.0779 18.1111 33.0556L17.8333 33.0223V33.0112V32.7334ZM7.26664 21.5112H9.87775C10.8 21.5112 11.6666 21.689 12.4666 22.0223C13.3 22.3668 14.0444 22.8668 14.6666 23.5001C15.2889 24.1223 15.7889 24.8668 16.1333 25.689C16.4666 26.489 16.6555 27.3668 16.6555 28.2779L16.6444 32.3334V32.7668V32.7779L16.2222 32.6556C15.0111 32.289 13.8778 31.7556 12.8333 31.089C11.7778 30.4001 10.8333 29.5668 10.0111 28.6223C9.19997 27.6779 8.51108 26.6112 7.98886 25.4668C7.47775 24.3445 7.12219 23.1445 6.94442 21.889L6.88886 21.5223V21.5112H6.89997H7.26664ZM20 6.78898C21.3444 6.78898 22.6444 6.98898 23.8777 7.36676C25.1444 7.76676 26.3333 8.34454 27.4111 9.07787C28.5 9.82232 29.4778 10.7223 30.3 11.7557C31.1222 12.7779 31.7889 13.9223 32.2777 15.1557L32.5777 15.9112V15.9223L32.5666 15.9112L31.8333 15.5779C29.9777 14.7223 28.0444 14.0779 26.0777 13.6557C24.0777 13.2112 22.0333 13.0001 20 13.0001C17.9666 13.0001 15.9222 13.2112 13.9222 13.6557C11.9555 14.0779 10.0222 14.7223 8.16664 15.5779L7.43331 15.9112L7.42219 15.9223V15.9112L7.72219 15.1557C8.21108 13.9223 8.87775 12.7779 9.69997 11.7557C10.5222 10.7223 11.5 9.82232 12.5889 9.07787C13.6666 8.34454 14.8555 7.76676 16.1222 7.36676C17.3555 6.98898 18.6555 6.78898 20 6.78898ZM34.0333 16.8668C33.6777 15.2556 33.0444 13.7556 32.2 12.389C31.3333 11.0112 30.2444 9.77787 28.9777 8.76676C27.7222 7.75565 26.3 6.95565 24.7555 6.42232C23.2666 5.90009 21.6666 5.61121 20 5.61121C18.3333 5.61121 16.7333 5.90009 15.2444 6.42232C13.7 6.95565 12.2778 7.75565 11.0222 8.76676C9.75553 9.77787 8.66664 11.0112 7.79997 12.389C6.95553 13.7556 6.32219 15.2556 5.96664 16.8668L5.95553 16.8779V16.9112L5.94442 16.9334C5.88886 17.189 5.84442 17.4556 5.79997 17.7112C5.75553 17.9556 5.7222 18.2112 5.69997 18.4668C5.66664 18.7223 5.64442 18.9779 5.63331 19.2334C5.6222 19.489 5.61108 19.7445 5.61108 20.0001C5.61108 21.9445 5.99997 23.8001 6.69997 25.5001C7.43331 27.2557 8.49997 28.8445 9.83331 30.1668C11.1555 31.5001 12.7444 32.5668 14.5 33.3001C16.2 34.0001 18.0555 34.389 20 34.389C21.9444 34.389 23.8 34.0001 25.5 33.3001C27.2555 32.5668 28.8444 31.5001 30.1666 30.1668C31.5 28.8445 32.5666 27.2557 33.3 25.5001C34 23.8001 34.3889 21.9445 34.3889 20.0001C34.3889 19.7445 34.3778 19.489 34.3666 19.2334C34.3555 18.9779 34.3333 18.7223 34.3 18.4668C34.2777 18.2112 34.2444 17.9556 34.2 17.7112C34.1555 17.4556 34.1111 17.189 34.0555 16.9334L34.0444 16.9112V16.8779L34.0333 16.8668Z" fill="#03A869"/>
</svg>
