<svg width="36" height="36" viewBox="0 0 36 36" fill="none" xmlns="http://www.w3.org/2000/svg">
<path fill-rule="evenodd" clip-rule="evenodd" d="M6.23465 20.6742C8.73973 18.8727 12.2018 19.4216 14.0595 21.8563C14.1299 21.8282 14.2002 21.8 14.2847 21.8H21.7296C22.0251 21.8 22.2644 22.0393 22.2644 22.3348C22.2644 22.6304 22.0251 22.8696 21.7296 22.8696H14.6787C14.9321 23.4044 15.0869 23.9533 15.1713 24.5162L15.1572 24.4177H26.9931H27.4856L27.556 24.8681V24.8821C27.5701 24.9666 27.6123 25.3606 27.6404 25.6984L27.6545 25.8813H27.8375H29.4559H29.667V25.6702V23.8407V23.6296C29.667 23.517 29.6811 23.2918 29.6952 22.9963V22.9681V22.94C29.7796 21.3497 30.0189 17.1699 29.7655 17.001L29.7515 16.9869H29.7374C28.6959 16.4099 28.0767 15.7062 27.8938 15.481H8.06421C7.88125 15.7062 7.26202 16.4099 6.22058 16.9869H6.2065L6.19243 17.001C6.03762 17.1136 6.07984 18.9994 6.15021 20.7023L6.19243 20.6601L6.23465 20.6742ZM15.1995 25.4873C15.1432 27.1761 14.3269 28.8227 12.8351 29.8923C10.2878 31.7218 6.75537 31.1308 4.92582 28.5835C3.40588 26.4724 3.56069 23.6718 5.0947 21.7437C4.99618 19.6327 4.95396 16.4943 5.61542 16.1003L5.64357 16.0862C6.67093 15.5092 7.17758 14.8337 7.20572 14.7914L7.27609 14.6929L5.43246 14.2003C5.15099 14.13 4.98211 13.8344 5.05248 13.553C5.12285 13.2715 5.41839 13.1026 5.69986 13.173L7.71237 13.7078C7.97977 12.9759 8.43012 11.836 9.0212 10.9353C9.45748 10.2457 9.96413 9.69682 10.4989 9.58424H10.513C11.0478 9.42943 11.9485 9.30277 13.0603 9.21832C13.004 9.19018 12.9759 9.11981 12.9759 9.06352V7.43099C12.9759 7.33248 13.0603 7.24804 13.1588 7.24804H14.7913C14.8899 7.24804 14.9743 7.33248 14.9743 7.43099V9.06352C14.9743 9.07759 14.9743 9.09166 14.9743 9.10574C15.6217 9.07759 16.2972 9.06352 16.9868 9.04944V7.43099C16.9868 7.33248 17.0712 7.24804 17.1698 7.24804H18.8023C18.9008 7.24804 18.9852 7.33248 18.9852 7.43099V9.04944C19.6748 9.06352 20.3504 9.07759 20.9977 9.10574C20.9977 9.09166 20.9977 9.07759 20.9977 9.06352V7.43099C20.9977 7.33248 21.0822 7.24804 21.1807 7.24804H22.8132C22.9117 7.24804 22.9962 7.33248 22.9962 7.43099V9.06352C22.9962 9.13388 22.968 9.19018 22.9117 9.21832C24.0376 9.30277 24.9524 9.42943 25.459 9.58424H25.4731C25.9938 9.69682 26.5005 10.2598 26.9368 10.9353C27.5138 11.836 27.9641 12.9619 28.2315 13.6937L30.2581 13.1589C30.5396 13.0885 30.8351 13.2574 30.9055 13.5389C30.9759 13.8204 30.807 14.1159 30.5255 14.1863L28.6819 14.6788L28.7522 14.7633V14.7774C28.7663 14.7914 29.287 15.4951 30.3144 16.0721L30.3425 16.0862C31.1447 16.5788 30.8914 21.2512 30.7929 22.9963C30.7788 23.1792 30.7788 23.2918 30.7648 23.3763C30.7507 23.4607 30.7507 23.5029 30.7648 23.5451V23.5874V23.6014V25.811C30.7648 25.811 30.7648 26.9228 29.667 26.9228H27.8656V26.9087H27.6545C27.4856 26.9087 27.1901 26.8946 26.9368 26.768C26.7116 26.6554 26.5146 26.4584 26.4864 26.0784C26.4864 26.008 26.4723 25.9376 26.4723 25.8673C26.4723 25.811 26.4583 25.7406 26.4442 25.6421L26.4301 25.4591H26.2472H15.1713L15.1995 25.4873ZM26.3035 11.8501C26.7397 12.7086 27.1338 13.8485 27.3167 14.4114H8.68344C8.8664 13.8344 9.26045 12.7086 9.69673 11.8501C10.0204 11.2027 10.3863 10.696 10.7663 10.6397H10.7945L10.8367 10.6257C11.3574 10.4709 12.3144 10.3442 13.5106 10.2598C14.8195 10.1753 16.4239 10.119 18.0142 10.119C19.6326 10.119 21.237 10.1612 22.5318 10.2598C23.728 10.3442 24.6709 10.4568 25.1494 10.6257L25.2057 10.6397H25.2479C25.6139 10.696 25.9798 11.2027 26.3175 11.8501H26.3035ZM28.0908 17.0713C28.0908 17.0713 28.1189 17.7328 28.0908 18.0283C28.0626 18.2817 28.0345 18.6616 27.3308 18.9009C26.6131 19.1401 26.3316 19.1542 26.3316 19.1542C26.3316 19.1542 26.0642 18.8164 25.3605 18.929C24.6569 19.0416 23.5873 19.1542 23.5873 19.1542C23.5873 19.1542 23.3762 19.2527 22.8695 19.0416C22.3629 18.8305 21.8562 18.7179 21.8562 18.7179C21.8562 18.7179 23.531 17.1839 26.6834 17.0713C27.0353 17.0573 28.0767 17.0713 28.0767 17.0713H28.0908ZM7.9094 17.0713C7.9094 17.0713 8.95084 17.0573 9.30267 17.0713C12.4551 17.1839 14.1299 18.7179 14.1299 18.7179C14.1299 18.7179 13.6373 18.8446 13.1166 19.0416C12.6099 19.2527 12.3988 19.1542 12.3988 19.1542C12.3988 19.1542 11.3433 19.0276 10.6256 18.929C9.92191 18.8164 9.65451 19.1542 9.65451 19.1542C9.65451 19.1542 9.37304 19.1401 8.65529 18.9009C7.95162 18.6616 7.92347 18.2676 7.89532 18.0283C7.86718 17.7328 7.89532 17.0713 7.89532 17.0713H7.9094ZM14.0595 21.8704C14.0877 21.8985 14.1017 21.9408 14.1299 21.9689C14.1017 21.9408 14.0877 21.8985 14.0595 21.8704ZM14.144 21.983C14.1721 22.0252 14.2002 22.0674 14.2284 22.0956C14.2002 22.0534 14.1721 22.0111 14.144 21.983ZM14.2284 22.1096C14.2565 22.1519 14.2847 22.1941 14.3128 22.2222C14.2847 22.18 14.2565 22.1378 14.2284 22.1096ZM14.3128 22.2363C14.341 22.2785 14.3551 22.3067 14.3832 22.3489C14.3551 22.3067 14.341 22.2785 14.3128 22.2363ZM15.1854 7.26211H16.8179C16.9164 7.26211 17.0009 7.17767 17.0009 7.07915V5.44663C17.0009 5.34811 16.9164 5.26367 16.8179 5.26367H15.1854C15.0869 5.26367 15.0024 5.34811 15.0024 5.44663V7.07915C15.0024 7.17767 15.0869 7.26211 15.1854 7.26211ZM19.1963 7.26211H20.8289C20.9274 7.26211 21.0118 7.17767 21.0118 7.07915V5.44663C21.0118 5.34811 20.9274 5.26367 20.8289 5.26367H19.1963C19.0978 5.26367 19.0134 5.34811 19.0134 5.44663V7.07915C19.0134 7.17767 19.0978 7.26211 19.1963 7.26211ZM11.7937 22.8274C12.047 22.9681 12.1314 23.3059 11.9907 23.5592L9.34489 28.1472V28.1613V28.1753L9.33082 28.1894L9.31675 28.2035C9.27453 28.2738 9.21823 28.3161 9.14787 28.3583C9.0775 28.4005 8.99306 28.4286 8.90862 28.4286H8.89454H8.88047H8.8664H8.85232C8.76788 28.4286 8.68344 28.4005 8.61307 28.3583C8.54271 28.3161 8.47234 28.2598 8.43012 28.1894V28.1753V28.1613V28.1472L6.83981 25.4028C6.69908 25.1495 6.78352 24.8258 7.03684 24.671C7.29016 24.5303 7.61385 24.6147 7.76866 24.8681L8.90862 26.8383L11.1041 23.0385C11.2448 22.7852 11.5826 22.7007 11.8359 22.8415L11.7937 22.8274ZM10.3019 20.7586C9.13379 20.5616 7.89532 20.8149 6.86796 21.5608C5.82652 22.3067 5.19321 23.3903 5.01026 24.5584C4.81323 25.7265 5.06655 26.965 5.81245 27.9924C6.55834 29.0197 7.642 29.6671 8.8101 29.8501C9.9782 30.0471 11.2167 29.7938 12.244 29.0479C13.2855 28.302 13.9188 27.2183 14.1017 26.0502C14.2988 24.8821 14.0454 23.6437 13.2995 22.6163C12.5537 21.5749 11.47 20.9415 10.3019 20.7586Z" fill="#FEFEFE"/>
</svg>
