<svg width="36" height="36" viewBox="0 0 36 36" fill="none" xmlns="http://www.w3.org/2000/svg">
<path d="M26.3097 11.8437C26.7456 12.7024 27.1354 13.8385 27.3203 14.4132H8.68619C8.87115 13.8451 9.26087 12.709 9.69684 11.8437C10.0205 11.1963 10.3904 10.6943 10.7603 10.6349L10.7933 10.6283L10.8396 10.615C11.3614 10.4565 12.3258 10.331 13.5148 10.2517C14.8293 10.1593 16.4212 10.1196 18.0198 10.1196C19.6315 10.1196 21.2367 10.1659 22.5379 10.2517C23.7335 10.331 24.6781 10.4565 25.1537 10.615L25.2066 10.6349L25.2462 10.6415C25.6161 10.7009 25.986 11.2095 26.3097 11.8503V11.8437ZM30.2862 13.1714L28.2649 13.713C28.0007 12.9732 27.5449 11.8503 26.9636 10.9453C26.5277 10.2583 26.019 9.71009 25.4972 9.59119L25.484 9.58458C24.9754 9.42605 24.0638 9.30054 22.9343 9.21467C22.9871 9.18165 23.0201 9.1222 23.0201 9.05614V7.42458C23.0201 7.31889 22.9343 7.23963 22.8352 7.23963H21.2036C21.0979 7.23963 21.0187 7.3255 21.0187 7.42458V9.05614C21.0187 9.06935 21.0187 9.08917 21.0253 9.10238C20.3779 9.07596 19.7042 9.05614 19.0172 9.04954V7.42458C19.0172 7.31889 18.9313 7.23963 18.8322 7.23963H17.2007C17.095 7.23963 17.0157 7.3255 17.0157 7.42458V9.04954C16.3288 9.05614 15.655 9.07596 15.0077 9.10238C15.0143 9.08917 15.0143 9.06935 15.0143 9.05614V7.42458C15.0143 7.31889 14.9284 7.23963 14.8293 7.23963H13.1978C13.0921 7.23963 13.0128 7.3255 13.0128 7.42458V9.05614C13.0128 9.1222 13.0458 9.18165 13.0987 9.21467C11.9889 9.30715 11.084 9.42605 10.5489 9.58458L10.5357 9.59119C10.0073 9.70348 9.50528 10.2583 9.06271 10.9453C8.48142 11.8503 8.02564 12.9798 7.76142 13.713L5.74014 13.1714C5.4561 13.0987 5.16546 13.2638 5.08619 13.5479C5.01353 13.8319 5.17867 14.1226 5.46271 14.2018L7.30564 14.6972L7.23298 14.7963C7.20656 14.8294 6.69133 15.5163 5.66748 16.091L5.64106 16.1042C4.83518 16.5996 5.0928 21.2829 5.19188 23.0268V23.04C5.19849 23.2117 5.2117 23.324 5.2183 23.4033C5.22491 23.4892 5.23151 23.5354 5.22491 23.575L5.2183 23.6213V23.6411V25.8473C5.2183 25.8473 5.2183 26.1314 5.36362 26.4154C5.49573 26.6862 5.77317 26.9571 6.32803 26.9571H8.12473V26.9505H8.3361C8.50784 26.9505 8.80509 26.9306 9.0561 26.8117C9.28729 26.6994 9.48546 26.4947 9.50528 26.1248C9.51188 26.0521 9.51188 25.9927 9.51849 25.9266C9.52509 25.8605 9.5317 25.7747 9.54491 25.6822L9.56472 25.4972H9.74968H26.3031H26.488L26.5078 25.6822C26.5211 25.7813 26.5277 25.8671 26.5277 25.9134C26.5343 25.9794 26.5409 26.0521 26.5409 26.1248C26.5607 26.5013 26.7589 26.706 26.99 26.8117C27.2477 26.9306 27.5449 26.9505 27.71 26.9505H27.9214V26.9571H29.7181C30.8212 26.9571 30.8212 25.8473 30.8212 25.8473V23.6411V23.6279L30.8146 23.5816C30.808 23.542 30.8146 23.4958 30.8212 23.4099C30.8278 23.3306 30.8411 23.2117 30.8477 23.0334C30.9467 21.2829 31.2044 16.6128 30.3985 16.1174L30.3721 16.1042C29.3284 15.5295 28.8198 14.8294 28.8 14.8095L28.7933 14.8029L28.7273 14.7105L30.5702 14.215C30.8543 14.1424 31.0194 13.8451 30.9467 13.5611C30.8741 13.2771 30.5768 13.1119 30.2928 13.1846L30.2862 13.1714ZM15.186 7.23963H16.8176C16.9233 7.23963 17.0025 7.15376 17.0025 7.05467V5.42311C17.0025 5.31743 16.9167 5.23816 16.8176 5.23816H15.186C15.0803 5.23816 15.0011 5.32403 15.0011 5.42311V7.05467C15.0011 7.16036 15.0869 7.23963 15.186 7.23963ZM19.1955 7.23963H20.8271C20.9328 7.23963 21.0121 7.15376 21.0121 7.05467V5.42311C21.0121 5.31743 20.9262 5.23816 20.8271 5.23816H19.1955C19.0899 5.23816 19.0106 5.32403 19.0106 5.42311V7.05467C19.0106 7.16036 19.0965 7.23963 19.1955 7.23963ZM14.2877 21.8048H21.7321C22.0227 21.8048 22.2605 22.0426 22.2605 22.3332C22.2605 22.6238 22.0227 22.8616 21.7321 22.8616H14.2877C13.997 22.8616 13.7592 22.6238 13.7592 22.3332C13.7592 22.0426 13.997 21.8048 14.2877 21.8048ZM27.928 15.4767C28.113 15.7013 28.7273 16.4081 29.7644 16.9894L29.771 16.996L29.7842 17.0026C30.0286 17.1809 29.7974 21.3622 29.7049 22.9475V22.9673V22.9938C29.6851 23.291 29.6785 23.509 29.6785 23.6279V23.8393H29.6719V25.6756V25.887H29.4605H27.8355H27.644L27.6242 25.6954C27.5911 25.3651 27.5449 24.9622 27.5317 24.8829V24.8697L27.4656 24.4139H26.9702H9.02307H8.52766L8.46161 24.8763V24.8829C8.455 24.9622 8.40216 25.3717 8.36913 25.6954L8.34931 25.887H8.15775H6.5328H6.32142V25.6756V23.8393H6.31482V23.6279C6.31482 23.509 6.30161 23.2844 6.2884 22.9805V22.9673V22.9343C6.19592 21.3424 5.97133 17.1743 6.20913 16.996L6.22234 16.9894L6.22895 16.9827C7.26601 16.4015 7.88693 15.6947 8.06528 15.4701H27.9016L27.928 15.4767ZM7.91335 17.062C7.91335 17.062 8.95702 17.0488 9.30051 17.062C12.4513 17.1743 14.1357 18.7134 14.1357 18.7134C14.1357 18.7134 13.6403 18.8323 13.1251 19.0371C12.6165 19.2418 12.4051 19.1427 12.4051 19.1427C12.4051 19.1427 11.3416 19.0238 10.6348 18.9116C9.92803 18.8059 9.66381 19.1427 9.66381 19.1427C9.66381 19.1427 9.38638 19.1361 8.66638 18.8917C7.95959 18.6473 7.93977 18.2642 7.90674 18.0132C7.87372 17.7226 7.90674 17.062 7.90674 17.062H7.91335ZM28.0998 17.062C28.0998 17.062 28.1328 17.7226 28.0998 18.0132C28.0667 18.2642 28.0469 18.6539 27.3401 18.8917C26.6201 19.1361 26.3427 19.1427 26.3427 19.1427C26.3427 19.1427 26.0785 18.8059 25.3717 18.9116C24.6649 19.0172 23.6014 19.1427 23.6014 19.1427C23.6014 19.1427 23.39 19.2418 22.8814 19.0371C22.3728 18.8323 21.8708 18.7134 21.8708 18.7134C21.8708 18.7134 23.5552 17.1809 26.706 17.062C27.0561 17.0488 28.0932 17.062 28.0932 17.062H28.0998Z" fill="white"/>
</svg>
