<svg width="44" height="44" viewBox="0 0 44 44" fill="none" xmlns="http://www.w3.org/2000/svg">
<path fill-rule="evenodd" clip-rule="evenodd" d="M23.8801 11.0818C25.4166 11.3405 26.8626 11.8655 28.1698 12.6069L28.876 11.4767L28.1776 11.0403C27.8791 10.8538 27.7875 10.4572 27.974 10.1587L27.9742 10.1583C28.1607 9.85975 28.5573 9.76825 28.8558 9.95485L31.338 11.5059C31.6365 11.6924 31.7283 12.0891 31.5418 12.3876L31.5414 12.3879C31.3549 12.6864 30.9583 12.7779 30.6598 12.5913L29.9614 12.1549L29.2513 13.2916C32.6434 15.6773 34.8604 19.6208 34.8604 24.0828C34.8604 31.3652 28.9569 37.2687 21.6747 37.2687C14.3925 37.2687 8.48901 31.3652 8.48901 24.0828C8.48901 19.6208 10.706 15.6772 14.0981 13.2916L13.388 12.1549L12.6896 12.5913C12.3911 12.7779 11.9945 12.6864 11.808 12.3879L11.8076 12.3876C11.6211 12.0891 11.7129 11.6924 12.0114 11.5059L14.4936 9.95485C14.7921 9.76825 15.1887 9.85975 15.3752 10.1583L15.3754 10.1587C15.5619 10.4572 15.4703 10.8538 15.1718 11.0403L14.4734 11.4767L15.1796 12.6069C16.4868 11.8655 17.9328 11.3405 19.4695 11.0818C18.9843 10.5507 18.688 9.84375 18.688 9.06775C18.688 7.41825 20.0254 6.08105 21.6747 6.08105C23.3242 6.08105 24.6614 7.41825 24.6614 9.06775C24.6614 9.84375 24.3653 10.5507 23.8801 11.0818ZM21.6747 21.9495C21.7064 21.9495 21.738 21.9504 21.7692 21.9517L24.1239 15.4821C24.2444 15.1512 24.6132 14.9793 24.9442 15.0996L24.9445 15.0998C25.2753 15.2201 25.4473 15.5889 25.3268 15.92L22.9721 22.3893C23.4802 22.78 23.808 23.394 23.808 24.0828C23.808 25.2611 22.853 26.2162 21.6747 26.2162C21.643 26.2162 21.6114 26.2153 21.5802 26.2139L20.6884 28.664C20.5679 28.995 20.1991 29.167 19.8682 29.0465L19.8679 29.0463C19.5371 28.926 19.3651 28.5572 19.4856 28.2261L20.3773 25.7764C19.8689 25.3862 19.5414 24.772 19.5414 24.0828C19.5414 22.9046 20.4964 21.9495 21.6747 21.9495ZM22.2782 23.4794C22.1239 23.3251 21.9104 23.2295 21.6747 23.2295C21.439 23.2295 21.2255 23.3251 21.0712 23.4794C20.9169 23.6336 20.8214 23.8471 20.8214 24.0828C20.8214 24.3185 20.9169 24.532 21.0712 24.6863C21.2255 24.8406 21.439 24.9362 21.6747 24.9362C21.9104 24.9362 22.1239 24.8406 22.2782 24.6863C22.4325 24.532 22.528 24.3185 22.528 24.0828C22.528 23.8471 22.4325 23.6336 22.2782 23.4794ZM22.8815 7.85585C22.576 7.55035 22.1493 7.36105 21.6747 7.36105C21.2035 7.36105 20.7767 7.55215 20.4679 7.86095C20.1592 8.16965 19.968 8.59655 19.968 9.06775C19.968 9.53895 20.1592 9.96575 20.4679 10.2745C20.7767 10.5833 21.2035 10.7744 21.6747 10.7744C22.1459 10.7744 22.5727 10.5833 22.8815 10.2745C23.1902 9.96575 23.3814 9.53895 23.3814 9.06775C23.3814 8.59305 23.1921 8.16645 22.8866 7.86095L22.8815 7.85585ZM30.0933 15.6642C27.939 13.5099 24.9624 12.1771 21.6747 12.1771C18.387 12.1771 15.4104 13.5099 13.2561 15.6642C11.1017 17.8185 9.76901 20.7951 9.76901 24.0828C9.76901 27.3706 11.1017 30.3471 13.2561 32.5016C15.4104 34.656 18.387 35.9887 21.6747 35.9887C24.9624 35.9887 27.939 34.656 30.0933 32.5016C32.2477 30.3471 33.5804 27.3706 33.5804 24.0828C33.5804 20.7951 32.2477 17.8185 30.0933 15.6642Z" fill="#FEFEFE"/>
</svg>
