<svg width="40" height="40" viewBox="0 0 40 40" fill="none" xmlns="http://www.w3.org/2000/svg">
<path fill-rule="evenodd" clip-rule="evenodd" d="M33.8888 25.3778C34.0444 25.4778 34.1777 25.6223 34.2666 25.8C34.3666 25.9778 34.3999 26.1667 34.3888 26.3556C34.3777 26.5556 34.311 26.7334 34.1888 26.9L33.0666 28.5C32.7444 28.9556 32.3221 29.3112 31.8444 29.5556C31.3666 29.8112 30.8332 29.9445 30.2777 29.9445H21.3332C21.3999 30.3001 21.3444 30.6889 21.1777 31.0445C20.9555 31.4889 20.5777 31.8112 20.1444 31.9667C19.8666 32.0556 19.5777 32.0889 19.2777 32.0445L19.211 32.2C18.9888 32.6556 18.611 32.9667 18.1666 33.1223C17.8999 33.2223 17.5999 33.2556 17.2999 33.2112C17.2888 33.2556 17.2666 33.3112 17.2332 33.3667C17.0221 33.8112 16.6332 34.1334 16.1999 34.2889C15.7555 34.4445 15.2666 34.4223 14.811 34.2112L8.24436 31.0334C7.0888 30.4667 6.26658 29.4889 5.86658 28.3667C5.47769 27.2334 5.51102 25.9556 6.07769 24.8C6.2888 24.3445 6.56658 23.9334 6.87769 23.5778C7.2888 21.1778 8.33325 18.9889 9.84436 17.2112C11.711 15.0112 14.2888 13.4334 17.211 12.8445C17.1999 12.7889 17.1999 12.7223 17.1999 12.6667C17.1999 11.9445 17.4888 11.3 17.9555 10.8223C18.4221 10.3445 19.0777 10.0556 19.7888 10.0556C20.4999 10.0556 21.1444 10.3445 21.6221 10.8223C22.0888 11.3 22.3777 11.9445 22.3777 12.6667C22.3777 12.7334 22.3666 12.7889 22.3666 12.8445C25.2888 13.4334 27.8666 15.0112 29.7332 17.2112C31.5777 19.3889 32.7332 22.1778 32.8666 25.2223H33.3332C33.5332 25.2223 33.7221 25.2778 33.8888 25.3778ZM20.0888 29.9334V29.9223L20.0777 29.9112V29.9H20.0666V29.8889L20.0555 29.8778V29.8667H20.0444V29.8556L20.0332 29.8445L20.0221 29.8334L20.011 29.8223L19.9999 29.8112L19.9888 29.8L19.9777 29.7889L19.9666 29.7778L19.9555 29.7667L19.9332 29.7556C19.9221 29.7445 19.911 29.7334 19.8999 29.7223H19.8888L19.8666 29.7112V29.7L19.8444 29.6889H19.8332L19.8221 29.6778L17.9221 28.7667L14.9666 27.3334C14.811 27.2556 14.7444 27.0667 14.8221 26.9112C14.8999 26.7556 15.0888 26.6889 15.2444 26.7667L18.9555 28.5556C19.2666 28.7112 19.6555 28.5778 19.7999 28.2667C19.9555 27.9445 19.8221 27.5667 19.511 27.4223L17.4221 26.4112L14.9777 25.2223L13.511 24.5112C13.411 24.4667 13.3444 24.3667 13.3332 24.2667C13.3221 24.1556 13.3666 24.0445 13.4555 23.9778L15.411 22.4778C15.5666 22.3556 15.6888 22.2 15.7777 22.0223C15.911 21.7334 15.7888 21.3889 15.511 21.2556C15.3666 21.1778 15.211 21.1778 15.0666 21.2223L9.57769 23.1334C8.96658 23.3445 8.42214 23.6889 7.97769 24.1334L7.96658 24.1445L7.95547 24.1556H7.94436L7.93325 24.1778L7.91102 24.1889L7.89991 24.2112L7.8888 24.2223L7.87769 24.2334L7.86658 24.2445L7.85547 24.2556L7.84436 24.2667L7.83325 24.2778L7.82214 24.2889L7.81102 24.3V24.3112L7.7888 24.3223L7.77769 24.3445L7.76658 24.3556L7.74436 24.3778L7.72214 24.4112L7.71102 24.4223H7.69991L7.6888 24.4445L7.67769 24.4667L7.65547 24.4778L7.64436 24.5L7.63325 24.5112L7.62214 24.5334L7.61102 24.5445L7.57769 24.5889L7.54436 24.6334L7.53325 24.6445L7.52214 24.6556L7.51102 24.6667V24.6778L7.49991 24.7L7.4888 24.7112L7.46658 24.7334L7.45547 24.7556L7.44436 24.7667L7.43325 24.7889L7.42214 24.8V24.8112L7.39991 24.8445L7.37769 24.8667C7.2888 25.0112 7.21102 25.1556 7.13325 25.3112C7.06658 25.4445 7.01102 25.5778 6.96658 25.7223L6.94436 25.8V25.8112C6.92214 25.8889 6.89991 25.9667 6.87769 26.0445V26.0667C6.86658 26.1112 6.85547 26.1667 6.84436 26.2112V26.2223L6.83325 26.2334V26.3L6.82214 26.3112L6.81102 26.3889V26.4V26.4778C6.79991 26.5334 6.79991 26.5889 6.7888 26.6445V26.6667V26.7223V26.7445V26.8112V26.8223C6.7888 26.8778 6.7888 26.9334 6.7888 26.9778V26.9889L6.79991 27.0445V27.0556V27.0889V27.1445L6.81102 27.1667C6.81102 27.2112 6.82214 27.2667 6.82214 27.3112V27.3223L6.83325 27.3889L6.84436 27.4223L6.85547 27.4889L6.86658 27.5556V27.5667V27.5778C6.87769 27.6223 6.89991 27.6778 6.91102 27.7223V27.7445L6.92214 27.8L6.93325 27.8334H6.94436L6.95547 27.9L6.9888 27.9778L7.01102 28.0556L7.03325 28.1223L7.04436 28.1334L7.07769 28.2V28.2112C7.09991 28.2556 7.12214 28.3112 7.14436 28.3556L7.15547 28.3667L7.17769 28.4223L7.1888 28.4445L7.22214 28.5112L7.25547 28.5667L7.26658 28.5778V28.5889L7.29991 28.6556H7.31102L7.34436 28.7112L7.35547 28.7334C7.3888 28.7778 7.41102 28.8223 7.44436 28.8667L7.45547 28.8778L7.4888 28.9223L7.49991 28.9445L7.53325 28.9889L7.55547 29.0112L7.59991 29.0667L7.65547 29.1334L7.71102 29.1889L7.72214 29.2L7.76658 29.2556C8.04436 29.5445 8.37769 29.7889 8.75547 29.9667L15.3221 33.1445C15.6444 33.3 16.0221 33.1667 16.1777 32.8556C16.3221 32.5334 16.1999 32.1556 15.8777 32L13.311 30.7667C13.1555 30.6889 13.0888 30.5 13.1666 30.3334C13.2332 30.1778 13.4332 30.1112 13.5888 30.1889L17.2999 31.9889C17.611 32.1334 17.9888 32.0112 18.1444 31.6889C18.2999 31.3778 18.1666 31 17.8555 30.8445L15.9888 29.9445L14.1332 29.0445H14.1221L14.111 29.0334H14.0999V29.0223H14.0888V29.0112H14.0777L14.0666 29L14.0555 28.9889L14.0444 28.9778L14.0332 28.9667V28.9556H14.0221V28.9445H14.011V28.9334L13.9999 28.9223V28.9112L13.9888 28.9V28.8889L13.9777 28.8778V28.8667V28.8556L13.9666 28.8445V28.8334V28.8223V28.8112V28.8V28.7889H13.9555V28.7778V28.7667C13.9555 28.7223 13.9666 28.6667 13.9888 28.6223C14.0666 28.4667 14.2555 28.4 14.411 28.4778L15.011 28.7667L17.4444 29.9445L19.2666 30.8223C19.5888 30.9778 19.9666 30.8445 20.1221 30.5334C20.211 30.3334 20.1999 30.1112 20.0888 29.9334ZM20.8666 28.7667H30.2777C30.6444 28.7667 30.9888 28.6778 31.311 28.5112C31.6221 28.3445 31.8999 28.1112 32.111 27.8112L33.0999 26.4112H20.1221C20.5221 26.6334 20.7999 26.9889 20.9444 27.3889C21.0999 27.8223 21.0777 28.3223 20.8666 28.7667ZM17.6777 25.2223H31.6999C31.5666 22.3667 30.4444 19.7778 28.6666 17.7778C26.8555 15.7445 24.3777 14.3334 21.5777 13.9C21.4444 13.8778 21.311 13.8667 21.1777 13.8445C21.0444 13.8334 20.911 13.8223 20.7777 13.8112L20.611 13.8C20.3332 13.7778 20.0666 13.7667 19.7888 13.7667C19.511 13.7667 19.2444 13.7778 18.9666 13.8H18.8888C18.8666 13.8112 18.8332 13.8112 18.7999 13.8112C18.6666 13.8223 18.5332 13.8334 18.3999 13.8445C18.2666 13.8667 18.1332 13.8778 17.9999 13.9C15.1999 14.3334 12.7221 15.7445 10.911 17.7778C9.74436 19.0889 8.85547 20.6667 8.35547 22.4C8.62214 22.2445 8.89991 22.1223 9.19991 22.0223L14.6777 20.1112C14.8999 20.0334 15.1221 20 15.3555 20.0112C15.4666 20.0223 15.5777 20.0445 15.6888 20.0667H15.7666L16.0221 20.1889C16.4555 20.4 16.7666 20.7667 16.911 21.1889V21.2C17.0221 21.5223 17.0444 21.8667 16.9555 22.2112V22.2889L16.8332 22.5334C16.7555 22.7 16.6555 22.8667 16.5332 23.0112C16.411 23.1556 16.2777 23.2889 16.1221 23.4112L15.2777 24.0556L17.6777 25.2223ZM18.7888 11.6556C18.5332 11.9112 18.3777 12.2667 18.3777 12.6667C18.4555 12.6556 18.5332 12.6445 18.611 12.6445C18.6999 12.6334 18.7777 12.6223 18.8777 12.6223L19.0666 12.6C19.1888 12.6 19.2999 12.5889 19.4221 12.5889C19.5555 12.5889 19.6777 12.5889 19.7888 12.5889C19.8999 12.5889 20.0221 12.5889 20.1555 12.5889C20.2777 12.5889 20.3888 12.6 20.511 12.6112C20.5555 12.6112 20.5999 12.6112 20.6444 12.6112L20.6999 12.6223C20.7999 12.6223 20.8777 12.6334 20.9666 12.6445C21.0444 12.6445 21.1221 12.6556 21.1999 12.6667C21.1999 12.2667 21.0444 11.9112 20.7888 11.6556C20.5332 11.4 20.1777 11.2445 19.7888 11.2445C19.3999 11.2445 19.0444 11.4 18.7888 11.6556Z" fill="#03A869"/>
</svg>
