<svg width="18" height="19" viewBox="0 0 18 19" fill="none" xmlns="http://www.w3.org/2000/svg">
<path fill-rule="evenodd" clip-rule="evenodd" d="M16 1.5H6C5.44772 1.5 5 1.94772 5 2.5V4.5H12C13.1046 4.5 14 5.39543 14 6.5V13.5H16C16.5523 13.5 17 13.0523 17 12.5V2.5C17 1.94772 16.5523 1.5 16 1.5ZM14 14.5H16C17.1046 14.5 18 13.6046 18 12.5V2.5C18 1.39543 17.1046 0.5 16 0.5H6C4.89543 0.5 4 1.39543 4 2.5V4.5H2C0.895431 4.5 0 5.39543 0 6.5V16.5C0 17.6046 0.89543 18.5 2 18.5H12C13.1046 18.5 14 17.6046 14 16.5V14.5ZM13 14.5V13.5V6.5C13 5.94772 12.5523 5.5 12 5.5H2C1.44772 5.5 1 5.94772 1 6.5V16.5C1 17.0523 1.44772 17.5 2 17.5H12C12.5523 17.5 13 17.0523 13 16.5V14.5Z" fill="#F95003"/>
</svg>
