<svg width="21" height="22" viewBox="0 0 21 22" fill="none" xmlns="http://www.w3.org/2000/svg">
<path fill-rule="evenodd" clip-rule="evenodd" d="M10.4218 7.02261C12.536 7.02261 14.2466 8.70959 14.2466 10.7945C14.2466 12.8795 12.536 14.5665 10.4218 14.5665C8.312 14.5665 6.59698 12.8795 6.59698 10.7945C6.59698 8.71392 8.30761 7.02261 10.4218 7.02261ZM9.37786 20.047V18.6066C7.58826 18.3773 5.98288 17.5598 4.76788 16.3659C3.55727 15.1634 2.72827 13.5845 2.49579 11.8197H1.03955C0.464943 11.8197 0 11.3569 0 10.7945V10.7902C0 10.2236 0.46933 9.76504 1.03955 9.76504H2.49579C2.72827 8.00019 3.55727 6.41702 4.76788 5.21883C5.98288 4.02064 7.58826 3.20742 9.37786 2.97817V1.53774C9.37786 0.971087 9.8472 0.512573 10.4218 0.512573H10.4262C11.0008 0.512573 11.4657 0.975413 11.4657 1.53774V2.97817C13.2553 3.20742 14.8563 4.02496 16.0713 5.21883C17.2907 6.41702 18.1153 8.00019 18.3478 9.76504H19.8084C20.383 9.76504 20.848 10.2279 20.848 10.7902V10.7945C20.848 11.3612 20.3787 11.8197 19.8084 11.8197H18.3478C18.1153 13.5845 17.2863 15.1634 16.0757 16.3616C14.8563 17.5598 13.2553 18.3773 11.4657 18.6066V20.047C11.4657 20.6137 10.9964 21.0722 10.4262 21.0722H10.4218C9.8472 21.0722 9.37786 20.6093 9.37786 20.047ZM14.5975 6.67223C13.5317 5.62111 12.0491 4.96794 10.4174 4.96794C8.78571 4.96794 7.30756 5.62111 6.24169 6.67656C5.17144 7.73201 4.50911 9.18973 4.50911 10.7945C4.50911 12.4037 5.17144 13.8657 6.2373 14.9168C7.30755 15.968 8.78571 16.6211 10.4174 16.6211C12.0491 16.6211 13.5317 15.968 14.5975 14.9168C15.6634 13.8657 16.3257 12.4037 16.3257 10.7945C16.3257 9.18541 15.6634 7.72768 14.5932 6.67223H14.5975Z" fill="#03A96A"/>
</svg>
