<svg width="40" height="41" viewBox="0 0 40 41" fill="none" xmlns="http://www.w3.org/2000/svg">
<path fill-rule="evenodd" clip-rule="evenodd" d="M5.61108 26.1891V23.8224V22.6446V10.8113C5.61108 9.57795 6.63331 8.55573 7.86664 8.55573H32.1333C33.3666 8.55573 34.3889 9.57795 34.3889 10.8113V26.1891C34.3889 27.4224 33.3666 28.4446 32.1333 28.4446H20.5889V31.7113H24.9222C25.2444 31.7113 25.5111 31.9779 25.5111 32.3002C25.5111 32.6224 25.2444 32.8891 24.9222 32.8891H15.0777C14.7555 32.8891 14.4889 32.6224 14.4889 32.3002C14.4889 31.9779 14.7555 31.7113 15.0777 31.7113H19.4111V28.4446H7.86664C6.63331 28.4446 5.61108 27.4224 5.61108 26.1891ZM33.2111 22.6446H6.78886V10.8113C6.78886 10.5224 6.91108 10.2557 7.11108 10.0557C7.29997 9.85572 7.56664 9.7335 7.86664 9.7335H32.1333C32.4333 9.7335 32.7 9.85572 32.8889 10.0557C33.0889 10.2557 33.2111 10.5224 33.2111 10.8113V22.6446ZM6.78886 23.8224H33.2111V26.1891C33.2111 26.4779 33.0889 26.7446 32.8889 26.9446C32.7 27.1446 32.4333 27.2668 32.1333 27.2668H20.5889H19.4111H7.86664C7.56664 27.2668 7.29997 27.1446 7.11108 26.9446C6.91108 26.7446 6.78886 26.4779 6.78886 26.1891V23.8224Z" fill="#03A869"/>
</svg>
