<svg width="40" height="40" viewBox="0 0 40 40" fill="none" xmlns="http://www.w3.org/2000/svg">
<path fill-rule="evenodd" clip-rule="evenodd" d="M6.61108 27.689V19.2557C6.02219 18.8668 5.61108 18.289 5.61108 17.5112V12.3112C5.61108 11.0668 6.62219 10.0557 7.86664 10.0557H14.4889V7.86676C14.4889 6.62232 15.5 5.61121 16.7444 5.61121H23.2555C24.5 5.61121 25.5111 6.62232 25.5111 7.86676V10.0557H32.1333C33.3777 10.0557 34.3889 11.0779 34.3889 12.3112V17.5112C34.3889 18.289 33.9777 18.8557 33.3889 19.2557V27.689C33.3889 28.9334 32.3666 29.9445 31.1222 29.9445H8.87775C7.63331 29.9445 6.61108 28.9334 6.61108 27.689ZM16.9555 22.4223V21.9001L7.86664 19.7779L7.79997 19.7557V27.689C7.79997 27.9779 7.92219 28.2445 8.11108 28.4445C8.31108 28.6445 8.57775 28.7668 8.87775 28.7668H31.1222C31.4222 28.7668 31.6889 28.6445 31.8889 28.4445C32.0778 28.2445 32.2 27.9779 32.2 27.689V19.7557L32.1333 19.7779L23.2555 21.8445V22.4223C23.2555 23.0334 22.7444 23.5445 22.1222 23.5445H18.0889C17.4666 23.5445 16.9555 23.0334 16.9555 22.4223ZM16.9555 20.689V20.3223C16.9555 19.7001 17.4666 19.189 18.0889 19.189H22.1222C22.7444 19.189 23.2555 19.7001 23.2555 20.3223V20.6334L31.8666 18.6223C32.3111 18.5223 32.7111 18.3445 32.9666 18.089C33.1111 17.9334 33.2111 17.7445 33.2111 17.5112V12.3112C33.2111 12.0223 33.0889 11.7557 32.8889 11.5557C32.7 11.3556 32.4222 11.2334 32.1333 11.2334H7.86664C7.57775 11.2334 7.29997 11.3556 7.11108 11.5557C6.91108 11.7557 6.78886 12.0223 6.78886 12.3112V17.5112C6.78886 17.7445 6.88886 17.9334 7.03331 18.089C7.28886 18.3445 7.68886 18.5223 8.13331 18.6223L16.9555 20.689ZM18.1333 20.3779V22.3668H22.0778V20.3779H18.1333ZM15.6666 10.0557H24.3333V7.86676C24.3333 7.57787 24.2111 7.30009 24.0111 7.11121C23.8222 6.91121 23.5444 6.78898 23.2555 6.78898H16.7444C16.4555 6.78898 16.1778 6.91121 15.9889 7.11121C15.7889 7.30009 15.6666 7.57787 15.6666 7.86676V10.0557Z" fill="#03A869"/>
</svg>
