<svg width="40" height="40" viewBox="0 0 40 40" fill="none" xmlns="http://www.w3.org/2000/svg">
<path d="M27.2779 8.81122L30.389 8.00011C30.7001 7.92234 31.0223 8.11122 31.1112 8.42234C31.189 8.74456 31.0001 9.06678 30.689 9.14456L27.6001 9.94456L27.8335 10.7334C27.9112 11.0223 27.7557 11.3446 27.4668 11.4446L24.3779 12.8223C24.3223 12.9668 24.2223 13.089 24.0779 13.1668L21.8112 14.2668L21.1446 15.5446C21.0335 15.7557 20.8001 15.8779 20.5668 15.8557C20.1779 15.8112 19.8779 15.889 19.6668 16.0446C19.5223 16.1446 19.4001 16.2779 19.3223 16.4334C19.2335 16.6112 19.1779 16.8001 19.1557 17.0001C19.1223 17.3557 19.2001 17.7112 19.3668 17.9557C19.5112 18.1668 19.5001 18.4334 19.3668 18.6334C18.8557 19.4001 18.2668 20.9334 18.0335 22.4223C17.8779 23.4668 17.9001 24.4446 18.2557 25.0223H18.6668C18.8335 25.0223 18.9779 25.089 19.089 25.2001L22.6223 28.1446C22.7668 28.2557 22.8335 28.4223 22.8335 28.589V30.9446C22.8335 31.1446 22.7335 31.3334 22.5779 31.4334L21.7223 32.1446C21.6112 32.2446 21.4779 32.289 21.3446 32.289H11.9001C11.5668 32.289 11.3112 32.0223 11.3112 31.7001V26.8446C11.3112 26.5223 11.5668 26.2557 11.9001 26.2557C11.9112 26.2557 11.9335 26.2557 11.9557 26.2557H12.2112L12.2001 25.6223C12.2001 25.3001 12.4557 25.0334 12.7779 25.0223H12.789H13.1001C12.8335 22.7557 13.2112 20.8001 13.489 19.3112C13.689 18.2668 13.8335 17.489 13.6779 17.2334C13.4001 16.7668 12.389 16.9223 11.5112 17.0668C10.8335 17.1668 10.2335 17.2668 9.76679 17.1112C9.71123 17.1001 9.65567 17.0779 9.61123 17.0557C9.60012 17.0557 9.5779 17.0446 9.56679 17.0334C8.85567 16.689 8.36679 15.7446 8.11123 14.7334V14.7001C7.86679 13.7334 7.83345 12.6668 8.03345 12.0334C8.05567 11.9668 8.0779 11.9001 8.11123 11.8446C8.50012 10.9446 11.9223 9.74456 12.8223 9.42234L12.9446 9.37789C14.0446 8.989 15.2668 8.64456 16.5112 8.41122C17.6446 8.189 18.8001 8.05567 19.9223 8.04456C20.0335 8.03345 20.1446 8.06678 20.2335 8.12234L20.5112 8.10011C21.2446 8.02234 21.9446 7.95567 22.7001 7.94456C22.8335 7.93345 22.9446 7.97789 23.0446 8.04456L26.389 7.56678C26.689 7.52234 26.9668 7.70011 27.0446 7.989L27.2779 8.81122ZM26.0446 8.80011L23.5001 9.16678L24.1557 11.6334L26.5557 10.5668L26.0446 8.80011ZM22.2668 9.13345C21.7557 9.15567 21.2335 9.21122 20.7112 9.26678L21.7001 13.0112L23.1223 12.3112L22.2668 9.13345ZM14.6446 19.5334C14.3779 20.9668 14.0112 22.8668 14.289 25.0223H16.9779C16.7223 24.2334 16.7223 23.2446 16.8668 22.2557C17.1001 20.7779 17.6668 19.2223 18.2001 18.2779C18.0112 17.8557 17.9446 17.3668 17.989 16.889C18.0223 16.5446 18.1223 16.2001 18.2779 15.889C18.4446 15.5779 18.689 15.289 19.0001 15.0779C19.3446 14.8334 19.7668 14.689 20.2779 14.6668L20.7001 13.8446L19.4779 9.23345C18.5779 9.26678 17.6557 9.389 16.7335 9.56678C15.5557 9.789 14.389 10.1112 13.3446 10.489L13.2223 10.5334C12.4223 10.8223 9.3779 11.889 9.18901 12.3223C9.1779 12.3334 9.16679 12.3557 9.15567 12.389C9.02234 12.8223 9.05567 13.6446 9.25567 14.4223V14.4446C9.43345 15.1557 9.72234 15.789 10.0668 15.9668L10.089 15.9779C10.1112 15.989 10.1223 15.989 10.1223 15.989C10.3223 16.0557 10.8001 15.9779 11.3223 15.9001C12.5668 15.7112 14.0001 15.489 14.689 16.6223C15.0779 17.2668 14.9001 18.2334 14.6446 19.5334ZM13.389 26.2001V26.8446V26.8557C13.389 27.1779 13.1223 27.4446 12.8001 27.4446L12.489 27.4334V31.1112H21.1335L21.6557 30.6779V28.8668L18.4557 26.2001H13.389Z" fill="#03A869"/>
</svg>
