<svg width="24" height="24" viewBox="0 0 24 24" fill="none" xmlns="http://www.w3.org/2000/svg">
<path fill-rule="evenodd" clip-rule="evenodd" d="M3.25 3.75C3.25 3.33579 3.58579 3 4 3C4.41421 3 4.75 3.33579 4.75 3.75V6.09451C6.04392 6.42755 7 7.60212 7 9C7 10.3979 6.04392 11.5725 4.75 11.9055V20.25C4.75 20.6642 4.41421 21 4 21C3.58579 21 3.25 20.6642 3.25 20.25V11.9055C1.95608 11.5725 1 10.3979 1 9C1 7.60212 1.95608 6.42755 3.25 6.09451V3.75ZM3.25 7.70067C2.80165 7.96003 2.5 8.44479 2.5 9C2.5 9.55521 2.80165 10.04 3.25 10.2993C3.47063 10.427 3.72678 10.5 4 10.5C4.27322 10.5 4.52937 10.427 4.75 10.2993C5.19835 10.04 5.5 9.55521 5.5 9C5.5 8.44479 5.19835 7.96003 4.75 7.70067C4.52937 7.57305 4.27322 7.5 4 7.5C3.72678 7.5 3.47063 7.57305 3.25 7.70067ZM19.25 3.75C19.25 3.33579 19.5858 3 20 3C20.4142 3 20.75 3.33579 20.75 3.75V6.09451C22.0439 6.42755 23 7.60212 23 9C23 10.3979 22.0439 11.5725 20.75 11.9055V20.25C20.75 20.6642 20.4142 21 20 21C19.5858 21 19.25 20.6642 19.25 20.25V11.9055C17.9561 11.5725 17 10.3979 17 9C17 7.60212 17.9561 6.42755 19.25 6.09451V3.75ZM19.25 7.70067C18.8016 7.96003 18.5 8.44479 18.5 9C18.5 9.55521 18.8016 10.04 19.25 10.2993C19.4706 10.427 19.7268 10.5 20 10.5C20.2732 10.5 20.5294 10.427 20.75 10.2993C21.1984 10.04 21.5 9.55521 21.5 9C21.5 8.44479 21.1984 7.96003 20.75 7.70067C20.5294 7.57305 20.2732 7.5 20 7.5C19.7268 7.5 19.4706 7.57305 19.25 7.70067ZM12 21C11.5858 21 11.25 20.6642 11.25 20.25V17.9055C9.95608 17.5725 9 16.3979 9 15C9 13.6021 9.95608 12.4275 11.25 12.0945V3.75C11.25 3.33579 11.5858 3 12 3C12.4142 3 12.75 3.33579 12.75 3.75V12.0945C14.0439 12.4275 15 13.6021 15 15C15 16.3979 14.0439 17.5725 12.75 17.9055V20.25C12.75 20.6642 12.4142 21 12 21ZM10.5 15C10.5 15.5552 10.8016 16.04 11.25 16.2993C11.4706 16.427 11.7268 16.5 12 16.5C12.2732 16.5 12.5294 16.427 12.75 16.2993C13.1984 16.04 13.5 15.5552 13.5 15C13.5 14.4448 13.1984 13.96 12.75 13.7007C12.5294 13.573 12.2732 13.5 12 13.5C11.7268 13.5 11.4706 13.573 11.25 13.7007C10.8016 13.96 10.5 14.4448 10.5 15Z" fill="#777777"/>
</svg>
