<svg width="20" height="20" viewBox="0 0 20 20" fill="none" xmlns="http://www.w3.org/2000/svg">
<path fill-rule="evenodd" clip-rule="evenodd" d="M5 0H2H0V2V5C0 5.55228 0.447715 6 1 6C1.55228 6 2 5.55228 2 5L2 2H5C5.55228 2 6 1.55228 6 1C6 0.447715 5.55228 0 5 0Z" fill="#03A868"/>
<path fill-rule="evenodd" clip-rule="evenodd" d="M20 5L20 2L20 0L18 2.38498e-08L15 5.96244e-08C14.4477 6.62103e-08 14 0.447715 14 1C14 1.55228 14.4477 2 15 2L18 2L18 5C18 5.55228 18.4477 6 19 6C19.5523 6 20 5.55228 20 5Z" fill="#03A868"/>
<path fill-rule="evenodd" clip-rule="evenodd" d="M5 20H2H0V18V15C0 14.4477 0.447715 14 1 14C1.55228 14 2 14.4477 2 15L2 18H5C5.55228 18 6 18.4477 6 19C6 19.5523 5.55228 20 5 20Z" fill="#03A868"/>
<path fill-rule="evenodd" clip-rule="evenodd" d="M20 15L20 18L20 20L18 20L15 20C14.4477 20 14 19.5523 14 19C14 18.4477 14.4477 18 15 18L18 18L18 15C18 14.4477 18.4477 14 19 14C19.5523 14 20 14.4477 20 15Z" fill="#03A868"/>
</svg>
