<svg width="30" height="30" viewBox="0 0 30 30" fill="none" xmlns="http://www.w3.org/2000/svg">
<path fill-rule="evenodd" clip-rule="evenodd" d="M0.000151157 0H0V2H0.00015107L0.000150851 7C0.000150827 7.55228 0.447866 8 1.00015 8C1.55244 8 2.00015 7.55228 2.00015 7L2.00015 2H7C7.55228 2 8 1.55228 8 1C8 0.447715 7.55228 0 7 0H2.00015H0.000151157Z" fill="#03A868"/>
<path fill-rule="evenodd" clip-rule="evenodd" d="M30 0.000151157L30 0L28 -8.74228e-08L28 0.000150983L23 0.000150545C22.4477 0.000150497 22 0.447866 22 1.00015C22 1.55244 22.4477 2.00015 23 2.00015L28 2.00015L28 7C28 7.55228 28.4477 8 29 8C29.5523 8 30 7.55228 30 7L30 2.00015L30 0.000151157Z" fill="#03A868"/>
<path fill-rule="evenodd" clip-rule="evenodd" d="M0.000151157 30H0V28H0.00015107L0.000150851 23C0.000150827 22.4477 0.447866 22 1.00015 22C1.55244 22 2.00015 22.4477 2.00015 23L2.00015 28H7C7.55228 28 8 28.4477 8 29C8 29.5523 7.55228 30 7 30H2.00015H0.000151157Z" fill="#03A868"/>
<path fill-rule="evenodd" clip-rule="evenodd" d="M30 29.9998L30 30L28 30L28 29.9998L23 29.9998C22.4477 29.9998 22 29.5521 22 28.9998C22 28.4476 22.4477 27.9998 23 27.9998L28 27.9998L28 23C28 22.4477 28.4477 22 29 22C29.5523 22 30 22.4477 30 23L30 27.9998L30 29.9998Z" fill="#03A868"/>
</svg>
