<svg width="20" height="20" viewBox="0 0 20 20" fill="none" xmlns="http://www.w3.org/2000/svg">
<path fill-rule="evenodd" clip-rule="evenodd" d="M9.99789 6.33284C12.0261 6.33284 13.6672 7.97391 13.6672 10.0021C13.6672 12.0303 12.0261 13.6714 9.99789 13.6714C7.97391 13.6714 6.32865 12.0303 6.32865 10.0021C6.32865 7.97812 7.9697 6.33284 9.99789 6.33284ZM8.99642 19.0027V17.6015C7.27961 17.3785 5.73953 16.5832 4.57395 15.4218C3.41258 14.2521 2.61729 12.7162 2.39428 10.9994H0.997262C0.446032 10.9994 0 10.5491 0 10.0021V9.9979C0 9.44666 0.45024 9.00063 0.997262 9.00063H2.39428C2.61729 7.28382 3.41258 5.74374 4.57395 4.57816C5.73953 3.41258 7.27961 2.6215 8.99642 2.39848V0.997265C8.99642 0.446034 9.44666 0 9.99789 0H10.0021C10.5533 0 10.9994 0.450242 10.9994 0.997265V2.39848C12.7162 2.6215 14.252 3.41679 15.4176 4.57816C16.5874 5.74374 17.3785 7.28382 17.6015 9.00063H19.0027C19.554 9.00063 20 9.45087 20 9.9979V10.0021C20 10.5533 19.5498 10.9994 19.0027 10.9994H17.6015C17.3785 12.7162 16.5832 14.2521 15.4218 15.4176C14.2521 16.5832 12.7162 17.3785 10.9994 17.6015V19.0027C10.9994 19.554 10.5491 20 10.0021 20H9.99789C9.44666 20 8.99642 19.5498 8.99642 19.0027ZM14.0038 5.992C12.9813 4.96949 11.559 4.3341 9.99368 4.3341C8.42836 4.3341 7.01032 4.96949 5.98781 5.99621C4.96109 7.02293 4.3257 8.44098 4.3257 10.0021C4.3257 11.5674 4.96109 12.9897 5.9836 14.0122C7.01032 15.0347 8.42836 15.6701 9.99368 15.6701C11.559 15.6701 12.9813 15.0347 14.0038 14.0122C15.0263 12.9897 15.6617 11.5674 15.6617 10.0021C15.6617 8.43678 15.0263 7.01872 13.9996 5.992H14.0038Z" fill="#03A96A"/>
</svg>
