<svg width="40" height="40" viewBox="0 0 40 40" fill="none" xmlns="http://www.w3.org/2000/svg">
<path fill-rule="evenodd" clip-rule="evenodd" d="M32.9223 17.4666C32.9556 17.2777 32.9778 17.0777 32.9889 16.8777C33.0112 16.6777 33.0223 16.4777 33.0223 16.2777C33.0223 15.5888 32.9223 14.911 32.7445 14.2777C32.5667 13.6221 32.3 12.9888 31.9556 12.3999C31.6112 11.8221 31.1889 11.2888 30.7 10.811C30.2223 10.3443 29.6667 9.94434 29.0667 9.611C28.3778 9.22211 27.6223 8.96656 26.8556 8.82211C26.0667 8.67767 25.2445 8.65545 24.4445 8.76656C23.6445 8.86656 22.8556 9.08878 22.1223 9.42211C21.4112 9.75545 20.7445 10.1888 20.1778 10.7332L20.1223 10.7777L19.9778 10.911L19.8334 10.7777L19.7889 10.7332C19.2112 10.1888 18.5556 9.75545 17.8334 9.42211C17.1 9.08878 16.3112 8.86656 15.5112 8.76656C14.7112 8.65545 13.8889 8.67767 13.1 8.82211C12.3334 8.96656 11.5778 9.22211 10.8889 9.611C10.2889 9.94434 9.74449 10.3443 9.2556 10.811C8.76672 11.2888 8.34449 11.8221 8.00005 12.3999C7.6556 12.9888 7.38894 13.611 7.21116 14.2666C7.03338 14.911 6.93338 15.5888 6.93338 16.2777C6.93338 16.4777 6.94449 16.6777 6.9556 16.8666C6.97783 17.0666 7.00005 17.2666 7.03338 17.4443C7.0556 17.6443 7.10005 17.8332 7.14449 18.011C7.18894 18.1999 7.24449 18.3777 7.30005 18.5554V18.5777C7.32227 18.6666 7.3556 18.7666 7.37783 18.8666C7.41116 18.9666 7.44449 19.0777 7.47783 19.1666C7.51116 19.2666 7.54449 19.3777 7.58894 19.4777C7.62227 19.5777 7.66672 19.6888 7.71116 19.7888L7.7556 19.8888L7.88894 20.1777H7.56672H7.4556H4.88894C4.81116 20.1777 4.74449 20.1999 4.67783 20.2221C4.60005 20.2554 4.53338 20.2999 4.47783 20.3554C4.43338 20.3999 4.38894 20.4666 4.3556 20.5332C4.32227 20.5999 4.31116 20.6777 4.30005 20.7554V20.7666V20.7888C4.31116 20.8666 4.32227 20.9443 4.3556 21.011C4.38894 21.0777 4.43338 21.1443 4.48894 21.1999C4.53338 21.2554 4.60005 21.2999 4.66672 21.3221C4.73338 21.3554 4.81116 21.3666 4.88894 21.3666H15.0778C15.1334 21.3666 15.1889 21.3554 15.2445 21.3443C15.3 21.3221 15.3556 21.2999 15.4 21.2777C15.4445 21.2443 15.4889 21.1999 15.5223 21.1554C15.5667 21.111 15.6 21.0554 15.6223 20.9999L16.5445 18.8666L16.6334 18.6777L16.8778 18.0999L17.0334 18.711L17.0778 18.911L18.2556 23.8777C18.2667 23.9332 18.2889 23.9888 18.3223 24.0332C18.3556 24.0888 18.3889 24.1332 18.4334 24.1777C18.4667 24.211 18.5223 24.2443 18.5667 24.2666C18.6223 24.2888 18.6778 24.311 18.7334 24.3221H18.7445H18.7556H18.7778H18.8334C18.8889 24.3221 18.9334 24.311 18.9778 24.2999C19.0334 24.2888 19.0778 24.2777 19.1223 24.2443C19.1667 24.2221 19.2 24.1888 19.2334 24.1554C19.2778 24.1221 19.3112 24.0888 19.3334 24.0443L21.8334 19.9221L21.8556 19.8777L21.9223 19.7777H22.0334H22.0778H24.7556C24.8334 19.7777 24.9112 19.7666 24.9778 19.7332C25.0445 19.711 25.1112 19.6666 25.1667 19.611C25.2223 19.5554 25.2667 19.4888 25.3001 19.4221C25.3223 19.3443 25.3445 19.2777 25.3445 19.1999C25.3445 19.111 25.3223 19.0332 25.3001 18.9666C25.2667 18.8888 25.2223 18.8221 25.1667 18.7666C25.1112 18.711 25.0445 18.6666 24.9778 18.6443C24.9112 18.611 24.8334 18.5999 24.7556 18.5999H21.5889C21.5445 18.5999 21.4889 18.5999 21.4445 18.611C21.3889 18.6332 21.3445 18.6443 21.3001 18.6777C21.2556 18.6999 21.2223 18.7332 21.1778 18.7666C21.1445 18.7999 21.1112 18.8443 21.0778 18.8888L19.4223 21.611L19.3334 21.7554L19.0667 22.1999L18.9445 21.6999L18.9112 21.5332L17.6223 16.0888C17.6112 16.0221 17.5778 15.9666 17.5556 15.9221C17.5223 15.8666 17.4778 15.8221 17.4334 15.7777C17.3889 15.7443 17.3334 15.711 17.2778 15.6888C17.2223 15.6666 17.1556 15.6443 17.1 15.6443H17.0889C17.0334 15.6332 16.9778 15.6332 16.9112 15.6443C16.8556 15.6666 16.8 15.6888 16.7445 15.711C16.6889 15.7443 16.6445 15.7888 16.6 15.8332C16.5556 15.8777 16.5223 15.9332 16.5 15.9888L14.7556 20.011L14.7334 20.0554L14.6778 20.1777H14.5445H14.5H9.40005H9.3556H9.23338L9.16672 20.0666L9.1556 20.0332C9.07783 19.8888 9.00005 19.7443 8.92227 19.5888C8.84449 19.4332 8.77783 19.2777 8.72227 19.1332C8.66672 18.9888 8.61116 18.8443 8.5556 18.6888C8.51116 18.5443 8.46672 18.3999 8.43338 18.2554C8.38894 18.0999 8.34449 17.9332 8.30005 17.7777C8.26672 17.611 8.23338 17.4443 8.20005 17.2777C8.17783 17.111 8.1556 16.9443 8.14449 16.7777C8.13338 16.611 8.12227 16.4443 8.12227 16.2777C8.12227 15.6999 8.20005 15.1332 8.3556 14.5888C8.50005 14.0332 8.72227 13.4999 9.01116 13.011C9.31116 12.5221 9.66672 12.0666 10.0778 11.6666C10.4778 11.2666 10.9445 10.9221 11.4556 10.6443C12.1 10.2888 12.8 10.0554 13.5223 9.94434C14.2667 9.83323 15.0223 9.85545 15.7556 9.99989C16.4889 10.1332 17.2 10.3999 17.8445 10.7666C18.4778 11.1332 19.0445 11.5999 19.5112 12.1666C19.5223 12.1777 19.5334 12.1888 19.5445 12.1999C19.5556 12.211 19.5667 12.2221 19.5778 12.2332C19.6334 12.2777 19.6889 12.311 19.7556 12.3332C19.8334 12.3554 19.9 12.3666 19.9778 12.3666C20.0556 12.3666 20.1223 12.3554 20.1889 12.3332C20.2556 12.311 20.3223 12.2777 20.3667 12.2332C20.3778 12.2221 20.3889 12.211 20.4001 12.1999C20.4112 12.1888 20.4223 12.1777 20.4334 12.1777C20.9 11.5999 21.4778 11.1332 22.1112 10.7666C22.7556 10.3999 23.4667 10.1332 24.2112 9.98878C24.9445 9.85545 25.7001 9.83323 26.4334 9.95545C27.1445 10.0554 27.8445 10.2888 28.4889 10.6443C29 10.9332 29.4667 11.2666 29.8667 11.6666C30.2778 12.0666 30.6445 12.5221 30.9334 13.011C31.2223 13.4999 31.4445 14.0332 31.6 14.5888C31.7445 15.1443 31.8223 15.711 31.8223 16.2888C31.8223 16.4554 31.8223 16.6221 31.8001 16.7888C31.7889 16.9554 31.7667 17.1221 31.7445 17.2999C31.7112 17.4666 31.6778 17.6443 31.6334 17.8221C31.5889 17.9888 31.5445 18.1666 31.4778 18.3443C31.3112 19.1221 30.9112 19.9332 30.3556 20.7666C29.7334 21.711 28.9112 22.6666 27.9889 23.5999C26.8889 24.7221 25.6445 25.811 24.4223 26.7888C22.8112 28.0777 21.2445 29.1888 20.1334 29.911L20.1 29.9332L19.9778 30.011L19.8667 29.9332L19.8223 29.911C19.5889 29.7554 19.2667 29.5332 18.8667 29.2554C18.4889 28.9888 18.0334 28.6777 17.5334 28.311C16.9889 27.911 16.4 27.4666 15.8112 26.9999C15.2889 26.5999 14.7556 26.1554 14.2334 25.711C14.1778 25.6666 14.1112 25.6221 14.0334 25.5999C13.9556 25.5777 13.8778 25.5777 13.8 25.5777C13.7223 25.5888 13.6445 25.611 13.5778 25.6443C13.5112 25.6777 13.4445 25.7221 13.3889 25.7888C13.3445 25.8443 13.3112 25.911 13.2889 25.9777C13.2667 26.0554 13.2556 26.1332 13.2667 26.211C13.2667 26.2888 13.2889 26.3666 13.3223 26.4332C13.3556 26.4999 13.4112 26.5666 13.4667 26.611C14.9556 27.8888 16.4223 28.9888 17.5556 29.7999C18.6889 30.5888 19.5 31.111 19.6334 31.1999L19.6556 31.211C19.6778 31.2221 19.7001 31.2332 19.7334 31.2554C19.7556 31.2666 19.7778 31.2666 19.8 31.2777C19.8334 31.2888 19.8556 31.2888 19.8889 31.2999C19.9112 31.2999 19.9445 31.2999 19.9778 31.2999C20.0112 31.2999 20.0334 31.2999 20.0667 31.2999C20.0889 31.2888 20.1112 31.2888 20.1445 31.2777C20.1667 31.2666 20.1889 31.2666 20.2112 31.2554C20.2445 31.2443 20.2667 31.2221 20.2889 31.211C20.4 31.1332 21.1556 30.6666 22.2445 29.8999C23.3334 29.1332 24.7556 28.0777 26.2 26.8666C27.6334 25.6666 29.0889 24.2888 30.2667 22.8666C31.4334 21.4666 32.3223 20.0221 32.6223 18.6666L32.6334 18.6554V18.6443V18.6332C32.7001 18.4443 32.7556 18.2554 32.8001 18.0554C32.8445 17.8666 32.8889 17.6666 32.9223 17.4666Z" fill="#03A869"/>
</svg>
