<svg width="25" height="24" viewBox="0 0 25 24" fill="none" xmlns="http://www.w3.org/2000/svg">
<mask id="path-1-outside-1" maskUnits="userSpaceOnUse" x="3.33789" y="5.9624" width="19" height="12" fill="black">
<rect fill="white" x="3.33789" y="5.9624" width="19" height="12"/>
<path fill-rule="evenodd" clip-rule="evenodd" d="M21.3443 11.3304C21.3011 11.28 21.2555 11.2248 21.2051 11.1696C21.1595 11.1192 21.1115 11.0664 21.0611 11.0136C21.0155 10.9656 20.9699 10.9176 20.9243 10.872C20.8739 10.8216 20.8235 10.7688 20.7731 10.7184C20.4947 10.4472 20.2139 10.1856 19.9259 9.936C19.6403 9.6864 19.3475 9.4488 19.0451 9.2256C18.7475 9.0024 18.4427 8.7912 18.1283 8.592C17.8163 8.3952 17.4971 8.2104 17.1683 8.0424C16.9379 7.9224 16.7051 7.812 16.4771 7.7136C16.2467 7.6128 16.0187 7.524 15.7907 7.4424C15.5627 7.3632 15.3371 7.2936 15.1115 7.2336C14.8835 7.1736 14.6579 7.1232 14.4347 7.0824C14.3051 7.0608 14.1803 7.0416 14.0603 7.0248C13.9331 7.0104 13.8083 6.996 13.6835 6.9888C13.5611 6.9792 13.4435 6.972 13.3307 6.9672C13.2203 6.9624 13.1099 6.9624 13.0043 6.9624H12.9851H12.9827H12.9611C12.8507 6.9624 12.7379 6.9648 12.6203 6.9672C12.5051 6.972 12.3851 6.9768 12.2603 6.9864C12.1331 6.996 12.0059 7.008 11.8787 7.0248C11.7563 7.0416 11.6291 7.0608 11.5019 7.0824C11.2787 7.1256 11.0507 7.176 10.8227 7.236C10.5947 7.2984 10.3667 7.368 10.1411 7.4472C9.91309 7.5264 9.68509 7.6176 9.45469 7.716C9.22669 7.8144 8.99629 7.9224 8.76589 8.0424C8.45149 8.2056 8.13949 8.3832 7.83229 8.5752C7.52269 8.7696 7.21789 8.9808 6.91549 9.2064C6.61549 9.4296 6.32269 9.6672 6.03229 9.9168C5.73949 10.1688 5.44909 10.4376 5.16349 10.7184C5.11069 10.7736 5.05789 10.8264 5.00509 10.8768C4.95469 10.9296 4.90669 10.98 4.85869 11.0328C4.80829 11.0832 4.76269 11.1336 4.71949 11.1816C4.67389 11.232 4.63069 11.2824 4.58989 11.3304C4.55149 11.3784 4.51549 11.4264 4.48429 11.4792C4.45309 11.5296 4.42669 11.5848 4.40509 11.6376C4.38349 11.6928 4.36909 11.748 4.35709 11.8032C4.34509 11.8584 4.33789 11.9136 4.33789 11.9664V12.0144C4.33789 12.0696 4.34509 12.1248 4.35709 12.18C4.36909 12.2352 4.38589 12.2904 4.40509 12.3456C4.42669 12.3984 4.45309 12.4512 4.48429 12.504C4.51549 12.5544 4.55149 12.6048 4.58989 12.6528C4.70509 12.7872 4.82989 12.9264 4.96429 13.0656C5.09869 13.2072 5.24269 13.3488 5.39629 13.4904C5.54749 13.6344 5.71309 13.7808 5.88829 13.9296C6.06109 14.0784 6.24589 14.232 6.44269 14.388C6.85549 14.7168 7.26589 15.0168 7.67389 15.2832C8.07949 15.552 8.48509 15.7896 8.88829 15.996C9.28909 16.2024 9.68749 16.3776 10.0859 16.524C10.4819 16.6704 10.8755 16.7856 11.2691 16.872C11.4059 16.9008 11.5475 16.9272 11.6867 16.9464C11.8283 16.968 11.9699 16.9872 12.1091 16.9992C12.2483 17.0112 12.3899 17.0232 12.5339 17.028C12.6803 17.0352 12.8291 17.0376 12.9827 17.0376C13.1315 17.0376 13.2779 17.0352 13.4171 17.028C13.5587 17.0232 13.6979 17.0112 13.8347 16.9992C13.9739 16.9872 14.1155 16.968 14.2571 16.9464C14.3963 16.9248 14.5331 16.9008 14.6675 16.872C15.0659 16.7856 15.4643 16.6704 15.8627 16.524C16.2635 16.3776 16.6643 16.2024 17.0675 15.996C17.4707 15.7896 17.8787 15.552 18.2867 15.2832C18.6923 15.0168 19.1027 14.7168 19.5131 14.388C19.7075 14.2344 19.8899 14.0808 20.0603 13.932C20.2379 13.7808 20.4011 13.632 20.5523 13.488C20.7083 13.3416 20.8499 13.1976 20.9795 13.0608C21.1163 12.9168 21.2387 12.78 21.3443 12.6528C21.4307 12.5496 21.4955 12.4416 21.5387 12.3288C21.5819 12.2184 21.6035 12.1008 21.6035 11.988C21.6035 11.8728 21.5819 11.76 21.5387 11.6472C21.4955 11.5392 21.4307 11.4312 21.3443 11.3304ZM20.8043 12.1992C20.6987 12.3312 20.5811 12.4632 20.4539 12.5952C20.3291 12.7296 20.1923 12.8616 20.0483 12.9984C19.9043 13.1328 19.7483 13.272 19.5827 13.4136C19.4195 13.5552 19.2443 13.6992 19.0643 13.8432C18.6827 14.1456 18.3035 14.424 17.9243 14.676C17.5451 14.9256 17.1659 15.1512 16.7891 15.3456C16.4075 15.5424 16.0259 15.7128 15.6467 15.8496C15.2699 15.9888 14.8955 16.0968 14.5211 16.1736C14.3819 16.2024 14.2451 16.2264 14.1131 16.248C13.9811 16.2672 13.8491 16.284 13.7195 16.296C13.5875 16.308 13.4603 16.3176 13.3403 16.3224C13.2155 16.3296 13.0955 16.332 12.9827 16.332H12.9539C12.8387 16.332 12.7187 16.3296 12.5939 16.3224C12.4691 16.3176 12.3443 16.308 12.2147 16.2936C12.0851 16.2816 11.9555 16.2648 11.8235 16.2456C11.6963 16.2264 11.5643 16.2024 11.4347 16.1736C11.0651 16.0944 10.6907 15.9864 10.3139 15.8496C9.93469 15.7128 9.55549 15.5448 9.17389 15.3504C8.79229 15.156 8.41069 14.9328 8.02669 14.6808C7.64509 14.4312 7.25869 14.1504 6.87229 13.8432C6.68989 13.6992 6.51709 13.5552 6.35389 13.4136C6.19069 13.2696 6.03709 13.1304 5.89309 12.9936C5.75149 12.8568 5.61709 12.7224 5.49229 12.5904C5.37229 12.4584 5.25709 12.3312 5.15389 12.2016L5.14429 12.1944H5.14189L5.13469 12.1872L5.13229 12.1848C5.10829 12.1608 5.08909 12.132 5.07469 12.1032C5.06269 12.0744 5.05309 12.0408 5.05309 12.0096C5.05069 11.976 5.05549 11.9448 5.06509 11.916C5.07469 11.8872 5.09149 11.8584 5.11069 11.8296L5.11789 11.8224V11.82L5.14189 11.7936C5.15629 11.7744 5.17309 11.7504 5.19229 11.7288C5.20909 11.7048 5.22829 11.6832 5.24749 11.6616C5.26669 11.6376 5.29069 11.6136 5.31469 11.5848C5.33869 11.5584 5.36749 11.5272 5.39869 11.496L5.55469 11.3328L5.60989 11.2728C5.62429 11.256 5.63869 11.2416 5.64829 11.2272L5.65309 11.2224L5.65549 11.22L5.65789 11.2152L5.66269 11.2128C5.93869 10.9416 6.21469 10.6872 6.49309 10.4496C6.77629 10.2072 7.06189 9.9816 7.34509 9.7728C7.63309 9.5616 7.92349 9.3648 8.21389 9.1872C8.50669 9.0072 8.79949 8.8416 9.09469 8.6928C9.32749 8.5776 9.55309 8.472 9.77389 8.376C9.99469 8.28 10.2107 8.1912 10.4219 8.1168C10.6355 8.04 10.8419 7.9728 11.0435 7.92C11.2451 7.8648 11.4419 7.8192 11.6315 7.788C11.7443 7.7688 11.8595 7.752 11.9771 7.7352C12.0899 7.7208 12.2003 7.7088 12.3107 7.6992C12.4211 7.6896 12.5339 7.6824 12.6491 7.6776C12.7643 7.6728 12.8747 7.6704 12.9827 7.6704C13.0883 7.6704 13.1987 7.6728 13.3115 7.6776C13.4243 7.6824 13.5371 7.6896 13.6475 7.6992C13.7555 7.7088 13.8683 7.7208 13.9835 7.7352C14.0987 7.7496 14.2115 7.7688 14.3243 7.788C14.5163 7.8216 14.7131 7.8648 14.9171 7.92C15.1211 7.9776 15.3299 8.0424 15.5435 8.1192C15.7547 8.196 15.9707 8.2824 16.1915 8.3784C16.4099 8.4744 16.6355 8.58 16.8611 8.6928C17.1587 8.844 17.4515 9.0072 17.7443 9.1872C18.0323 9.3672 18.3203 9.5592 18.6011 9.768C18.8867 9.9768 19.1675 10.2024 19.4483 10.4448C19.7267 10.6848 20.0027 10.9416 20.2763 11.2128C20.3363 11.2728 20.3915 11.3304 20.4443 11.3856C20.5019 11.4432 20.5523 11.4984 20.5979 11.5464C20.6411 11.592 20.6819 11.6376 20.7179 11.6784C20.7539 11.7192 20.7851 11.7576 20.8139 11.7936C20.8403 11.8248 20.8595 11.8584 20.8715 11.8896C20.8859 11.9256 20.8907 11.9592 20.8907 11.9952C20.8907 12.0336 20.8835 12.0696 20.8691 12.1056C20.8547 12.1392 20.8331 12.1704 20.8043 12.1992Z"/>
</mask>
<path fill-rule="evenodd" clip-rule="evenodd" d="M21.3443 11.3304C21.3011 11.28 21.2555 11.2248 21.2051 11.1696C21.1595 11.1192 21.1115 11.0664 21.0611 11.0136C21.0155 10.9656 20.9699 10.9176 20.9243 10.872C20.8739 10.8216 20.8235 10.7688 20.7731 10.7184C20.4947 10.4472 20.2139 10.1856 19.9259 9.936C19.6403 9.6864 19.3475 9.4488 19.0451 9.2256C18.7475 9.0024 18.4427 8.7912 18.1283 8.592C17.8163 8.3952 17.4971 8.2104 17.1683 8.0424C16.9379 7.9224 16.7051 7.812 16.4771 7.7136C16.2467 7.6128 16.0187 7.524 15.7907 7.4424C15.5627 7.3632 15.3371 7.2936 15.1115 7.2336C14.8835 7.1736 14.6579 7.1232 14.4347 7.0824C14.3051 7.0608 14.1803 7.0416 14.0603 7.0248C13.9331 7.0104 13.8083 6.996 13.6835 6.9888C13.5611 6.9792 13.4435 6.972 13.3307 6.9672C13.2203 6.9624 13.1099 6.9624 13.0043 6.9624H12.9851H12.9827H12.9611C12.8507 6.9624 12.7379 6.9648 12.6203 6.9672C12.5051 6.972 12.3851 6.9768 12.2603 6.9864C12.1331 6.996 12.0059 7.008 11.8787 7.0248C11.7563 7.0416 11.6291 7.0608 11.5019 7.0824C11.2787 7.1256 11.0507 7.176 10.8227 7.236C10.5947 7.2984 10.3667 7.368 10.1411 7.4472C9.91309 7.5264 9.68509 7.6176 9.45469 7.716C9.22669 7.8144 8.99629 7.9224 8.76589 8.0424C8.45149 8.2056 8.13949 8.3832 7.83229 8.5752C7.52269 8.7696 7.21789 8.9808 6.91549 9.2064C6.61549 9.4296 6.32269 9.6672 6.03229 9.9168C5.73949 10.1688 5.44909 10.4376 5.16349 10.7184C5.11069 10.7736 5.05789 10.8264 5.00509 10.8768C4.95469 10.9296 4.90669 10.98 4.85869 11.0328C4.80829 11.0832 4.76269 11.1336 4.71949 11.1816C4.67389 11.232 4.63069 11.2824 4.58989 11.3304C4.55149 11.3784 4.51549 11.4264 4.48429 11.4792C4.45309 11.5296 4.42669 11.5848 4.40509 11.6376C4.38349 11.6928 4.36909 11.748 4.35709 11.8032C4.34509 11.8584 4.33789 11.9136 4.33789 11.9664V12.0144C4.33789 12.0696 4.34509 12.1248 4.35709 12.18C4.36909 12.2352 4.38589 12.2904 4.40509 12.3456C4.42669 12.3984 4.45309 12.4512 4.48429 12.504C4.51549 12.5544 4.55149 12.6048 4.58989 12.6528C4.70509 12.7872 4.82989 12.9264 4.96429 13.0656C5.09869 13.2072 5.24269 13.3488 5.39629 13.4904C5.54749 13.6344 5.71309 13.7808 5.88829 13.9296C6.06109 14.0784 6.24589 14.232 6.44269 14.388C6.85549 14.7168 7.26589 15.0168 7.67389 15.2832C8.07949 15.552 8.48509 15.7896 8.88829 15.996C9.28909 16.2024 9.68749 16.3776 10.0859 16.524C10.4819 16.6704 10.8755 16.7856 11.2691 16.872C11.4059 16.9008 11.5475 16.9272 11.6867 16.9464C11.8283 16.968 11.9699 16.9872 12.1091 16.9992C12.2483 17.0112 12.3899 17.0232 12.5339 17.028C12.6803 17.0352 12.8291 17.0376 12.9827 17.0376C13.1315 17.0376 13.2779 17.0352 13.4171 17.028C13.5587 17.0232 13.6979 17.0112 13.8347 16.9992C13.9739 16.9872 14.1155 16.968 14.2571 16.9464C14.3963 16.9248 14.5331 16.9008 14.6675 16.872C15.0659 16.7856 15.4643 16.6704 15.8627 16.524C16.2635 16.3776 16.6643 16.2024 17.0675 15.996C17.4707 15.7896 17.8787 15.552 18.2867 15.2832C18.6923 15.0168 19.1027 14.7168 19.5131 14.388C19.7075 14.2344 19.8899 14.0808 20.0603 13.932C20.2379 13.7808 20.4011 13.632 20.5523 13.488C20.7083 13.3416 20.8499 13.1976 20.9795 13.0608C21.1163 12.9168 21.2387 12.78 21.3443 12.6528C21.4307 12.5496 21.4955 12.4416 21.5387 12.3288C21.5819 12.2184 21.6035 12.1008 21.6035 11.988C21.6035 11.8728 21.5819 11.76 21.5387 11.6472C21.4955 11.5392 21.4307 11.4312 21.3443 11.3304ZM20.8043 12.1992C20.6987 12.3312 20.5811 12.4632 20.4539 12.5952C20.3291 12.7296 20.1923 12.8616 20.0483 12.9984C19.9043 13.1328 19.7483 13.272 19.5827 13.4136C19.4195 13.5552 19.2443 13.6992 19.0643 13.8432C18.6827 14.1456 18.3035 14.424 17.9243 14.676C17.5451 14.9256 17.1659 15.1512 16.7891 15.3456C16.4075 15.5424 16.0259 15.7128 15.6467 15.8496C15.2699 15.9888 14.8955 16.0968 14.5211 16.1736C14.3819 16.2024 14.2451 16.2264 14.1131 16.248C13.9811 16.2672 13.8491 16.284 13.7195 16.296C13.5875 16.308 13.4603 16.3176 13.3403 16.3224C13.2155 16.3296 13.0955 16.332 12.9827 16.332H12.9539C12.8387 16.332 12.7187 16.3296 12.5939 16.3224C12.4691 16.3176 12.3443 16.308 12.2147 16.2936C12.0851 16.2816 11.9555 16.2648 11.8235 16.2456C11.6963 16.2264 11.5643 16.2024 11.4347 16.1736C11.0651 16.0944 10.6907 15.9864 10.3139 15.8496C9.93469 15.7128 9.55549 15.5448 9.17389 15.3504C8.79229 15.156 8.41069 14.9328 8.02669 14.6808C7.64509 14.4312 7.25869 14.1504 6.87229 13.8432C6.68989 13.6992 6.51709 13.5552 6.35389 13.4136C6.19069 13.2696 6.03709 13.1304 5.89309 12.9936C5.75149 12.8568 5.61709 12.7224 5.49229 12.5904C5.37229 12.4584 5.25709 12.3312 5.15389 12.2016L5.14429 12.1944H5.14189L5.13469 12.1872L5.13229 12.1848C5.10829 12.1608 5.08909 12.132 5.07469 12.1032C5.06269 12.0744 5.05309 12.0408 5.05309 12.0096C5.05069 11.976 5.05549 11.9448 5.06509 11.916C5.07469 11.8872 5.09149 11.8584 5.11069 11.8296L5.11789 11.8224V11.82L5.14189 11.7936C5.15629 11.7744 5.17309 11.7504 5.19229 11.7288C5.20909 11.7048 5.22829 11.6832 5.24749 11.6616C5.26669 11.6376 5.29069 11.6136 5.31469 11.5848C5.33869 11.5584 5.36749 11.5272 5.39869 11.496L5.55469 11.3328L5.60989 11.2728C5.62429 11.256 5.63869 11.2416 5.64829 11.2272L5.65309 11.2224L5.65549 11.22L5.65789 11.2152L5.66269 11.2128C5.93869 10.9416 6.21469 10.6872 6.49309 10.4496C6.77629 10.2072 7.06189 9.9816 7.34509 9.7728C7.63309 9.5616 7.92349 9.3648 8.21389 9.1872C8.50669 9.0072 8.79949 8.8416 9.09469 8.6928C9.32749 8.5776 9.55309 8.472 9.77389 8.376C9.99469 8.28 10.2107 8.1912 10.4219 8.1168C10.6355 8.04 10.8419 7.9728 11.0435 7.92C11.2451 7.8648 11.4419 7.8192 11.6315 7.788C11.7443 7.7688 11.8595 7.752 11.9771 7.7352C12.0899 7.7208 12.2003 7.7088 12.3107 7.6992C12.4211 7.6896 12.5339 7.6824 12.6491 7.6776C12.7643 7.6728 12.8747 7.6704 12.9827 7.6704C13.0883 7.6704 13.1987 7.6728 13.3115 7.6776C13.4243 7.6824 13.5371 7.6896 13.6475 7.6992C13.7555 7.7088 13.8683 7.7208 13.9835 7.7352C14.0987 7.7496 14.2115 7.7688 14.3243 7.788C14.5163 7.8216 14.7131 7.8648 14.9171 7.92C15.1211 7.9776 15.3299 8.0424 15.5435 8.1192C15.7547 8.196 15.9707 8.2824 16.1915 8.3784C16.4099 8.4744 16.6355 8.58 16.8611 8.6928C17.1587 8.844 17.4515 9.0072 17.7443 9.1872C18.0323 9.3672 18.3203 9.5592 18.6011 9.768C18.8867 9.9768 19.1675 10.2024 19.4483 10.4448C19.7267 10.6848 20.0027 10.9416 20.2763 11.2128C20.3363 11.2728 20.3915 11.3304 20.4443 11.3856C20.5019 11.4432 20.5523 11.4984 20.5979 11.5464C20.6411 11.592 20.6819 11.6376 20.7179 11.6784C20.7539 11.7192 20.7851 11.7576 20.8139 11.7936C20.8403 11.8248 20.8595 11.8584 20.8715 11.8896C20.8859 11.9256 20.8907 11.9592 20.8907 11.9952C20.8907 12.0336 20.8835 12.0696 20.8691 12.1056C20.8547 12.1392 20.8331 12.1704 20.8043 12.1992Z" fill="#03A868"/>
<path fill-rule="evenodd" clip-rule="evenodd" d="M21.3443 11.3304C21.3011 11.28 21.2555 11.2248 21.2051 11.1696C21.1595 11.1192 21.1115 11.0664 21.0611 11.0136C21.0155 10.9656 20.9699 10.9176 20.9243 10.872C20.8739 10.8216 20.8235 10.7688 20.7731 10.7184C20.4947 10.4472 20.2139 10.1856 19.9259 9.936C19.6403 9.6864 19.3475 9.4488 19.0451 9.2256C18.7475 9.0024 18.4427 8.7912 18.1283 8.592C17.8163 8.3952 17.4971 8.2104 17.1683 8.0424C16.9379 7.9224 16.7051 7.812 16.4771 7.7136C16.2467 7.6128 16.0187 7.524 15.7907 7.4424C15.5627 7.3632 15.3371 7.2936 15.1115 7.2336C14.8835 7.1736 14.6579 7.1232 14.4347 7.0824C14.3051 7.0608 14.1803 7.0416 14.0603 7.0248C13.9331 7.0104 13.8083 6.996 13.6835 6.9888C13.5611 6.9792 13.4435 6.972 13.3307 6.9672C13.2203 6.9624 13.1099 6.9624 13.0043 6.9624H12.9851H12.9827H12.9611C12.8507 6.9624 12.7379 6.9648 12.6203 6.9672C12.5051 6.972 12.3851 6.9768 12.2603 6.9864C12.1331 6.996 12.0059 7.008 11.8787 7.0248C11.7563 7.0416 11.6291 7.0608 11.5019 7.0824C11.2787 7.1256 11.0507 7.176 10.8227 7.236C10.5947 7.2984 10.3667 7.368 10.1411 7.4472C9.91309 7.5264 9.68509 7.6176 9.45469 7.716C9.22669 7.8144 8.99629 7.9224 8.76589 8.0424C8.45149 8.2056 8.13949 8.3832 7.83229 8.5752C7.52269 8.7696 7.21789 8.9808 6.91549 9.2064C6.61549 9.4296 6.32269 9.6672 6.03229 9.9168C5.73949 10.1688 5.44909 10.4376 5.16349 10.7184C5.11069 10.7736 5.05789 10.8264 5.00509 10.8768C4.95469 10.9296 4.90669 10.98 4.85869 11.0328C4.80829 11.0832 4.76269 11.1336 4.71949 11.1816C4.67389 11.232 4.63069 11.2824 4.58989 11.3304C4.55149 11.3784 4.51549 11.4264 4.48429 11.4792C4.45309 11.5296 4.42669 11.5848 4.40509 11.6376C4.38349 11.6928 4.36909 11.748 4.35709 11.8032C4.34509 11.8584 4.33789 11.9136 4.33789 11.9664V12.0144C4.33789 12.0696 4.34509 12.1248 4.35709 12.18C4.36909 12.2352 4.38589 12.2904 4.40509 12.3456C4.42669 12.3984 4.45309 12.4512 4.48429 12.504C4.51549 12.5544 4.55149 12.6048 4.58989 12.6528C4.70509 12.7872 4.82989 12.9264 4.96429 13.0656C5.09869 13.2072 5.24269 13.3488 5.39629 13.4904C5.54749 13.6344 5.71309 13.7808 5.88829 13.9296C6.06109 14.0784 6.24589 14.232 6.44269 14.388C6.85549 14.7168 7.26589 15.0168 7.67389 15.2832C8.07949 15.552 8.48509 15.7896 8.88829 15.996C9.28909 16.2024 9.68749 16.3776 10.0859 16.524C10.4819 16.6704 10.8755 16.7856 11.2691 16.872C11.4059 16.9008 11.5475 16.9272 11.6867 16.9464C11.8283 16.968 11.9699 16.9872 12.1091 16.9992C12.2483 17.0112 12.3899 17.0232 12.5339 17.028C12.6803 17.0352 12.8291 17.0376 12.9827 17.0376C13.1315 17.0376 13.2779 17.0352 13.4171 17.028C13.5587 17.0232 13.6979 17.0112 13.8347 16.9992C13.9739 16.9872 14.1155 16.968 14.2571 16.9464C14.3963 16.9248 14.5331 16.9008 14.6675 16.872C15.0659 16.7856 15.4643 16.6704 15.8627 16.524C16.2635 16.3776 16.6643 16.2024 17.0675 15.996C17.4707 15.7896 17.8787 15.552 18.2867 15.2832C18.6923 15.0168 19.1027 14.7168 19.5131 14.388C19.7075 14.2344 19.8899 14.0808 20.0603 13.932C20.2379 13.7808 20.4011 13.632 20.5523 13.488C20.7083 13.3416 20.8499 13.1976 20.9795 13.0608C21.1163 12.9168 21.2387 12.78 21.3443 12.6528C21.4307 12.5496 21.4955 12.4416 21.5387 12.3288C21.5819 12.2184 21.6035 12.1008 21.6035 11.988C21.6035 11.8728 21.5819 11.76 21.5387 11.6472C21.4955 11.5392 21.4307 11.4312 21.3443 11.3304ZM20.8043 12.1992C20.6987 12.3312 20.5811 12.4632 20.4539 12.5952C20.3291 12.7296 20.1923 12.8616 20.0483 12.9984C19.9043 13.1328 19.7483 13.272 19.5827 13.4136C19.4195 13.5552 19.2443 13.6992 19.0643 13.8432C18.6827 14.1456 18.3035 14.424 17.9243 14.676C17.5451 14.9256 17.1659 15.1512 16.7891 15.3456C16.4075 15.5424 16.0259 15.7128 15.6467 15.8496C15.2699 15.9888 14.8955 16.0968 14.5211 16.1736C14.3819 16.2024 14.2451 16.2264 14.1131 16.248C13.9811 16.2672 13.8491 16.284 13.7195 16.296C13.5875 16.308 13.4603 16.3176 13.3403 16.3224C13.2155 16.3296 13.0955 16.332 12.9827 16.332H12.9539C12.8387 16.332 12.7187 16.3296 12.5939 16.3224C12.4691 16.3176 12.3443 16.308 12.2147 16.2936C12.0851 16.2816 11.9555 16.2648 11.8235 16.2456C11.6963 16.2264 11.5643 16.2024 11.4347 16.1736C11.0651 16.0944 10.6907 15.9864 10.3139 15.8496C9.93469 15.7128 9.55549 15.5448 9.17389 15.3504C8.79229 15.156 8.41069 14.9328 8.02669 14.6808C7.64509 14.4312 7.25869 14.1504 6.87229 13.8432C6.68989 13.6992 6.51709 13.5552 6.35389 13.4136C6.19069 13.2696 6.03709 13.1304 5.89309 12.9936C5.75149 12.8568 5.61709 12.7224 5.49229 12.5904C5.37229 12.4584 5.25709 12.3312 5.15389 12.2016L5.14429 12.1944H5.14189L5.13469 12.1872L5.13229 12.1848C5.10829 12.1608 5.08909 12.132 5.07469 12.1032C5.06269 12.0744 5.05309 12.0408 5.05309 12.0096C5.05069 11.976 5.05549 11.9448 5.06509 11.916C5.07469 11.8872 5.09149 11.8584 5.11069 11.8296L5.11789 11.8224V11.82L5.14189 11.7936C5.15629 11.7744 5.17309 11.7504 5.19229 11.7288C5.20909 11.7048 5.22829 11.6832 5.24749 11.6616C5.26669 11.6376 5.29069 11.6136 5.31469 11.5848C5.33869 11.5584 5.36749 11.5272 5.39869 11.496L5.55469 11.3328L5.60989 11.2728C5.62429 11.256 5.63869 11.2416 5.64829 11.2272L5.65309 11.2224L5.65549 11.22L5.65789 11.2152L5.66269 11.2128C5.93869 10.9416 6.21469 10.6872 6.49309 10.4496C6.77629 10.2072 7.06189 9.9816 7.34509 9.7728C7.63309 9.5616 7.92349 9.3648 8.21389 9.1872C8.50669 9.0072 8.79949 8.8416 9.09469 8.6928C9.32749 8.5776 9.55309 8.472 9.77389 8.376C9.99469 8.28 10.2107 8.1912 10.4219 8.1168C10.6355 8.04 10.8419 7.9728 11.0435 7.92C11.2451 7.8648 11.4419 7.8192 11.6315 7.788C11.7443 7.7688 11.8595 7.752 11.9771 7.7352C12.0899 7.7208 12.2003 7.7088 12.3107 7.6992C12.4211 7.6896 12.5339 7.6824 12.6491 7.6776C12.7643 7.6728 12.8747 7.6704 12.9827 7.6704C13.0883 7.6704 13.1987 7.6728 13.3115 7.6776C13.4243 7.6824 13.5371 7.6896 13.6475 7.6992C13.7555 7.7088 13.8683 7.7208 13.9835 7.7352C14.0987 7.7496 14.2115 7.7688 14.3243 7.788C14.5163 7.8216 14.7131 7.8648 14.9171 7.92C15.1211 7.9776 15.3299 8.0424 15.5435 8.1192C15.7547 8.196 15.9707 8.2824 16.1915 8.3784C16.4099 8.4744 16.6355 8.58 16.8611 8.6928C17.1587 8.844 17.4515 9.0072 17.7443 9.1872C18.0323 9.3672 18.3203 9.5592 18.6011 9.768C18.8867 9.9768 19.1675 10.2024 19.4483 10.4448C19.7267 10.6848 20.0027 10.9416 20.2763 11.2128C20.3363 11.2728 20.3915 11.3304 20.4443 11.3856C20.5019 11.4432 20.5523 11.4984 20.5979 11.5464C20.6411 11.592 20.6819 11.6376 20.7179 11.6784C20.7539 11.7192 20.7851 11.7576 20.8139 11.7936C20.8403 11.8248 20.8595 11.8584 20.8715 11.8896C20.8859 11.9256 20.8907 11.9592 20.8907 11.9952C20.8907 12.0336 20.8835 12.0696 20.8691 12.1056C20.8547 12.1392 20.8331 12.1704 20.8043 12.1992Z" stroke="#03A868" mask="url(#path-1-outside-1)"/>
<path d="M12.9697 9C13.7976 9 14.5489 9.33432 15.0916 9.87709C15.6344 10.4199 15.9707 11.1711 15.9707 11.999C15.9707 12.8269 15.6344 13.5782 15.0916 14.1209C14.5489 14.6637 13.7976 15 12.9697 15C12.1418 15 11.3906 14.6637 10.8478 14.1209C10.305 13.5782 9.9707 12.8269 9.9707 11.999C9.9707 11.1711 10.305 10.4199 10.8478 9.87709C11.3906 9.33432 12.1418 9 12.9697 9ZM14.6806 10.2881C14.2441 9.85152 13.6384 9.58014 12.9697 9.58014C12.3011 9.58014 11.6974 9.85152 11.2588 10.2881C10.8222 10.7266 10.5508 11.3304 10.5508 11.999C10.5508 12.6676 10.8222 13.2734 11.2588 13.7099C11.6974 14.1485 12.3011 14.4179 12.9697 14.4179C13.6384 14.4179 14.2441 14.1485 14.6806 13.7099C15.1192 13.2734 15.3886 12.6676 15.3886 11.999C15.3886 11.3304 15.1192 10.7266 14.6806 10.2881Z" fill="#03A868" stroke="#03A868"/>
</svg>
