<svg width="40" height="40" viewBox="0 0 40 40" fill="none" xmlns="http://www.w3.org/2000/svg">
<path fill-rule="evenodd" clip-rule="evenodd" d="M30.5221 17.4113C30.3777 17.778 30.1888 18.1224 29.9666 18.4446C29.7444 18.778 29.4999 19.078 29.2221 19.3557C28.9444 19.6335 28.6333 19.878 28.311 20.0891C27.9888 20.3113 27.6333 20.4891 27.2666 20.6446C26.911 20.7891 26.5333 20.9002 26.1444 20.978C25.7666 21.0557 25.3777 21.0891 24.9777 21.0891C24.5777 21.0891 24.1888 21.0446 23.811 20.9668C23.4221 20.8891 23.0444 20.778 22.6888 20.6224C22.3221 20.478 21.9777 20.2891 21.6555 20.0668C21.3333 19.8446 21.0221 19.6002 20.7444 19.3224C20.4777 19.0446 20.2221 18.7335 20.011 18.4113C19.7888 18.078 19.611 17.7335 19.4555 17.3668C19.311 17.0113 19.1999 16.6335 19.1221 16.2446C19.0555 15.8668 19.011 15.478 19.011 15.078V15.0668C19.0221 14.6668 19.0555 14.278 19.1333 13.9002C19.211 13.5113 19.3333 13.1335 19.4777 12.778C19.6333 12.4224 19.8221 12.078 20.0333 11.7557C20.2555 11.4224 20.4999 11.1224 20.7888 10.8446C21.0666 10.5668 21.3666 10.3224 21.6999 10.1113C22.0221 9.88907 22.3666 9.71129 22.7333 9.55574C23.0888 9.41129 23.4666 9.30018 23.8555 9.2224C24.2333 9.15574 24.6221 9.11129 25.0221 9.11129H25.0333C25.4333 9.1224 25.8333 9.15574 26.1999 9.23351C26.5888 9.31129 26.9666 9.43351 27.3221 9.57796C27.6888 9.73351 28.0333 9.9224 28.3555 10.1335C28.6777 10.3557 28.9777 10.6002 29.2555 10.878C29.5333 11.1557 29.7777 11.4668 29.9888 11.7891C30.211 12.1224 30.3888 12.4668 30.5444 12.8335C30.6888 13.1891 30.7999 13.5668 30.8777 13.9557C30.9555 14.3335 30.9888 14.7224 30.9888 15.1224C30.9888 15.5224 30.9444 15.9224 30.8666 16.3002C30.7888 16.6891 30.6777 17.0557 30.5221 17.4113ZM26.4888 10.778C27.2333 10.778 27.8999 11.078 28.3888 11.5668H28.3999C28.8888 12.0557 29.1888 12.7335 29.1888 13.478C29.1888 14.2224 28.8888 14.9002 28.3999 15.3891C27.911 15.8668 27.2333 16.178 26.4888 16.178C25.7444 16.178 25.0666 15.8668 24.5777 15.3891V15.378C24.0888 14.8891 23.7888 14.2224 23.7888 13.478C23.7888 12.7335 24.0888 12.0557 24.5777 11.5668C25.0666 11.078 25.7444 10.778 26.4888 10.778ZM27.5555 12.4002C27.2888 12.1224 26.911 11.9557 26.4888 11.9557C26.0666 11.9557 25.6888 12.1224 25.411 12.4002C25.1444 12.678 24.9666 13.0557 24.9666 13.478C24.9666 13.9002 25.1444 14.278 25.411 14.5446V14.5557C25.6888 14.8224 26.0666 14.9891 26.4888 14.9891C26.911 14.9891 27.2888 14.8224 27.5555 14.5446C27.8333 14.278 27.9999 13.9002 27.9999 13.478C27.9999 13.0557 27.8333 12.678 27.5666 12.4002H27.5555ZM19.7221 22.7113H18.3777C18.3333 22.7113 18.2888 22.7113 18.2444 22.7224C18.1999 22.7224 18.1666 22.7335 18.1221 22.7557C18.0888 22.7668 18.0555 22.7891 18.0221 22.8002C17.9888 22.8224 17.9555 22.8557 17.9333 22.878C17.911 22.9002 17.8777 22.9335 17.8555 22.9668C17.8333 23.0002 17.8221 23.0335 17.811 23.0668C17.7888 23.1113 17.7777 23.1446 17.7666 23.1891C17.7666 23.2335 17.7555 23.2668 17.7555 23.3113V24.2002V24.3335V24.3557H17.7333H17.611H16.7221H16.6999H16.6888C16.6444 24.3557 16.611 24.3557 16.5666 24.3668C16.5333 24.378 16.4999 24.3891 16.4555 24.4002C16.4221 24.4113 16.3888 24.4335 16.3666 24.4557C16.3333 24.4668 16.2999 24.5002 16.2777 24.5224C16.2555 24.5446 16.2221 24.578 16.1999 24.6113C16.1777 24.6446 16.1666 24.678 16.1555 24.7113C16.1333 24.7446 16.1221 24.7891 16.1221 24.8335C16.111 24.8668 16.0999 24.9113 16.0999 24.9557V24.9891V25.8446V25.978V26.0002H16.0777H15.9555L15.0666 25.9891C15.011 25.9891 14.9777 26.0002 14.9333 26.0002C14.8888 26.0113 14.8555 26.0224 14.811 26.0335C14.7777 26.0557 14.7444 26.0668 14.711 26.0891C14.6777 26.1113 14.6444 26.1335 14.6221 26.1668C14.5999 26.1891 14.5666 26.2224 14.5444 26.2557C14.5221 26.2891 14.511 26.3224 14.4999 26.3557C14.4777 26.3891 14.4666 26.4335 14.4555 26.478C14.4555 26.5113 14.4444 26.5557 14.4444 26.6002V27.4891V27.6113V27.6446H14.4221L14.2999 27.6335H13.411C13.3666 27.6335 13.3221 27.6446 13.2777 27.6446C13.2333 27.6557 13.1999 27.6668 13.1555 27.678C13.1221 27.6891 13.0888 27.7113 13.0555 27.7335C13.0221 27.7557 12.9999 27.778 12.9666 27.8002C12.9444 27.8335 12.911 27.8668 12.8888 27.9002C12.8666 27.9224 12.8555 27.9668 12.8444 28.0002C12.8221 28.0335 12.811 28.078 12.7999 28.1224C12.7999 28.1557 12.7888 28.2002 12.7888 28.2446V29.5891V29.6335V29.6446L12.7777 29.6557L12.7444 29.6891L11.5444 30.878L11.4999 30.9224H11.4888H11.4333L9.21103 30.9113H9.0777H9.05547V30.8891V30.7668L9.06658 28.5335V28.4891V28.478L9.0777 28.4668L9.11103 28.4335L18.6999 18.9557L18.8221 18.8446L18.8333 18.8224L18.8555 18.8446L18.9333 18.9891C18.9999 19.0891 19.0666 19.1891 19.1444 19.2891C19.211 19.4002 19.2888 19.5002 19.3666 19.5891C19.4444 19.6891 19.5221 19.7891 19.611 19.878C19.6999 19.978 19.7888 20.0668 19.8666 20.1557C19.9666 20.2557 20.0555 20.3446 20.1555 20.4335C20.2555 20.5224 20.3555 20.6002 20.4555 20.6891C20.5555 20.778 20.6666 20.8557 20.7777 20.9335C20.8888 21.0113 20.9999 21.0891 21.111 21.1668L21.2444 21.2557L21.2666 21.2668L21.2444 21.2891L21.1333 21.4002L19.8221 22.6668L19.7888 22.7113H19.7777H19.7666H19.7221ZM17.8221 15.778C17.8333 15.8891 17.8444 16.0113 17.8666 16.1224C17.8777 16.2446 17.8999 16.3557 17.9221 16.4668C17.9333 16.5557 17.9555 16.6557 17.9777 16.7446C17.9999 16.8335 18.0221 16.9335 18.0444 17.0224C18.0666 17.1002 18.0888 17.1891 18.1221 17.278C18.1444 17.3557 18.1777 17.4446 18.211 17.5335L18.2333 17.6113L18.2444 17.6224L18.2333 17.6335L18.1777 17.6891L8.03325 27.7557C8.01103 27.7668 7.99992 27.778 7.98881 27.8002C7.9777 27.8113 7.96658 27.8335 7.95547 27.8446C7.94436 27.8557 7.93325 27.878 7.92214 27.8891C7.91103 27.9113 7.89992 27.9224 7.89992 27.9446C7.88881 27.9557 7.8777 27.978 7.8777 28.0002C7.86659 28.0113 7.86659 28.0335 7.85547 28.0557C7.85547 28.0668 7.85547 28.0891 7.84436 28.1113C7.84436 28.1335 7.84436 28.1557 7.84436 28.178L7.83325 31.478C7.83325 31.5224 7.83325 31.5668 7.84436 31.6113C7.85547 31.6446 7.86659 31.6891 7.8777 31.7224C7.88881 31.7668 7.91103 31.8002 7.93325 31.8335C7.95547 31.8668 7.9777 31.8891 7.99992 31.9224C8.03325 31.9446 8.05547 31.978 8.08881 31.9891C8.12214 32.0113 8.15547 32.0335 8.19992 32.0446C8.23325 32.0668 8.2777 32.078 8.31103 32.078C8.35547 32.0891 8.39992 32.0891 8.44436 32.0891L11.7444 32.1113C11.7666 32.1113 11.7888 32.1113 11.811 32.1002C11.8221 32.1002 11.8444 32.1002 11.8666 32.1002C11.8888 32.0891 11.911 32.0891 11.9221 32.078C11.9444 32.078 11.9666 32.0668 11.9777 32.0668C11.9999 32.0557 12.011 32.0446 12.0333 32.0335C12.0444 32.0224 12.0666 32.0113 12.0777 32.0113C12.0888 32.0002 12.111 31.978 12.1221 31.9668C12.1444 31.9557 12.1555 31.9446 12.1666 31.9224L13.7888 30.3224L13.7999 30.3113L13.811 30.3002C13.8333 30.2891 13.8444 30.278 13.8555 30.2668C13.8666 30.2557 13.8777 30.2446 13.8888 30.2335C13.8999 30.2224 13.9221 30.2002 13.9221 30.1891C13.9333 30.178 13.9444 30.1557 13.9555 30.1446C13.9666 30.1224 13.9666 30.1113 13.9777 30.0891C13.9888 30.0668 13.9888 30.0557 13.9888 30.0335C13.9999 30.0113 13.9999 29.9891 13.9999 29.9668C14.011 29.9446 14.011 29.9224 14.011 29.9002V29.0113V28.878V28.8557H14.0333H14.1666L15.0555 28.8668C15.0999 28.8668 15.1333 28.8557 15.1777 28.8557C15.2221 28.8446 15.2555 28.8335 15.2999 28.8224C15.3333 28.8002 15.3666 28.7891 15.3999 28.7668C15.4333 28.7446 15.4666 28.7224 15.4888 28.6891C15.5221 28.6668 15.5444 28.6335 15.5666 28.6002C15.5888 28.5668 15.5999 28.5335 15.6221 28.5002C15.6333 28.4668 15.6444 28.4224 15.6555 28.378C15.6555 28.3446 15.6666 28.3002 15.6666 28.2557V27.3668V27.2446V27.2224H15.6888H15.8221H16.711C16.7555 27.2224 16.7888 27.2224 16.8333 27.2113C16.8777 27.2002 16.911 27.1891 16.9555 27.178C16.9888 27.1668 17.0221 27.1446 17.0555 27.1224C17.0888 27.1002 17.1221 27.078 17.1444 27.0557C17.1777 27.0224 17.1999 26.9891 17.2221 26.9668C17.2444 26.9335 17.2555 26.9002 17.2777 26.8557C17.2888 26.8224 17.2999 26.778 17.311 26.7446C17.311 26.7002 17.3221 26.6557 17.3221 26.6113V25.7224V25.6002V25.578H17.3444H17.4777H18.3666H18.3888C18.4333 25.578 18.4777 25.5668 18.511 25.5668C18.5444 25.5557 18.5888 25.5446 18.6221 25.5335C18.6555 25.5113 18.6888 25.5002 18.711 25.478C18.7444 25.4557 18.7777 25.4335 18.7999 25.4113C18.8333 25.378 18.8555 25.3557 18.8777 25.3224C18.8999 25.2891 18.911 25.2557 18.9333 25.2224C18.9444 25.178 18.9555 25.1446 18.9666 25.1002C18.9666 25.0557 18.9777 25.0113 18.9777 24.9668V24.9446V24.078V23.9557V23.9335H18.9999H19.1333H20.0221C20.0444 23.9335 20.0666 23.9335 20.0888 23.9335C20.111 23.9335 20.1333 23.9335 20.1444 23.9224C20.1666 23.9224 20.1888 23.9113 20.1999 23.9113C20.2221 23.9002 20.2444 23.9002 20.2555 23.8891C20.2777 23.878 20.2888 23.878 20.311 23.8668C20.3221 23.8557 20.3444 23.8446 20.3555 23.8335C20.3888 23.8113 20.4221 23.7891 20.4444 23.7557L22.311 21.9002L22.3666 21.8446L22.3777 21.8335L22.3999 21.8446L22.4777 21.8668C22.5666 21.9002 22.6555 21.9335 22.7444 21.9668C22.8333 21.9891 22.9221 22.0224 23.011 22.0446C23.0999 22.0668 23.1999 22.0891 23.2888 22.1113C23.3777 22.1335 23.4777 22.1557 23.5666 22.178C23.6777 22.2002 23.7888 22.2113 23.8999 22.2335C24.011 22.2446 24.1221 22.2668 24.2333 22.278C24.3555 22.2891 24.4666 22.2891 24.5888 22.3002C24.6999 22.3002 24.811 22.3113 24.9333 22.3113C25.411 22.3113 25.8888 22.2668 26.3444 22.178C26.811 22.0891 27.2555 21.9446 27.6888 21.778C28.1333 21.5891 28.5444 21.3668 28.9444 21.1113C29.3333 20.8557 29.6999 20.5557 30.0333 20.2224C30.3666 19.8891 30.6777 19.5224 30.9444 19.1335C31.1999 18.7446 31.4221 18.3224 31.611 17.8891C31.7888 17.4557 31.9333 17.0002 32.0221 16.5335C32.111 16.078 32.1666 15.6113 32.1666 15.1335C32.1666 14.6446 32.1221 14.178 32.0333 13.7113C31.9444 13.2446 31.811 12.8002 31.6333 12.3668C31.4555 11.9224 31.2333 11.5002 30.9777 11.1113C30.7221 10.7224 30.4221 10.3557 30.0888 10.0224C29.7666 9.68907 29.3999 9.37796 29.011 9.1224C28.6221 8.85574 28.211 8.63351 27.7777 8.44462C27.3444 8.26685 26.8999 8.13351 26.4333 8.03351C25.9777 7.94462 25.511 7.90018 25.0333 7.88907C24.5444 7.88907 24.0777 7.93351 23.6221 8.0224C23.1555 8.11129 22.6999 8.25574 22.2666 8.4224C21.8333 8.61129 21.411 8.83351 21.0221 9.08907C20.6221 9.35574 20.2555 9.65574 19.9221 9.97796C19.5888 10.3113 19.2888 10.678 19.0221 11.078C18.7555 11.4668 18.5333 11.878 18.3555 12.3113C18.1666 12.7446 18.0333 13.2002 17.9333 13.6668C17.8444 14.1224 17.7999 14.5891 17.7888 15.0668C17.7888 15.1891 17.7999 15.3113 17.7999 15.4224C17.811 15.5446 17.811 15.6557 17.8221 15.778Z" fill="#03A869"/>
</svg>
