<svg width="14" height="14" viewBox="0 0 14 14" fill="none" xmlns="http://www.w3.org/2000/svg">
<path fill-rule="evenodd" clip-rule="evenodd" d="M6.99959 0C7.50287 0 7.92365 0.412527 7.92365 0.92406V4.34803C7.92365 4.85131 7.51112 5.27209 6.99959 5.27209C6.49631 5.27209 6.07553 4.85957 6.07553 4.34803V0.92406C6.07553 0.420777 6.48806 0 6.99959 0Z" fill="#03A868"/>
<path fill-rule="evenodd" clip-rule="evenodd" d="M0.0444236 5.04959C0.201184 4.57106 0.720968 4.2988 1.20775 4.45556L4.46671 5.51162C4.94524 5.66838 5.21751 6.18817 5.06075 6.67495C4.90399 7.15348 4.38421 7.42575 3.89742 7.26899L0.638462 6.21292C0.159931 6.05616 -0.112337 5.53638 0.0444236 5.04959Z" fill="#03A868"/>
<path fill-rule="evenodd" clip-rule="evenodd" d="M2.70098 13.2252C2.28846 12.9282 2.1977 12.3507 2.49472 11.9381L4.50785 9.16595C4.80487 8.75342 5.38241 8.66267 5.79493 8.95969C6.20746 9.25671 6.29822 9.83424 6.0012 10.2468L3.98807 13.0189C3.69105 13.4315 3.11351 13.5222 2.70098 13.2252Z" fill="#03A868"/>
<path fill-rule="evenodd" clip-rule="evenodd" d="M11.2983 13.2252C10.8857 13.5222 10.3082 13.4315 10.0112 13.0189L7.99805 10.2468C7.70103 9.83424 7.79178 9.25671 8.20431 8.95969C8.61684 8.66267 9.19437 8.75342 9.49139 9.16595L11.5045 11.9381C11.8015 12.3507 11.7108 12.9282 11.2983 13.2252Z" fill="#03A868"/>
<path fill-rule="evenodd" clip-rule="evenodd" d="M13.9548 5.04937C14.1116 5.5279 13.8476 6.05593 13.3608 6.21269L10.1018 7.26876C9.62331 7.42552 9.09527 7.1615 8.93851 6.67472C8.78175 6.19619 9.04577 5.66816 9.53255 5.5114L12.7915 4.45533C13.27 4.29857 13.7981 4.56259 13.9548 5.04937Z" fill="#03A868"/>
</svg>
