<svg width="180" height="124" viewBox="0 0 180 124" fill="none" xmlns="http://www.w3.org/2000/svg">
<path d="M168.75 123.75H11.25C5.04 123.75 0 118.71 0 112.5V11.25C0 5.04 5.04 0 11.25 0H168.75C174.96 0 180 5.04 180 11.25V112.5C180 118.71 174.96 123.75 168.75 123.75Z" fill="#00783D"/>
<path d="M168.75 123.75H11.25C4.93875 123.75 0 118.811 0 112.5C0 110.711 0.855 109.024 2.295 107.966L86.67 51.7163C87.66 50.985 88.83 50.625 90 50.625C91.17 50.625 92.34 50.985 93.33 51.7163L177.705 107.966C179.145 109.024 180 110.711 180 112.5C180 118.811 175.061 123.75 168.75 123.75Z" fill="#03A868"/>
<path d="M168.75 0H11.25C4.93875 0 0 4.93875 0 11.25C0 13.0388 0.855 14.7263 2.295 15.7838L86.715 76.3875C88.6725 77.7938 91.3163 77.7938 93.2738 76.3875L177.694 15.7838C179.145 14.7263 180 13.0388 180 11.25C180 4.93875 175.061 0 168.75 0Z" fill="#55DB96"/>
</svg>
