<svg width="14" height="14" viewBox="0 0 14 14" fill="none" xmlns="http://www.w3.org/2000/svg">
<path fill-rule="evenodd" clip-rule="evenodd" d="M-1.42723e-05 7.00413C-0.00826411 3.13495 3.12667 1.6288e-05 6.9876 1.6288e-05C10.8568 -0.00823355 13.9917 3.11845 14 6.98763C14.0082 10.8568 10.8815 13.9917 7.01234 14C6.24511 14 5.51087 13.8762 4.82614 13.6535C5.32113 10.766 7.13609 8.4066 9.54504 7.40837C9.83379 7.73836 10.2545 7.94461 10.7248 7.94461C11.5828 7.94461 12.2757 7.24337 12.2757 6.38539C12.2757 5.5274 11.5745 4.82617 10.7165 4.83442C9.85854 4.83442 9.16555 5.53565 9.16555 6.39364C6.08836 7.32587 3.60516 9.47083 2.34294 12.2345C1.9387 11.8798 1.58395 11.4755 1.27046 11.03C1.33646 8.3406 2.66468 5.9894 4.65289 4.60342C4.94164 4.92517 5.35413 5.12316 5.81612 5.12316C6.6741 5.12316 7.36709 4.42193 7.36709 3.56394C7.36709 2.70596 6.66585 2.01298 5.80787 2.01298C4.94989 2.01298 4.24865 2.71421 4.2569 3.57219C4.2569 3.62169 4.2569 3.66294 4.26515 3.70419C2.41719 4.35593 0.890968 5.6429 0.00823556 7.28462C0.00823556 7.20212 -1.42723e-05 7.11137 -1.42723e-05 7.02888V7.02063V7.01237V7.00413Z" fill="#03A868"/>
</svg>
