<svg width="76" height="68" viewBox="0 0 76 68" fill="none" xmlns="http://www.w3.org/2000/svg">
<path d="M10.375 32.6026C7.26834 32.6026 4.75001 30.0859 4.75001 26.9815C4.75001 24.4757 6.40197 22.3777 8.66827 21.652C8.04725 20.3332 7.38761 19.0348 6.62494 17.8037C3.08071 23.5263 1 30.2498 1 37.4743C1 41.4112 1.61788 45.1992 2.75376 48.7576C4.23952 48.7576 12.25 47.3354 12.25 37.4743C12.25 35.7411 12.116 34.0406 11.885 32.3719C11.4015 32.5073 10.9017 32.6028 10.3751 32.6028L10.375 32.6026Z" fill="#03A868" stroke="#03A96A" stroke-width="0.0761527" stroke-miterlimit="22.9256"/>
<path d="M14.125 26.9819C14.125 29.0515 12.446 30.7294 10.375 30.7294C8.30398 30.7294 6.625 29.0516 6.625 26.9819C6.625 24.9122 8.30385 23.2344 10.375 23.2344C12.4459 23.2344 14.125 24.9121 14.125 26.9819Z" fill="#03A868"/>
<path d="M66.6251 32.6026C69.7317 32.6026 72.25 30.0859 72.25 26.9815C72.25 24.4757 70.5981 22.3777 68.3318 21.652C68.9528 20.3332 69.6124 19.0348 70.3751 17.8037C73.9193 23.5263 76 30.2498 76 37.4743C76 41.4112 75.3822 45.1992 74.2463 48.7576C72.7605 48.7576 64.75 47.3354 64.75 37.4743C64.75 35.7411 64.884 34.0406 65.115 32.3719C65.5985 32.5073 66.0983 32.6028 66.6249 32.6028L66.6251 32.6026Z" fill="#03A868"/>
<path d="M62.875 26.9819C62.875 29.0515 64.554 30.7294 66.625 30.7294C68.696 30.7294 70.375 29.0516 70.375 26.9819C70.375 24.9122 68.6962 23.2344 66.625 23.2344C64.5541 23.2344 62.875 24.9121 62.875 26.9819Z" fill="#03A868"/>
<path d="M38.5002 0C28.0153 0 18.5469 4.31055 11.7417 11.2422C18.5469 18.1741 28.0153 22.485 38.5002 22.485C48.9851 22.485 58.4535 18.1741 65.2587 11.2422C58.4535 4.31055 48.9851 0 38.5002 0V0Z" fill="#03A868"/>
<path d="M19.7495 11.2421C19.7495 13.2261 27.1908 18.737 38.4995 18.737C49.6909 18.737 57.2496 12.9614 57.2496 11.2421C57.2496 9.52261 49.7936 3.74707 38.4995 3.74707C27.2055 3.74707 19.7495 9.25806 19.7495 11.2421Z" fill="white"/>
<path d="M29.1008 14.9903C27.0191 14.9855 25.3636 13.3034 25.3751 11.2046C25.3862 9.15053 27.057 7.49586 29.1211 7.49463C31.2112 7.4934 32.8778 9.16212 32.8749 11.2533C32.8721 13.3385 31.1991 14.9952 29.1008 14.9903Z" fill="#03A868"/>
<path d="M51.6242 11.2252C51.6297 13.3188 49.9703 14.9867 47.8786 14.9902C45.7897 14.9936 44.1219 13.3243 44.125 11.2331C44.128 9.17084 45.7849 7.50498 47.8425 7.49516C49.9379 7.48521 51.6189 9.14315 51.6242 11.2252Z" fill="#03A868"/>
<path d="M64.5103 21.7684C65.6185 19.3965 66.9447 17.1453 68.5006 15.0708C68.0035 14.4079 67.504 13.7467 66.9653 13.1182H66.9613C60.0837 21.1346 49.8958 26.2323 38.5005 26.2323C27.1055 26.2323 16.9174 21.1346 10.0397 13.1182H10.004C9.53334 13.6815 8.94125 14.4829 8.50049 15.0708C10.062 17.1528 11.3926 19.4126 12.5032 21.7941C14.5358 22.6416 15.9653 24.6439 15.9653 26.982C15.9653 28.0192 15.6648 28.9786 15.1745 29.8126C15.6961 32.2874 16.0005 34.8425 16.0005 37.4749C16.0005 45.8928 13.1893 53.6353 8.50049 59.8915C10.6524 62.7627 13.2413 65.2704 16.1101 67.424C22.3633 62.7571 30.0954 59.96 38.5004 59.96C46.9054 59.96 54.6375 62.7571 60.8907 67.424C63.7595 65.2704 66.3484 62.7629 68.5003 59.8915C63.8115 53.6353 61.0003 45.8928 61.0003 37.4749C61.0003 34.8756 61.2978 32.3521 61.8066 29.906C61.2828 29.0519 60.965 28.0571 60.965 26.982C60.965 24.6132 62.4352 22.5961 64.51 21.7684H64.5103Z" fill="#03A868"/>
<path d="M24.0117 29.4474V56.7458C26.4066 55.8502 28.9132 55.1975 31.5117 54.8058V45.5325H45.489V54.8058C48.0876 55.1975 50.5942 55.8502 52.989 56.7458V42.3473V42.3469V29.4473C50.5942 30.3429 48.0876 30.9956 45.489 31.3874V39.1616H31.5117V31.3874C28.9132 30.9956 26.4066 30.3429 24.0117 29.4473V29.4474Z" fill="white"/>
</svg>
