<svg width="73" height="12" viewBox="0 0 73 12" fill="none" xmlns="http://www.w3.org/2000/svg">
<path fill-rule="evenodd" clip-rule="evenodd" d="M1.33377 0.00109863C2.0674 0.00109863 2.66781 0.600975 2.66781 1.33411V4.66656H9.33745V1.33411C9.33745 0.600975 9.9376 0.00109863 10.6712 0.00109863C11.4048 0.00109863 12.0053 0.600975 12.0053 1.33411V5.99957V5.9997V10.6653C12.0053 11.3986 11.4048 11.9983 10.6712 11.9983C9.9376 11.9983 9.33745 11.3986 9.33745 10.6653V7.33272H2.66781V10.6653C2.66781 11.3986 2.0674 11.9983 1.33377 11.9983C0.600143 11.9983 0 11.3986 0 10.6653V5.9997V5.99957V1.33411C0 0.600975 0.600143 0.00109863 1.33377 0.00109863Z" fill="#03A868"/>
<path fill-rule="evenodd" clip-rule="evenodd" d="M56.0242 5.99948V5.99935L56.0246 5.9652V5.96506L56.0259 5.93105V5.93091L56.028 5.89729V5.89716L56.0311 5.86355V5.86342L56.035 5.8302V5.83007L56.0396 5.79699V5.79685L56.0451 5.76417V5.76404L56.0514 5.73149V5.73135L56.0585 5.69921V5.69907L56.0663 5.66706V5.66693L56.075 5.63531V5.63518L56.0845 5.60396V5.60383L56.0946 5.57288V5.57275L56.1055 5.54207V5.54194L56.1172 5.51166V5.51152L56.1295 5.48151V5.48138L56.1426 5.45176V5.45163L56.1563 5.42255V5.42242L56.1707 5.3936V5.39347L56.186 5.36505V5.36492L56.2017 5.33691V5.33678L56.2181 5.30916V5.30903L56.2352 5.28182V5.28168L56.253 5.255V5.25487L56.2712 5.22859V5.22846L56.2902 5.20271V5.20258L56.3098 5.17723V5.1771L56.33 5.15229V5.15216L56.3507 5.12774V5.12761L56.372 5.10374V5.1036L56.3939 5.08026V5.08013L56.4163 5.05732V5.05718L56.4392 5.03504V5.0349L56.4627 5.01316V5.01303L56.4867 4.99182V4.99169L56.5112 4.97114V4.97101L56.5362 4.951V4.95087L56.5617 4.93139V4.93126L56.5876 4.91245V4.91231L56.614 4.89417V4.89404L56.6409 4.87643V4.8763L56.6682 4.85936V4.85922L56.696 4.84295V4.84282L56.7242 4.82721V4.82707L56.7527 4.812V4.81187L56.7817 4.79759V4.79746L56.8109 4.78386V4.78372L56.8407 4.77079V4.77065L56.8709 4.75851V4.75838L56.9013 4.74677V4.74664L56.9321 4.73597V4.73583L56.9632 4.72583V4.7257L56.9946 4.71636V4.71623L57.0264 4.70769V4.70755L57.0585 4.69982V4.69969L57.0908 4.69275V4.69262L57.1235 4.68648V4.68635L57.1564 4.68101V4.68087L57.1896 4.67634V4.67621L57.223 4.67247V4.67234L57.2568 4.6694V4.66927L57.2905 4.66727V4.66714L57.3247 4.66594V4.6658L57.359 4.66554V4.66541H62.0277C62.7615 4.66541 63.3616 5.26527 63.3616 5.99841V5.99855C63.3616 6.73168 62.7615 7.33155 62.0277 7.33155H58.693V10.6641C58.693 11.3973 58.0926 11.9971 57.359 11.9971C56.6254 11.9971 56.0251 11.3973 56.0251 10.6641V5.99855L56.0242 5.99948Z" fill="#BE1000"/>
<path fill-rule="evenodd" clip-rule="evenodd" d="M56.0242 1.334V1.33386C56.0242 0.600725 56.6244 0.000854492 57.3581 0.000854492H66.6955C67.4293 0.000854492 68.0294 0.600725 68.0294 1.33386V1.334C68.0294 2.06713 67.4293 2.667 66.6955 2.667H57.3581C56.6244 2.667 56.0242 2.06713 56.0242 1.334Z" fill="#BE1000"/>
<path fill-rule="evenodd" clip-rule="evenodd" d="M14.0061 5.99952V5.99939C14.0061 5.26626 14.6064 4.66638 15.34 4.66638H24.6775C25.4112 4.66638 26.0114 5.26626 26.0114 5.99939V5.99952C26.0114 6.73266 25.4112 7.33253 24.6775 7.33253H15.34C14.6064 7.33253 14.0061 6.73266 14.0061 5.99952Z" fill="#03A868"/>
<path fill-rule="evenodd" clip-rule="evenodd" d="M14.0061 1.334V1.33386C14.0061 0.600725 14.6064 0.000854492 15.34 0.000854492H24.6775C25.4112 0.000854492 26.0114 0.600725 26.0114 1.33386V1.334C26.0114 2.06713 25.4112 2.667 24.6775 2.667H15.34C14.6064 2.667 14.0061 2.06713 14.0061 1.334Z" fill="#03A868"/>
<path fill-rule="evenodd" clip-rule="evenodd" d="M14.0061 10.6653V10.6652C14.0061 9.93203 14.6064 9.33215 15.34 9.33215H24.6775C25.4112 9.33215 26.0114 9.93203 26.0114 10.6652V10.6653C26.0114 11.3984 25.4112 11.9983 24.6775 11.9983H15.34C14.6064 11.9983 14.0061 11.3984 14.0061 10.6653Z" fill="#03A868"/>
<path fill-rule="evenodd" clip-rule="evenodd" d="M30.68 9.33213H38.6834C39.4172 9.33213 40.0173 9.932 40.0173 10.6651V10.6653C40.0173 11.3984 39.4172 11.9983 38.6834 11.9983H29.346L29.3458 11.9981L29.3117 11.9979L29.3115 11.9977L29.2775 11.9965L29.2773 11.9964L29.2437 11.9944L29.2436 11.9943L29.2099 11.9913L29.2098 11.9912L29.1766 11.9875L29.1764 11.9873L29.1433 11.9828L29.1432 11.9827L29.1105 11.9773L29.1104 11.9772L29.0778 11.9711L29.0777 11.9709L29.0455 11.964L29.0454 11.9639L29.0133 11.9561L29.0132 11.956L28.9815 11.9475L28.9814 11.9473L28.9502 11.938H28.95L28.9191 11.9278L28.9189 11.9277L28.8882 11.917L28.8881 11.9169L28.8578 11.9053H28.8577L28.8276 11.893L28.8275 11.8929L28.7979 11.88L28.7977 11.8798L28.7686 11.8662L28.7685 11.8661L28.7397 11.8518L28.7395 11.8517L28.7111 11.8366H28.711L28.6829 11.8209L28.6828 11.8207L28.6552 11.8045L28.655 11.8043L28.6278 11.7874L28.6277 11.7872L28.601 11.7696L28.6009 11.7695L28.5746 11.7514L28.5744 11.7512L28.5487 11.7324L28.5485 11.7323L28.5232 11.7128L28.523 11.7127L28.4982 11.6927L28.4981 11.6925L28.4736 11.672L28.4735 11.6719L28.4496 11.6507H28.4495L28.4261 11.6288H28.426L28.4033 11.6065L28.4032 11.6064L28.3809 11.5836L28.3807 11.5834L28.359 11.5601L28.3588 11.5599L28.3376 11.5361L28.3375 11.5359L28.3169 11.5115H28.3168L28.2968 11.4866H28.2966L28.2772 11.4611H28.277L28.2582 11.4352L28.2581 11.4351L28.2399 11.4088L28.2398 11.4087L28.2222 11.382L28.222 11.3819L28.2051 11.3547H28.2049L28.1887 11.3269H28.1885L28.1729 11.2988H28.1728L28.1577 11.2702H28.1576L28.1433 11.2413H28.1431L28.1295 11.2121L28.1294 11.2119L28.1164 11.1823L28.1163 11.1822L28.1042 11.1522H28.104L28.0924 11.1217H28.0923L28.0816 11.0909H28.0815L28.0715 11.0599H28.0713L28.062 11.0285L28.0618 11.0284L28.0533 10.9968L28.0532 10.9966L28.0454 10.9646H28.0453L28.0384 10.9323L28.0382 10.9322L28.0321 10.8996L28.0319 10.8995L28.0266 10.8668L28.0265 10.8667L28.0219 10.8336L28.0218 10.8335L28.0181 10.8003L28.0179 10.8001L28.015 10.7665H28.0149L28.0129 10.7328L28.0127 10.7326L28.0115 10.6986L28.0114 10.6985L28.0111 10.6643L28.011 10.6642V1.333C28.011 0.59987 28.6113 0 29.3449 0C30.0785 0 30.6789 0.59987 30.6789 1.333V9.33106L30.68 9.33213Z" fill="#03A868"/>
<path fill-rule="evenodd" clip-rule="evenodd" d="M71.3642 4.66663C72.0978 4.66663 72.6982 5.2665 72.6982 5.99963V10.6652C72.6982 11.3984 72.0978 11.9982 71.3642 11.9982C70.6306 11.9982 70.0303 11.3984 70.0303 10.6652V5.99963C70.0303 5.2665 70.6306 4.66663 71.3642 4.66663Z" fill="#BE1000"/>
<path fill-rule="evenodd" clip-rule="evenodd" d="M71.3642 0.000854492C72.1009 0.000854492 72.6981 0.597656 72.6981 1.33386C72.6981 2.07006 72.1009 2.66687 71.3642 2.66687C70.6275 2.66687 70.0303 2.07006 70.0303 1.33386C70.0303 0.597656 70.6275 0.000854492 71.3642 0.000854492Z" fill="#BE1000"/>
<path fill-rule="evenodd" clip-rule="evenodd" d="M42.0183 1.334V1.33386C42.0183 0.600724 42.6186 0.000854492 43.3522 0.000854492H52.6897V0.00098476L52.724 0.00125181V0.00138208L52.7581 0.00258705V0.00271732C52.7808 0.00391787 52.8034 0.00552355 52.8257 0.00779126V0.00792152L52.8591 0.0116537V0.0117905L52.8923 0.0163238V0.0164606L52.9251 0.021795V0.0219253L52.9578 0.0280609V0.0281977C52.9795 0.0325997 53.0009 0.0375335 53.0223 0.0430027V0.0431394L53.0541 0.051672V0.0518088C53.0752 0.0578115 53.096 0.0642139 53.1167 0.0712838V0.0714141C53.1476 0.0819522 53.1781 0.0934254 53.208 0.106098V0.106235L53.2377 0.11917V0.119307L53.2671 0.132914V0.133044L53.2961 0.147321V0.147451L53.3246 0.162523V0.16266L53.3528 0.178266V0.178397C53.3715 0.189068 53.3898 0.20014 53.4078 0.211745V0.211882L53.4346 0.229488V0.229624L53.4611 0.247764V0.247901L53.4871 0.266705V0.266842L53.5126 0.286317V0.286447L53.5375 0.306456V0.306593L53.562 0.327136V0.327267L53.586 0.348474V0.348611L53.6095 0.370353V0.37049L53.6325 0.392629V0.392765L53.6549 0.415575V0.415705L53.6768 0.439049V0.439186L53.698 0.463064V0.463195L53.7187 0.487607L53.7188 0.487744L53.7388 0.512553L53.739 0.512683L53.7585 0.538033V0.538164L53.7774 0.563911V0.564041L53.7957 0.590323L53.7958 0.590453L53.8135 0.617132L53.8136 0.617269L53.8305 0.644482L53.8307 0.644612L53.847 0.672222L53.8471 0.672359L53.8628 0.700373V0.700504L53.8779 0.728915L53.8781 0.729052L53.8923 0.757867L53.8925 0.757997L53.9061 0.78708L53.9062 0.78721L53.9192 0.816826L53.9193 0.816956L53.9316 0.84697V0.847107L53.9432 0.877388L53.9433 0.877518L53.954 0.908203L53.9542 0.908333L53.9643 0.939278V0.939415L53.9736 0.970627L53.9738 0.970764L53.9823 1.00237L53.9824 1.00251L53.9902 1.03452L53.9903 1.03466L53.9973 1.0668L53.9974 1.06694L54.0035 1.09949L54.0037 1.09962L54.009 1.1323L54.0091 1.13243L54.0137 1.16551L54.0138 1.16565L54.0176 1.19886L54.0177 1.199L54.0206 1.23262L54.0208 1.23275L54.0228 1.26636L54.0229 1.2665L54.0241 1.30051L54.0242 1.30065L54.0245 1.3348L54.0246 1.33493V6.00053H54.0245L54.0242 6.03481H54.0241L54.0229 6.06896H54.0228L54.0208 6.1027H54.0206L54.0177 6.13646H54.0176L54.0138 6.16981H54.0137L54.0091 6.20302H54.009L54.0037 6.23583H54.0035L53.9974 6.26852H53.9973L53.9903 6.3008H53.9902L53.9824 6.33295H53.9823L53.9738 6.36469H53.9736L53.9643 6.39604L53.9542 6.42712H53.954L53.9433 6.45793H53.9432L53.9316 6.48835L53.9193 6.51849H53.9192L53.9062 6.54824H53.9061L53.8925 6.57746H53.8923L53.8781 6.6064H53.8779L53.8628 6.63495L53.8471 6.6631H53.847L53.8307 6.69084H53.8305L53.8136 6.71819H53.8135L53.7958 6.745H53.7957L53.7774 6.77141L53.7585 6.79729L53.739 6.82277H53.7388L53.7188 6.84771H53.7187L53.698 6.87226L53.6768 6.89627L53.6549 6.91974L53.6325 6.94269L53.6095 6.96497L53.586 6.98685L53.562 7.00818L53.5375 7.02886L53.5126 7.049L53.4871 7.06861L53.4611 7.08756L53.4346 7.10583L53.4078 7.12357L53.3806 7.14065H53.3804L53.3528 7.15705L53.3246 7.1728L53.2961 7.188L53.2671 7.20241L53.2377 7.21615L53.208 7.22922L53.1779 7.24149H53.1778L53.1475 7.25323H53.1474L53.1167 7.26404L53.0856 7.27418H53.0854L53.0541 7.28365L53.0223 7.29232L52.9903 7.30019H52.9901L52.9578 7.30726L52.9251 7.31352L52.8923 7.319L52.8591 7.32367L52.8257 7.32754L52.792 7.3306H52.7919L52.7581 7.33273L52.724 7.33407L52.6897 7.33447H44.6862V10.6671C44.6862 11.4002 44.0858 12.0001 43.3522 12.0001C42.6186 12.0001 42.0183 11.4002 42.0183 10.6671V6.00146L42.0184 6.00132L42.0187 5.96718L42.0188 5.96704L42.02 5.93303L42.0202 5.93289L42.0222 5.89928L42.0223 5.89915L42.0252 5.86553L42.0254 5.8654L42.0291 5.83218L42.0293 5.83205L42.0338 5.79897L42.0339 5.79884L42.0393 5.76615L42.0394 5.76602L42.0455 5.73347L42.0457 5.73334L42.0526 5.70119L42.0527 5.70106L42.0605 5.66904L42.0606 5.66891L42.0692 5.63729L42.0693 5.63716L42.0786 5.60595L42.0788 5.60581L42.0888 5.57487L42.0889 5.57473L42.0996 5.54405L42.0997 5.54391L42.1113 5.51364L42.1115 5.5135L42.1236 5.48349L42.1238 5.48336L42.1367 5.45374L42.1368 5.45361L42.1505 5.42453L42.1506 5.42439L42.1649 5.39558L42.165 5.39545L42.1801 5.36704L42.1802 5.36691L42.1958 5.33889L42.196 5.33876L42.2123 5.31114L42.2124 5.31101L42.2293 5.2838L42.2295 5.28367L42.2471 5.25699L42.2472 5.25686L42.2654 5.23057L42.2655 5.23044L42.2843 5.2047L42.2845 5.20456L42.304 5.17922L42.3041 5.17909L42.3241 5.15427L42.3243 5.15414L42.3448 5.12973L42.3449 5.1296L42.3662 5.10572L42.3663 5.10558L42.3881 5.08224L42.3882 5.08211L42.4105 5.0593L42.4106 5.05916L42.4333 5.03702L42.4334 5.03689L42.4568 5.01514L42.4569 5.01501L42.4808 4.9938L42.481 4.99366L42.5054 4.97313L42.5055 4.97299L42.5304 4.95298L42.5305 4.95285L42.5558 4.93337L42.556 4.93324L42.5817 4.91443L42.5819 4.9143L42.6082 4.89616L42.6083 4.89602L42.635 4.87841L42.6351 4.87828L42.6624 4.86134L42.6625 4.86121L42.6901 4.84493L42.6903 4.8448L42.7183 4.82919L42.7184 4.82906L42.7469 4.81398L42.747 4.81385L42.7758 4.79958L42.776 4.79945L42.8051 4.78584L42.8052 4.7857L42.8348 4.77277L42.835 4.77263L42.865 4.76049L42.8651 4.76036L42.8954 4.74875L42.8956 4.74862L42.9263 4.73795L42.9264 4.73782L42.9574 4.72781L42.9575 4.72768L42.9887 4.71834L42.9889 4.7182L43.0205 4.70967L43.0206 4.70954L43.0527 4.7018L43.0528 4.70167L43.085 4.69473L43.0851 4.69459L43.1177 4.68846L43.1178 4.68833L43.1505 4.68299L43.1507 4.68286L43.1838 4.67832L43.1839 4.67819L43.2171 4.67445L43.2173 4.67432L43.2509 4.67139L43.251 4.67125L43.2847 4.66925L43.2848 4.66912L43.3188 4.66791L43.319 4.66778L43.3531 4.66752L43.3533 4.66738H51.3567V2.66794H43.3533C42.6197 2.66794 42.0194 2.06806 42.0194 1.33493L42.0183 1.334Z" fill="#03A868"/>
</svg>
