<svg width="26" height="26" viewBox="0 0 26 26" fill="none" xmlns="http://www.w3.org/2000/svg">
<path fill-rule="evenodd" clip-rule="evenodd" d="M7.32568 18.5627C7.32568 19.115 7.7734 19.5627 8.32568 19.5627H20.9768C21.5291 19.5627 21.9768 19.115 21.9768 18.5627V18.4986C21.9768 17.9463 21.5291 17.4986 20.9768 17.4986H8.32568C7.7734 17.4986 7.32568 17.9463 7.32568 18.4986V18.5627Z" fill="#03A96A"/>
<path fill-rule="evenodd" clip-rule="evenodd" d="M8.35772 7.17828C8.32797 7.17828 8.3131 7.17828 8.30053 7.1786C7.76796 7.192 7.3394 7.62056 7.326 8.15313C7.32568 8.1657 7.32568 8.18057 7.32568 8.21032C7.32568 8.24006 7.32568 8.25494 7.326 8.26751C7.3394 8.80008 7.76796 9.22864 8.30053 9.24204C8.3131 9.24236 8.32797 9.24236 8.35772 9.24236H20.9448C20.9745 9.24236 20.9894 9.24236 21.002 9.24204C21.5346 9.22864 21.9631 8.80008 21.9765 8.26751C21.9768 8.25494 21.9768 8.24006 21.9768 8.21032C21.9768 8.18057 21.9768 8.1657 21.9765 8.15313C21.9631 7.62056 21.5346 7.192 21.002 7.1786C20.9894 7.17828 20.9745 7.17828 20.9448 7.17828H8.35772Z" fill="#03A96A"/>
<path fill-rule="evenodd" clip-rule="evenodd" d="M8.35772 12.3384C8.32797 12.3384 8.3131 12.3384 8.30053 12.3388C7.76796 12.3522 7.3394 12.7807 7.326 13.3133C7.32568 13.3259 7.32568 13.3407 7.32568 13.3705C7.32568 13.4002 7.32568 13.4151 7.326 13.4277C7.3394 13.9602 7.76796 14.3888 8.30053 14.4022C8.3131 14.4025 8.32797 14.4025 8.35772 14.4025H20.9448C20.9745 14.4025 20.9894 14.4025 21.002 14.4022C21.5346 14.3888 21.9631 13.9602 21.9765 13.4277C21.9768 13.4151 21.9768 13.4002 21.9768 13.3705C21.9768 13.3407 21.9768 13.3259 21.9765 13.3133C21.9631 12.7807 21.5346 12.3522 21.002 12.3388C20.9894 12.3384 20.9745 12.3384 20.9448 12.3384H8.35772Z" fill="#03A96A"/>
<path fill-rule="evenodd" clip-rule="evenodd" d="M3.13965 18.5627C3.13965 19.115 3.58736 19.5627 4.13965 19.5627H4.23267C4.78495 19.5627 5.23267 19.115 5.23267 18.5627V18.4986C5.23267 17.9463 4.78495 17.4986 4.23267 17.4986H4.13965C3.58736 17.4986 3.13965 17.9463 3.13965 18.4986V18.5627Z" fill="#03A96A"/>
<path fill-rule="evenodd" clip-rule="evenodd" d="M4.17168 7.17828C4.14194 7.17828 4.12707 7.17828 4.11449 7.1786C3.58193 7.192 3.15337 7.62056 3.13996 8.15313C3.13965 8.1657 3.13965 8.18057 3.13965 8.21032C3.13965 8.24006 3.13965 8.25494 3.13996 8.26751C3.15337 8.80008 3.58193 9.22864 4.11449 9.24204C4.12707 9.24236 4.14194 9.24236 4.17168 9.24236H4.20063C4.23037 9.24236 4.24525 9.24236 4.25782 9.24204C4.79039 9.22864 5.21895 8.80008 5.23235 8.26751C5.23267 8.25494 5.23267 8.24006 5.23267 8.21032C5.23267 8.18057 5.23267 8.1657 5.23235 8.15313C5.21895 7.62056 4.79039 7.192 4.25782 7.1786C4.24525 7.17828 4.23037 7.17828 4.20063 7.17828H4.17168Z" fill="#03A96A"/>
<path fill-rule="evenodd" clip-rule="evenodd" d="M4.17168 12.3384C4.14194 12.3384 4.12707 12.3384 4.11449 12.3388C3.58193 12.3522 3.15337 12.7807 3.13996 13.3133C3.13965 13.3259 3.13965 13.3407 3.13965 13.3705C3.13965 13.4002 3.13965 13.4151 3.13996 13.4277C3.15337 13.9602 3.58193 14.3888 4.11449 14.4022C4.12707 14.4025 4.14194 14.4025 4.17168 14.4025H4.20063C4.23038 14.4025 4.24525 14.4025 4.25782 14.4022C4.79039 14.3888 5.21895 13.9602 5.23235 13.4277C5.23267 13.4151 5.23267 13.4002 5.23267 13.3705C5.23267 13.3407 5.23267 13.3259 5.23235 13.3133C5.21895 12.7807 4.79039 12.3522 4.25782 12.3388C4.24525 12.3384 4.23038 12.3384 4.20063 12.3384H4.17168Z" fill="#03A96A"/>
</svg>
