<svg width="12" height="11" viewBox="0 0 12 11" fill="none" xmlns="http://www.w3.org/2000/svg">
<mask id="path-1-inside-1" fill="white">
<path fill-rule="evenodd" clip-rule="evenodd" d="M1.5 0C0.671573 0 0 0.671573 0 1.5V7.5C0 8.32843 0.671573 9 1.5 9H2.66667L2 11L6 9H10.5C11.3284 9 12 8.32843 12 7.5V1.5C12 0.671573 11.3284 0 10.5 0H1.5Z"/>
</mask>
<path d="M2.66667 9L3.61535 9.31623L4.05409 8H2.66667V9ZM2 11L1.05132 10.6838L0.287875 12.9741L2.44721 11.8944L2 11ZM6 9V8H5.76393L5.55279 8.10557L6 9ZM1 1.5C1 1.22386 1.22386 1 1.5 1V-1C0.119288 -1 -1 0.119289 -1 1.5H1ZM1 7.5V1.5H-1V7.5H1ZM1.5 8C1.22386 8 1 7.77614 1 7.5H-1C-1 8.88071 0.119288 10 1.5 10V8ZM2.66667 8H1.5V10H2.66667V8ZM2.94868 11.3162L3.61535 9.31623L1.71798 8.68377L1.05132 10.6838L2.94868 11.3162ZM5.55279 8.10557L1.55279 10.1056L2.44721 11.8944L6.44721 9.89443L5.55279 8.10557ZM10.5 8H6V10H10.5V8ZM11 7.5C11 7.77614 10.7761 8 10.5 8V10C11.8807 10 13 8.88071 13 7.5H11ZM11 1.5V7.5H13V1.5H11ZM10.5 1C10.7761 1 11 1.22386 11 1.5H13C13 0.119288 11.8807 -1 10.5 -1V1ZM1.5 1H10.5V-1H1.5V1Z" fill="#03A868" mask="url(#path-1-inside-1)"/>
</svg>
