<svg width="37" height="47" viewBox="0 0 37 47" fill="none" xmlns="http://www.w3.org/2000/svg">
<path d="M5.49998 15.6495C4.00881 15.6495 2.8 14.4414 2.8 12.9513C2.8 11.7486 3.59295 10.7415 4.68077 10.3932C4.38268 9.76016 4.06605 9.13696 3.69997 8.54602C1.99874 11.2929 1 14.5201 1 17.9879C1 19.8776 1.29658 21.6959 1.84181 23.4039C2.55497 23.4039 6.40001 22.7212 6.40001 17.9879C6.40001 17.156 6.33569 16.3397 6.2248 15.5388C5.99273 15.6037 5.75281 15.6496 5.50004 15.6496L5.49998 15.6495Z" fill="#03A868" stroke="#03A96A" stroke-width="0.0761527" stroke-miterlimit="22.9256"/>
<path d="M7.29996 12.9514C7.29996 13.9448 6.49405 14.7502 5.49995 14.7502C4.50586 14.7502 3.69995 13.9449 3.69995 12.9514C3.69995 11.958 4.5058 11.1526 5.49995 11.1526C6.49398 11.1526 7.29996 11.9579 7.29996 12.9514Z" fill="#03A868"/>
<path d="M32.5001 15.6495C33.9913 15.6495 35.2001 14.4414 35.2001 12.9513C35.2001 11.7486 34.4072 10.7415 33.3193 10.3932C33.6174 9.76016 33.9341 9.13696 34.3001 8.54602C36.0014 11.2929 37.0001 14.5201 37.0001 17.9879C37.0001 19.8776 36.7035 21.6959 36.1583 23.4039C35.4451 23.4039 31.6001 22.7212 31.6001 17.9879C31.6001 17.156 31.6644 16.3397 31.7753 15.5388C32.0074 15.6037 32.2473 15.6496 32.5001 15.6496L32.5001 15.6495Z" fill="#03A868"/>
<path d="M30.7 12.9514C30.7 13.9448 31.5059 14.7502 32.5 14.7502C33.494 14.7502 34.3 13.9449 34.3 12.9514C34.3 11.958 33.4941 11.1526 32.5 11.1526C31.5059 11.1526 30.7 11.9579 30.7 12.9514Z" fill="#03A868"/>
<path d="M19.0001 0C13.9673 0 9.42249 2.06906 6.15601 5.39626C9.42249 8.72358 13.9673 10.7928 19.0001 10.7928C24.0328 10.7928 28.5777 8.72358 31.8442 5.39626C28.5777 2.06906 24.0328 0 19.0001 0V0Z" fill="#03A868"/>
<path d="M10 5.39642C10 6.34874 13.5718 8.99401 19 8.99401C24.3719 8.99401 28 6.22169 28 5.39642C28 4.57109 24.4212 1.79883 19 1.79883C13.5788 1.79883 10 4.4441 10 5.39642Z" fill="white"/>
<path d="M14.4883 7.19533C13.4891 7.19304 12.6945 6.38564 12.7 5.37821C12.7054 4.39224 13.5073 3.598 14.4981 3.59741C15.5013 3.59682 16.3013 4.39781 16.2999 5.40158C16.2985 6.40246 15.4955 7.19769 14.4883 7.19533Z" fill="#03A868"/>
<path d="M25.2998 5.38797C25.3024 6.39292 24.506 7.19351 23.5019 7.19515C22.4992 7.19679 21.6987 6.39554 21.7002 5.39177C21.7016 4.40188 22.4969 3.60227 23.4846 3.59756C24.4904 3.59278 25.2973 4.38859 25.2998 5.38797Z" fill="#03A868"/>
<path d="M31.4848 10.4489C32.0167 9.31035 32.6533 8.2298 33.4002 7.23402C33.1615 6.91584 32.9218 6.59844 32.6632 6.29675H32.6613C29.36 10.1446 24.4698 12.5915 19.0001 12.5915C13.5305 12.5915 8.6402 10.1446 5.33894 6.29675H5.32178C5.09587 6.56715 4.81166 6.95184 4.6001 7.23402C5.34961 8.2334 5.9883 9.31807 6.52141 10.4612C7.49703 10.868 8.18321 11.8291 8.18321 12.9514C8.18321 13.4493 8.03897 13.9097 7.80363 14.3101C8.05397 15.498 8.2001 16.7244 8.2001 17.988C8.2001 22.0286 6.85074 25.745 4.6001 28.748C5.63303 30.1261 6.8757 31.3298 8.2527 32.3636C11.2542 30.1235 14.9657 28.7808 19.0001 28.7808C23.0345 28.7808 26.7459 30.1235 29.7474 32.3636C31.1244 31.3298 32.3671 30.1262 33.4 28.748C31.1494 25.745 29.8 22.0286 29.8 17.988C29.8 16.7403 29.9428 15.5291 30.1871 14.3549C29.9356 13.945 29.7831 13.4675 29.7831 12.9514C29.7831 11.8144 30.4887 10.8461 31.4847 10.4489H31.4848Z" fill="#03A868"/>
<path d="M12.0454 14.1346V27.2378C13.1949 26.8079 14.3981 26.4946 15.6454 26.3066V21.8555H22.3545V26.3066C23.6018 26.4946 24.805 26.8079 25.9545 27.2378V20.3265V20.3263V14.1345C24.805 14.5644 23.6018 14.8777 22.3545 15.0658V18.7974H15.6454V15.0658C14.3981 14.8777 13.1949 14.5644 12.0454 14.1345V14.1346Z" fill="white"/>
<rect x="3" y="35" width="32" height="12" rx="6" fill="#777777"/>
<path d="M8.40625 38.2539H9.51562L11.7266 44H10.5898L10.1406 42.8164H7.79688L7.32812 44H6.19141L8.40625 38.2539ZM8.96875 39.7773L8.20312 41.75H9.73047L8.96875 39.7773ZM12.7381 38.2539H13.8319V42.957H15.4256V44H12.7381V38.2539ZM16.4177 38.2539H17.5778C18.2054 38.2539 18.6572 38.3125 18.9333 38.4297C19.2119 38.5443 19.4307 38.7318 19.5895 38.9922C19.751 39.25 19.8317 39.5599 19.8317 39.9219C19.8317 40.3229 19.7262 40.6562 19.5153 40.9219C19.307 41.1875 19.0231 41.3724 18.6637 41.4766C18.4528 41.5365 18.0687 41.5664 17.5114 41.5664V44H16.4177V38.2539ZM17.5114 40.5H17.8591C18.1325 40.5 18.3226 40.4805 18.4294 40.4414C18.5361 40.4023 18.6195 40.3385 18.6794 40.25C18.7419 40.1589 18.7731 40.0495 18.7731 39.9219C18.7731 39.7005 18.6872 39.5391 18.5153 39.4375C18.3903 39.362 18.1585 39.3242 17.82 39.3242H17.5114V40.5ZM21.062 38.2539H22.1714V40.4219H24.0933V38.2539H25.1987V44H24.0933V41.4805H22.1714V44H21.062V38.2539ZM28.4212 38.2539H29.5306L31.7416 44H30.6048L30.1556 42.8164H27.8119L27.3431 44H26.2064L28.4212 38.2539ZM28.9837 39.7773L28.2181 41.75H29.7455L28.9837 39.7773Z" fill="white"/>
</svg>
