<svg width="180" height="192" viewBox="0 0 180 192" fill="none" xmlns="http://www.w3.org/2000/svg">
<path d="M0 67.4972L75.9375 129.196C76.9275 129.928 88.83 123.747 90 123.747C91.17 123.747 99.7327 129.928 100.723 129.196L180 67.4972L93.375 1.12219C91.3725 -0.374063 88.6275 -0.374063 86.625 1.12219L0 67.4972Z" fill="#55DB96"/>
<path d="M146.25 11.2476H33.75C27.5512 11.2476 22.5 16.2988 22.5 22.4976V146.248C22.5 149.353 25.02 151.873 28.125 151.873H151.875C154.98 151.873 157.5 149.353 157.5 146.248V22.4976C157.5 16.2988 152.46 11.2476 146.25 11.2476Z" fill="#ECEFF1"/>
<path d="M93.33 128.172C92.34 128.977 91.17 129.373 90 129.373C88.83 129.373 87.66 128.977 86.67 128.172L0 67.4976V178.873C0 185.704 5.04 191.248 11.25 191.248H168.75C174.96 191.248 180 185.704 180 178.873V67.4976L93.33 128.172Z" fill="#00783D"/>
<path d="M168.75 191.248H11.25C4.93875 191.248 0 186.309 0 179.998C0 178.209 0.855 176.521 2.295 175.464L86.67 119.214C87.66 118.483 88.83 118.123 90 118.123C91.17 118.123 92.34 118.483 93.33 119.214L177.705 175.464C179.145 176.521 180 178.209 180 179.998C180 186.309 175.061 191.248 168.75 191.248Z" fill="#03A868"/>
<path fill-rule="evenodd" clip-rule="evenodd" d="M56.29 38.897C56.9996 38.897 57.5803 39.4772 57.5803 40.1862V43.4094H64.0311V40.1862C64.0311 39.4772 64.6115 38.897 65.3211 38.897C66.0306 38.897 66.6114 39.4772 66.6114 40.1862V44.6986V44.6988V49.2113C66.6114 49.9205 66.0306 50.5005 65.3211 50.5005C64.6115 50.5005 64.0311 49.9205 64.0311 49.2113V45.988H57.5803V49.2113C57.5803 49.9205 56.9996 50.5005 56.29 50.5005C55.5805 50.5005 55 49.9205 55 49.2113V44.6988V44.6986V40.1862C55 39.4772 55.5805 38.897 56.29 38.897Z" fill="#03A868"/>
<path fill-rule="evenodd" clip-rule="evenodd" d="M109.186 44.6985V44.6984L109.186 44.6653V44.6652L109.187 44.6323V44.6322L109.189 44.5997V44.5995L109.192 44.567V44.5669L109.196 44.5348V44.5347L109.201 44.5027V44.5025L109.206 44.4709V44.4708L109.212 44.4393V44.4392L109.219 44.4081V44.408L109.226 44.377V44.3769L109.235 44.3463V44.3462L109.244 44.316V44.3158L109.254 44.2859V44.2858L109.264 44.2561V44.256L109.276 44.2267V44.2266L109.287 44.1975V44.1974L109.3 44.1688V44.1686L109.313 44.1405V44.1404L109.327 44.1125V44.1124L109.342 44.0849V44.0848L109.357 44.0577V44.0575L109.373 44.0308V44.0307L109.39 44.0044V44.0043L109.407 43.9785V43.9783L109.425 43.9529V43.9528L109.443 43.9279V43.9278L109.462 43.9032V43.9031L109.481 43.8791V43.879L109.501 43.8554V43.8552L109.522 43.8322V43.832L109.543 43.8094V43.8093L109.565 43.7873V43.7871L109.587 43.7657V43.7656L109.61 43.7445V43.7444L109.633 43.7239V43.7238L109.657 43.7039V43.7038L109.681 43.6844V43.6843L109.705 43.6655V43.6653L109.73 43.6471V43.647L109.756 43.6295V43.6293L109.782 43.6123V43.6122L109.808 43.5958V43.5957L109.835 43.5799V43.5798L109.863 43.5647V43.5646L109.89 43.55V43.5499L109.918 43.5361V43.5359L109.946 43.5228V43.5226L109.975 43.5101V43.51L110.004 43.4983V43.4981L110.034 43.4869V43.4868L110.064 43.4765V43.4763L110.094 43.4666V43.4665L110.124 43.4575V43.4574L110.155 43.4491V43.449L110.186 43.4415V43.4414L110.217 43.4346V43.4345L110.249 43.4286V43.4285L110.281 43.4233V43.4232L110.313 43.4188V43.4187L110.345 43.415V43.4149L110.378 43.4121V43.4119L110.41 43.41V43.4099L110.443 43.4087V43.4086L110.477 43.4083V43.4082H114.992C115.702 43.4082 116.282 43.9884 116.282 44.6975V44.6976C116.282 45.4067 115.702 45.9869 114.992 45.9869H111.767V49.2101C111.767 49.9192 111.186 50.4994 110.477 50.4994C109.767 50.4994 109.186 49.9192 109.186 49.2101V44.6976L109.186 44.6985Z" fill="#BE1000"/>
<path fill-rule="evenodd" clip-rule="evenodd" d="M109.186 40.1859V40.1858C109.186 39.4767 109.766 38.8965 110.476 38.8965H119.507C120.216 38.8965 120.797 39.4767 120.797 40.1858V40.1859C120.797 40.895 120.216 41.4752 119.507 41.4752H110.476C109.766 41.4752 109.186 40.895 109.186 40.1859Z" fill="#BE1000"/>
<path fill-rule="evenodd" clip-rule="evenodd" d="M68.5454 44.6986V44.6985C68.5454 43.9894 69.126 43.4092 69.8355 43.4092H78.8666C79.5763 43.4092 80.1568 43.9894 80.1568 44.6985V44.6986C80.1568 45.4077 79.5763 45.9879 78.8666 45.9879H69.8355C69.126 45.9879 68.5454 45.4077 68.5454 44.6986Z" fill="#03A868"/>
<path fill-rule="evenodd" clip-rule="evenodd" d="M68.5459 40.1859V40.1858C68.5459 39.4767 69.1265 38.8965 69.836 38.8965H78.8671C79.5768 38.8965 80.1572 39.4767 80.1572 40.1858V40.1859C80.1572 40.895 79.5768 41.4752 78.8671 41.4752H69.836C69.1265 41.4752 68.5459 40.895 68.5459 40.1859Z" fill="#03A868"/>
<path fill-rule="evenodd" clip-rule="evenodd" d="M68.5454 49.2118V49.2116C68.5454 48.5026 69.126 47.9224 69.8355 47.9224H78.8666C79.5763 47.9224 80.1568 48.5026 80.1568 49.2116V49.2118C80.1568 49.9208 79.5763 50.501 78.8666 50.501H69.8355C69.126 50.501 68.5454 49.9208 68.5454 49.2118Z" fill="#03A868"/>
<path fill-rule="evenodd" clip-rule="evenodd" d="M84.6727 47.9214H92.4136C93.1232 47.9214 93.7037 48.5016 93.7037 49.2107V49.2108C93.7037 49.9199 93.1232 50.5001 92.4136 50.5001H83.3825L83.3823 50.5L83.3493 50.4997L83.3492 50.4996L83.3162 50.4984L83.3161 50.4983L83.2836 50.4964L83.2835 50.4962L83.2509 50.4934L83.2508 50.4933L83.2186 50.4897L83.2185 50.4895L83.1865 50.4851L83.1864 50.485L83.1547 50.4799L83.1546 50.4797L83.1231 50.4738L83.123 50.4737L83.0919 50.4669L83.0917 50.4668L83.0608 50.4593L83.0606 50.4592L83.03 50.451L83.0299 50.4508L82.9997 50.4418H82.9996L82.9696 50.432L82.9695 50.4319L82.9398 50.4215L82.9397 50.4214L82.9103 50.4102H82.9102L82.8812 50.3983L82.881 50.3982L82.8524 50.3857L82.8522 50.3855L82.8241 50.3724L82.824 50.3723L82.7961 50.3584L82.796 50.3583L82.7685 50.3437H82.7683L82.7412 50.3285L82.7411 50.3284L82.7144 50.3126L82.7142 50.3125L82.6879 50.2961L82.6878 50.296L82.6619 50.279L82.6618 50.2788L82.6364 50.2613L82.6363 50.2612L82.6113 50.243L82.6112 50.2429L82.5867 50.224L82.5866 50.2239L82.5625 50.2045L82.5624 50.2044L82.5388 50.1845L82.5387 50.1844L82.5155 50.1639H82.5154L82.4928 50.1427H82.4927L82.4707 50.1212L82.4706 50.1211L82.4491 50.099L82.4489 50.0989L82.4279 50.0763L82.4278 50.0762L82.4072 50.0531L82.4071 50.0529L82.3872 50.0293H82.3871L82.3677 50.0052H82.3676L82.3487 49.9806H82.3486L82.3304 49.9555L82.3303 49.9554L82.3127 49.93L82.3126 49.9299L82.2956 49.904L82.2954 49.9039L82.279 49.8776H82.2789L82.2631 49.8508H82.263L82.2479 49.8235H82.2478L82.2332 49.7959H82.2331L82.2192 49.7679H82.2191L82.206 49.7397L82.2058 49.7396L82.1933 49.7109L82.1932 49.7108L82.1814 49.6818H82.1813L82.1701 49.6523H82.1699L82.1596 49.6225H82.1595L82.1498 49.5925H82.1497L82.1406 49.5622L82.1405 49.562L82.1322 49.5314L82.1321 49.5313L82.1246 49.5004H82.1245L82.1178 49.4691L82.1176 49.469L82.1117 49.4375L82.1116 49.4374L82.1064 49.4058L82.1063 49.4057L82.1019 49.3737L82.1018 49.3735L82.0982 49.3414L82.098 49.3413L82.0952 49.3088H82.0951L82.0931 49.2761L82.093 49.276L82.0918 49.2431L82.0917 49.243L82.0914 49.2099L82.0913 49.2098V40.1848C82.0913 39.4757 82.6719 38.8955 83.3814 38.8955C84.091 38.8955 84.6717 39.4757 84.6717 40.1848V47.9204L84.6727 47.9214Z" fill="#03A868"/>
<path fill-rule="evenodd" clip-rule="evenodd" d="M124.022 43.4092C124.732 43.4092 125.312 43.9894 125.312 44.6984V49.211C125.312 49.92 124.732 50.5002 124.022 50.5002C123.313 50.5002 122.732 49.92 122.732 49.211V44.6984C122.732 43.9894 123.313 43.4092 124.022 43.4092Z" fill="#BE1000"/>
<path fill-rule="evenodd" clip-rule="evenodd" d="M124.022 38.8965C124.735 38.8965 125.312 39.4737 125.312 40.1858C125.312 40.8978 124.735 41.475 124.022 41.475C123.31 41.475 122.732 40.8978 122.732 40.1858C122.732 39.4737 123.31 38.8965 124.022 38.8965Z" fill="#BE1000"/>
<path fill-rule="evenodd" clip-rule="evenodd" d="M95.6396 40.1859V40.1858C95.6396 39.4767 96.2202 38.8965 96.9298 38.8965H105.961V38.8966L105.994 38.8969V38.897L106.027 38.8982V38.8983C106.049 38.8994 106.071 38.901 106.092 38.9032V38.9033L106.125 38.9069V38.9071L106.157 38.9114V38.9116L106.189 38.9167V38.9169L106.22 38.9228V38.9229C106.241 38.9272 106.262 38.932 106.283 38.9372V38.9374L106.313 38.9456V38.9458C106.334 38.9516 106.354 38.9578 106.374 38.9646V38.9647C106.404 38.9749 106.433 38.986 106.462 38.9983V38.9984L106.491 39.0109V39.0111L106.519 39.0242V39.0243L106.547 39.0381V39.0383L106.575 39.0528V39.053L106.602 39.0681V39.0682C106.62 39.0785 106.638 39.0892 106.655 39.1005V39.1006L106.681 39.1176V39.1177L106.707 39.1353V39.1354L106.732 39.1536V39.1537L106.757 39.1726V39.1727L106.781 39.1921V39.1922L106.805 39.2121V39.2122L106.828 39.2327V39.2328L106.851 39.2539V39.254L106.873 39.2754V39.2755L106.894 39.2976V39.2977L106.916 39.3203V39.3204L106.936 39.3435V39.3437L106.956 39.3673L106.956 39.3674L106.976 39.3914L106.976 39.3915L106.995 39.416V39.4162L107.013 39.4411V39.4412L107.031 39.4666L107.031 39.4667L107.048 39.4925L107.048 39.4927L107.064 39.519L107.064 39.5191L107.08 39.5458L107.08 39.546L107.096 39.5731V39.5732L107.11 39.6007L107.11 39.6008L107.124 39.6287L107.124 39.6288L107.137 39.6569L107.138 39.657L107.15 39.6857L107.15 39.6858L107.162 39.7148V39.715L107.173 39.7443L107.173 39.7444L107.184 39.7741L107.184 39.7742L107.194 39.8041V39.8042L107.203 39.8344L107.203 39.8346L107.211 39.8651L107.211 39.8653L107.219 39.8962L107.219 39.8964L107.226 39.9275L107.226 39.9276L107.232 39.9591L107.232 39.9592L107.237 39.9908L107.237 39.9909L107.241 40.0229L107.242 40.0231L107.245 40.0552L107.245 40.0553L107.248 40.0878L107.248 40.088L107.25 40.1205L107.25 40.1206L107.252 40.1535L107.252 40.1536L107.252 40.1867L107.252 40.1868V44.6993H107.252L107.252 44.7325H107.252L107.25 44.7655H107.25L107.248 44.7981H107.248L107.245 44.8308H107.245L107.242 44.863H107.241L107.237 44.8951H107.237L107.232 44.9269H107.232L107.226 44.9585H107.226L107.219 44.9897H107.219L107.211 45.0208H107.211L107.203 45.0515H107.203L107.194 45.0818L107.184 45.1119H107.184L107.173 45.1417H107.173L107.162 45.1711L107.15 45.2003H107.15L107.138 45.229H107.137L107.124 45.2573H107.124L107.11 45.2853H107.11L107.096 45.3129L107.08 45.3401H107.08L107.064 45.367H107.064L107.048 45.3934H107.048L107.031 45.4193H107.031L107.013 45.4449L106.995 45.4699L106.976 45.4946H106.976L106.956 45.5187H106.956L106.936 45.5424L106.916 45.5657L106.894 45.5884L106.873 45.6106L106.851 45.6321L106.828 45.6533L106.805 45.6739L106.781 45.6939L106.757 45.7134L106.732 45.7323L106.707 45.7507L106.681 45.7683L106.655 45.7855L106.629 45.802H106.629L106.602 45.8179L106.575 45.8331L106.547 45.8478L106.519 45.8617L106.491 45.875L106.462 45.8877L106.433 45.8996H106.433L106.404 45.9109H106.404L106.374 45.9214L106.344 45.9312H106.344L106.313 45.9403L106.283 45.9487L106.252 45.9563H106.251L106.22 45.9632L106.189 45.9692L106.157 45.9745L106.125 45.979L106.092 45.9828L106.06 45.9857H106.06L106.027 45.9878L105.994 45.9891L105.961 45.9895H98.22V49.2127C98.22 49.9218 97.6393 50.502 96.9298 50.502C96.2202 50.502 95.6396 49.9218 95.6396 49.2127V44.7002L95.6398 44.7001L95.64 44.667L95.6402 44.6669L95.6413 44.634L95.6415 44.6339L95.6434 44.6014L95.6435 44.6012L95.6464 44.5687L95.6465 44.5686L95.6501 44.5365L95.6502 44.5363L95.6546 44.5044L95.6548 44.5042L95.6599 44.4726L95.66 44.4725L95.666 44.441L95.6661 44.4409L95.6728 44.4098L95.673 44.4097L95.6804 44.3787L95.6806 44.3786L95.6888 44.348L95.689 44.3479L95.698 44.3177L95.6981 44.3175L95.7078 44.2876L95.7079 44.2875L95.7183 44.2578L95.7184 44.2577L95.7296 44.2284L95.7298 44.2283L95.7415 44.1992L95.7416 44.1991L95.7542 44.1705L95.7543 44.1703L95.7675 44.1422L95.7676 44.1421L95.7814 44.1142L95.7815 44.1141L95.7961 44.0866L95.7962 44.0865L95.8114 44.0594L95.8115 44.0592L95.8272 44.0325L95.8274 44.0324L95.8438 44.0061L95.8439 44.006L95.8609 43.9802L95.8611 43.98L95.8786 43.9546L95.8787 43.9545L95.897 43.9296L95.8971 43.9295L95.9159 43.9049L95.9161 43.9048L95.9354 43.8808L95.9356 43.8807L95.9554 43.8571L95.9556 43.8569L95.9761 43.8339L95.9762 43.8337L95.9973 43.8111L95.9974 43.811L96.019 43.789L96.0191 43.7888L96.041 43.7674L96.0412 43.7673L96.0638 43.7463L96.0639 43.7461L96.087 43.7256L96.0871 43.7255L96.1107 43.7056L96.1109 43.7055L96.1349 43.6861L96.135 43.686L96.1595 43.6672L96.1597 43.667L96.1846 43.6488L96.1847 43.6487L96.2102 43.6312L96.2103 43.631L96.2361 43.614L96.2362 43.6139L96.2626 43.5975L96.2627 43.5974L96.2894 43.5816L96.2896 43.5815L96.3167 43.5664L96.3168 43.5663L96.3443 43.5517L96.3444 43.5516L96.3723 43.5378L96.3724 43.5376L96.4006 43.5245L96.4007 43.5243L96.4294 43.5118L96.4295 43.5117L96.4586 43.5L96.4587 43.4998L96.488 43.4886L96.4881 43.4885L96.5178 43.4781L96.5179 43.478L96.5479 43.4683L96.548 43.4682L96.5782 43.4592L96.5784 43.4591L96.609 43.4508L96.6091 43.4507L96.6401 43.4432L96.6402 43.4431L96.6713 43.4363L96.6714 43.4362L96.7029 43.4303L96.7031 43.4302L96.7347 43.425L96.7348 43.4249L96.7669 43.4205L96.767 43.4203L96.7991 43.4167L96.7993 43.4166L96.8318 43.4138L96.8319 43.4136L96.8645 43.4117L96.8646 43.4116L96.8975 43.4104L96.8976 43.4103L96.9307 43.41L96.9308 43.4099H104.672V41.4761H96.9308C96.2213 41.4761 95.6407 40.8959 95.6407 40.1868L95.6396 40.1859Z" fill="#03A868"/>
</svg>
