<svg width="36" height="36" viewBox="0 0 36 36" fill="none" xmlns="http://www.w3.org/2000/svg">
<path fill-rule="evenodd" clip-rule="evenodd" d="M27.5922 22.3842C26.2224 22.064 25.1622 21.7903 24.3468 21.3646C23.5278 20.9371 22.9572 20.4971 22.5666 20.1268C22.2768 19.8531 22.0662 19.5973 21.9114 19.3773C21.7566 19.1537 21.6594 18.9695 21.6 18.8461L21.5496 18.7423L21.636 18.6654C21.7026 18.6028 21.7692 18.5402 21.8322 18.4776C21.8934 18.415 21.951 18.3524 22.0068 18.2897C22.7826 17.4222 23.2416 16.3346 23.5116 15.2685C24.0192 13.2526 23.8464 11.3172 23.8212 11.065L23.8194 11.056C23.7564 9.76814 23.4648 8.76644 23.0616 7.98834C22.536 6.97233 21.8196 6.33732 21.1824 5.94558C20.5452 5.55206 19.8864 5.33383 19.323 5.21577C18.7596 5.09593 18.288 5.07446 18.0252 5.07446H17.7624C17.5014 5.07446 17.0316 5.09593 16.4664 5.21577C15.903 5.33383 15.2424 5.55206 14.6052 5.94558C13.9662 6.33732 13.2498 6.97412 12.7224 7.99013C12.3192 8.76823 12.0276 9.76993 11.9682 11.056L11.9664 11.065C11.9466 11.2617 11.8404 12.4423 12.0222 13.8948C12.2004 15.3365 12.6648 17.0412 13.779 18.2897L13.7808 18.2915C13.869 18.3917 13.9608 18.4883 14.058 18.5795C14.1552 18.6725 14.256 18.7602 14.3568 18.8425L14.4432 18.9104L14.4072 19.0124C14.2902 19.3469 13.8744 20.1179 12.4128 20.9621C11.5254 21.4737 10.2456 21.878 8.40239 22.377C8.31059 22.4003 8.23139 22.4468 8.16839 22.5076C8.10359 22.572 8.05499 22.6525 8.02979 22.7437C8.00279 22.8314 8.00099 22.9244 8.02259 23.0103C8.04239 23.0979 8.08559 23.1802 8.14679 23.2482L8.15219 23.2535C8.78039 23.9118 9.46259 24.638 10.197 25.1514C10.9314 25.6666 11.7198 26.2479 12.5514 26.611C13.4136 26.9867 14.3046 27.2693 15.2154 27.4589C16.1244 27.6467 17.0568 27.7433 18.0018 27.7433C18.954 27.7433 19.8882 27.6485 20.799 27.4589C21.7062 27.2711 22.5918 26.9867 23.4486 26.611C24.2802 26.2479 25.065 25.6666 25.8012 25.1532C26.5338 24.6416 27.2178 23.9154 27.846 23.2607C27.9126 23.1927 27.9576 23.1086 27.9774 23.0228C27.999 22.9316 27.9972 22.835 27.9702 22.7437V22.7402C27.9468 22.6525 27.8982 22.5756 27.8334 22.5148C27.7668 22.4522 27.6822 22.4057 27.5922 22.3842ZM13.0266 11.1652C13.0266 11.1473 13.0266 11.1258 13.0338 11.099C13.1166 9.37104 13.6602 8.24055 14.3586 7.50001C15.5196 6.27114 17.109 6.13161 17.7678 6.13161H18.0252C18.6822 6.13161 20.268 6.27293 21.4308 7.5018C22.1346 8.24413 22.6782 9.38177 22.761 11.1204V11.1222L22.7646 11.1473C22.77 11.1741 22.9608 13.0272 22.5108 14.909C22.2804 15.866 21.8844 16.8337 21.2148 17.5832C20.8098 18.0357 20.3364 18.3738 19.7874 18.601C19.2438 18.8264 18.6264 18.9426 17.9298 18.9516H17.928H17.8596C17.1612 18.9444 16.5438 18.83 16.0002 18.6046C15.453 18.3774 14.9796 18.0393 14.5746 17.5886C13.905 16.8409 13.5126 15.8731 13.284 14.9162C12.8556 13.1256 13.0068 11.3566 13.0266 11.1652ZM18.009 26.6861C16.4754 26.6861 14.9868 26.416 13.5972 25.8973C12.204 25.3768 10.908 24.325 9.76679 23.3287L9.55979 23.1498L9.82079 23.0657C11.7108 22.4593 12.9798 21.9299 13.8276 21.2966C14.6646 20.6706 15.0912 20.0821 15.3054 19.6259L15.3702 19.49L15.5088 19.549C15.8472 19.6957 16.209 19.8084 16.5906 19.8853C16.974 19.964 17.3772 20.0069 17.802 20.0141H17.9856C18.4626 20.0069 18.9144 19.9533 19.3392 19.8567C19.7622 19.7601 20.16 19.6188 20.529 19.4328L20.664 19.3648L20.736 19.4989C21.024 20.032 21.6162 20.8566 22.7898 21.6687C23.6052 22.2322 24.6996 22.6489 26.1594 23.0997L26.4258 23.182L26.2152 23.3644C25.0776 24.3482 23.787 25.3911 22.3974 25.9062C21.0132 26.4178 19.5336 26.6861 18.009 26.6861Z" fill="#808080"/>
</svg>
