<svg width="24" height="24" viewBox="0 0 24 24" fill="none" xmlns="http://www.w3.org/2000/svg">
<g clip-path="url(#clip0)">
<path d="M8.55664 9.60938C8.55664 9.08594 8.72656 8.66211 9.06641 8.33789C9.40625 8.00977 9.85156 7.8457 10.4023 7.8457C10.9609 7.8457 11.4102 8.00781 11.75 8.33203C12.0898 8.65234 12.2598 9.08789 12.2598 9.63867V10.0605C12.2598 10.5879 12.0898 11.0117 11.75 11.332C11.4102 11.6523 10.9648 11.8125 10.4141 11.8125C9.85938 11.8125 9.41016 11.6523 9.06641 11.332C8.72656 11.0078 8.55664 10.5723 8.55664 10.0254V9.60938ZM9.68164 10.0605C9.68164 10.2949 9.74805 10.4844 9.88086 10.6289C10.0176 10.7695 10.1953 10.8398 10.4141 10.8398C10.6328 10.8398 10.8066 10.7676 10.9355 10.623C11.0645 10.4785 11.1289 10.2852 11.1289 10.043V9.60938C11.1289 9.375 11.0645 9.18555 10.9355 9.04102C10.8066 8.89648 10.6289 8.82422 10.4023 8.82422C10.1875 8.82422 10.0137 8.89648 9.88086 9.04102C9.74805 9.18164 9.68164 9.37891 9.68164 9.63281V10.0605ZM12.6348 14.4082C12.6348 13.8809 12.8066 13.457 13.1504 13.1367C13.4941 12.8125 13.9395 12.6504 14.4863 12.6504C15.041 12.6504 15.4883 12.8105 15.8281 13.1309C16.1719 13.4473 16.3438 13.8848 16.3438 14.4434V14.8652C16.3438 15.3887 16.1758 15.8125 15.8398 16.1367C15.5039 16.457 15.0566 16.6172 14.498 16.6172C13.9355 16.6172 13.4844 16.4551 13.1445 16.1309C12.8047 15.8066 12.6348 15.377 12.6348 14.8418V14.4082ZM13.7598 14.8652C13.7598 15.0801 13.8301 15.2637 13.9707 15.416C14.1113 15.5684 14.2871 15.6445 14.498 15.6445C14.9746 15.6445 15.2129 15.3809 15.2129 14.8535V14.4082C15.2129 14.1738 15.1465 13.9863 15.0137 13.8457C14.8809 13.7012 14.7051 13.6289 14.4863 13.6289C14.2676 13.6289 14.0918 13.7012 13.959 13.8457C13.8262 13.9863 13.7598 14.1797 13.7598 14.4258V14.8652ZM10.748 15.8613L9.92188 15.416L14.0879 8.74805L14.9141 9.19336L10.748 15.8613Z" fill="#777777"/>
<rect x="3.8252" y="3.82495" width="16.75" height="16.75" rx="8.375" stroke="#777777" stroke-width="1.25"/>
</g>
<defs>
<clipPath id="clip0">
<rect width="24" height="24" fill="white"/>
</clipPath>
</defs>
</svg>
