<svg width="24" height="24" viewBox="0 0 24 24" fill="none" xmlns="http://www.w3.org/2000/svg">
<path fill-rule="evenodd" clip-rule="evenodd" d="M12 21.2282C16.3831 18.3391 19.5 13.9865 19.5 10C19.5 5.85786 16.1421 2.5 12 2.5C7.85786 2.5 4.5 5.85786 4.5 10C4.5 13.9865 7.61687 18.3391 12 21.2282ZM12 23C17 20 21 14.9706 21 10C21 5.02944 16.9706 1 12 1C7.02944 1 3 5.02944 3 10C3 14.9706 7 20 12 23Z" fill="#777777"/>
<path fill-rule="evenodd" clip-rule="evenodd" d="M12 14C14.2091 14 16 12.2091 16 10C16 7.79086 14.2091 6 12 6C9.79086 6 8 7.79086 8 10C8 12.2091 9.79086 14 12 14ZM12 15.5C15.0376 15.5 17.5 13.0376 17.5 10C17.5 6.96243 15.0376 4.5 12 4.5C8.96243 4.5 6.5 6.96243 6.5 10C6.5 13.0376 8.96243 15.5 12 15.5Z" fill="#777777"/>
</svg>
