<svg width="24" height="24" viewBox="0 0 24 24" fill="none" xmlns="http://www.w3.org/2000/svg">
<path fill-rule="evenodd" clip-rule="evenodd" d="M6 4.64802C6 4.16787 6.50529 3.85558 6.93475 4.07031L9.38197 5.29392H6.6459C6.28918 5.29392 6 5.00474 6 4.64802ZM5.13157 5.29392C5.04688 5.09561 5 4.87729 5 4.64802C5 3.42449 6.28761 2.62871 7.38197 3.17589L11.618 5.29392H11.882L16.118 3.17589C17.2124 2.62871 18.5 3.42449 18.5 4.64802C18.5 4.87729 18.4531 5.09561 18.3684 5.29392H20C21.1046 5.29392 22 6.18935 22 7.29392V9.29392C22 10.0342 21.5978 10.6805 21 11.0264V11.2939V19.2939C21 20.3985 20.1046 21.2939 19 21.2939H14V21.2939H13H11H10V21.2939H5C3.89543 21.2939 3 20.3985 3 19.2939V11.2939V11.0264C2.4022 10.6805 2 10.0342 2 9.29392V7.29392C2 6.18935 2.89543 5.29392 4 5.29392H5.13157ZM13 20.2939H11V6.29395H13V20.2939ZM14 20.2939H19C19.5523 20.2939 20 19.8462 20 19.2939V11.2939H14V20.2939ZM14 10.2939H20C20.5523 10.2939 21 9.8462 21 9.29392V7.29392C21 6.74163 20.5523 6.29392 20 6.29392H16.8541H14V6.29395V10.2939ZM10 6.29392H6.6459H4C3.44772 6.29392 3 6.74163 3 7.29392V9.29392C3 9.8462 3.44772 10.2939 4 10.2939H10V6.29395V6.29392ZM10 11.2939V20.2939H5C4.44772 20.2939 4 19.8462 4 19.2939L4 11.2939H10ZM16.8541 5.29392H14.118L16.5652 4.07031C16.9947 3.85558 17.5 4.16787 17.5 4.64802C17.5 5.00474 17.2108 5.29392 16.8541 5.29392Z" fill="url(#paint0_linear)"/>
<defs>
<linearGradient id="paint0_linear" x1="2" y1="12.147" x2="22" y2="12.147" gradientUnits="userSpaceOnUse">
<stop stop-color="#03A868"/>
<stop offset="1" stop-color="#00783D"/>
</linearGradient>
</defs>
</svg>
