<svg width="18" height="16" viewBox="0 0 18 16" fill="none" xmlns="http://www.w3.org/2000/svg">
<path d="M1.35311 6.49195L1.32463 6.46347C1.24674 6.37185 1.20013 6.25281 1.20013 6.12434V5.05634C1.20013 4.9134 1.25787 4.78397 1.35311 4.68873C1.44904 4.59281 1.58109 4.53334 1.72073 4.53334H7.45653V6.64734H1.72073C1.58109 6.64734 1.44904 6.58787 1.35311 6.49195ZM7.10374 3.03763L7.10409 3.03785C7.39817 3.22469 7.66885 3.41006 7.88581 3.57534H7.58153H4.58875C4.41194 3.5469 4.25182 3.46044 4.12715 3.33799C3.97508 3.18573 3.88093 2.97267 3.88093 2.73794C3.88093 2.50311 3.97515 2.29021 4.12931 2.13813L4.12931 2.13813L4.12991 2.13753C4.28276 1.98468 4.49619 1.88854 4.73033 1.88854C4.79347 1.88854 4.91139 1.91593 5.08098 1.97731C5.24578 2.03695 5.44588 2.12354 5.66693 2.23014C6.10884 2.44322 6.62768 2.73294 7.10374 3.03763ZM13.8705 3.33775L13.8699 3.33835C13.748 3.46025 13.5882 3.54685 13.4111 3.57534H10.4183H10.114C10.331 3.41006 10.6017 3.22469 10.8958 3.03785L10.8961 3.03763C11.3722 2.73294 11.891 2.44322 12.3329 2.23014C12.554 2.12354 12.7541 2.03695 12.9189 1.97731C13.0885 1.91593 13.2064 1.88854 13.2695 1.88854C13.5037 1.88854 13.7171 1.98468 13.8699 2.13753L13.8705 2.13813C14.0247 2.29021 14.1189 2.50311 14.1189 2.73794C14.1189 2.97278 14.0247 3.18568 13.8705 3.33775ZM16.7997 6.12434C16.7997 6.25281 16.7531 6.37186 16.6752 6.46348L16.6467 6.49195C16.5508 6.58787 16.4188 6.64734 16.2791 6.64734H10.5433V4.53334H16.2791C16.4188 4.53334 16.5508 4.59281 16.6467 4.68873C16.742 4.78397 16.7997 4.9134 16.7997 5.05634V6.12434ZM0.242126 6.12434C0.242126 6.79959 0.698583 7.36987 1.31493 7.54671V14.2771C1.31493 15.0926 1.98049 15.7581 2.79593 15.7581H7.58153H10.4183H15.2039C16.0194 15.7581 16.6849 15.0926 16.6849 14.2771V7.54671C17.3013 7.36987 17.7577 6.79959 17.7577 6.12434V5.05634C17.7577 4.24105 17.0923 3.57534 16.2791 3.57534H14.8719C15.0036 3.32442 15.0769 3.03972 15.0769 2.73794C15.0769 2.23804 14.8757 1.78657 14.5483 1.45915C14.2209 1.13174 13.7694 0.930542 13.2695 0.930542C13.1327 0.930542 12.9484 0.974062 12.7424 1.04229C12.5329 1.11163 12.2892 1.21052 12.0289 1.3298C11.5081 1.56836 10.9138 1.89153 10.3823 2.23175C9.82482 2.58614 9.31409 2.98007 8.99993 3.35032C8.68576 2.98007 8.17502 2.58613 7.61752 2.23174C7.08598 1.89152 6.49175 1.56836 5.97099 1.3298C5.71061 1.21052 5.46693 1.11163 5.25749 1.04229C5.05141 0.974062 4.8672 0.930542 4.73033 0.930542C4.23042 0.930542 3.77895 1.13174 3.45154 1.45915C3.12412 1.78657 2.92293 2.23804 2.92293 2.73794C2.92293 3.03972 2.99626 3.32442 3.12796 3.57534H1.72073C0.907547 3.57534 0.242126 4.24105 0.242126 5.05634V6.12434ZM2.27533 7.60534H7.45653V14.8001H2.79593C2.65414 14.8001 2.52442 14.7409 2.42831 14.6448C2.33307 14.5495 2.27533 14.4201 2.27533 14.2771V7.60534ZM15.2039 14.8001H10.5433V7.60534H15.7245V14.2771C15.7245 14.4201 15.6668 14.5495 15.5715 14.6448C15.4754 14.7409 15.3457 14.8001 15.2039 14.8001ZM9.58293 14.8001H8.41693V4.53334H9.58293V14.8001Z" fill="#777777" stroke="#777777" stroke-width="0.25"/>
</svg>
