<svg width="18" height="16" viewBox="0 0 18 16" fill="none" xmlns="http://www.w3.org/2000/svg">
<path d="M13.3739 0.54079L13.3738 0.540614C13.1715 0.234987 12.7568 0.149037 12.4505 0.351765L8.57362 2.9086H1.72073C0.907619 2.9086 0.242126 3.57424 0.242126 4.3884V13.6116C0.242126 14.4258 0.907619 15.0914 1.72073 15.0914H15.5699C16.3842 15.0914 17.0497 14.4258 17.0497 13.6116V11.3903C17.4734 11.1298 17.7577 10.6614 17.7577 10.1292V7.8708C17.7577 7.33739 17.4734 6.87007 17.0497 6.60967V4.3884C17.0497 3.57417 16.3842 2.9086 15.5699 2.9086H14.9352L13.3739 0.54079ZM15.9652 4.04846C16.0435 4.1404 16.0905 4.25934 16.0905 4.3884V6.391H11.7995C10.9853 6.391 10.3197 7.05657 10.3197 7.8708V10.1292C10.3197 10.9434 10.9853 11.609 11.7995 11.609H16.0905V13.6116C16.0905 13.7407 16.0435 13.8596 15.9652 13.9515L15.9375 13.9792C15.8424 14.0744 15.7118 14.1322 15.5699 14.1322H1.72073C1.57911 14.1322 1.44965 14.0745 1.35431 13.9792L1.31933 13.9442C1.24475 13.8533 1.20013 13.7373 1.20013 13.6116V4.3884C1.20013 4.26274 1.24475 4.14666 1.31934 4.05577L1.35431 4.02079C1.44965 3.92546 1.57911 3.8678 1.72073 3.8678H15.5699C15.7118 3.8678 15.8424 3.92564 15.9375 4.02079L15.9652 4.04846ZM13.0935 9.16481L13.1819 9.2532L13.0935 9.16481C13.0514 9.20692 12.9941 9.2326 12.9287 9.2326C12.8643 9.2326 12.8059 9.20676 12.7639 9.16481C12.722 9.12287 12.6961 9.06443 12.6961 9C12.6961 8.93558 12.722 8.87714 12.7639 8.83519C12.8059 8.79325 12.8643 8.7674 12.9287 8.7674C12.9941 8.7674 13.0514 8.79308 13.0935 8.83519C13.1363 8.8779 13.1625 8.93662 13.1625 9C13.1625 9.06338 13.1363 9.1221 13.0935 9.16481ZM16.6455 10.4968L16.6151 10.5272C16.5255 10.6032 16.4076 10.6498 16.2791 10.6498H11.7995C11.6577 10.6498 11.5271 10.592 11.4319 10.4968C11.3368 10.4017 11.2789 10.2711 11.2789 10.1292V7.8708C11.2789 7.72894 11.3368 7.59834 11.4319 7.50319C11.5271 7.40804 11.6577 7.3502 11.7995 7.3502H16.2791C16.4076 7.3502 16.5255 7.39678 16.6151 7.47278L16.6455 7.50319C16.7411 7.59877 16.7997 7.72952 16.7997 7.8708V10.1292C16.7997 10.2705 16.7411 10.4012 16.6455 10.4968ZM14.1205 9C14.1205 8.34177 13.587 7.8082 12.9287 7.8082C12.2705 7.8082 11.7369 8.34177 11.7369 9C11.7369 9.65824 12.2705 10.1918 12.9287 10.1918C13.587 10.1918 14.1205 9.65824 14.1205 9ZM10.3093 2.9086L12.736 1.30838L13.791 2.9086H10.3093Z" fill="#777777" stroke="#777777" stroke-width="0.25"/>
</svg>
