<svg width="24" height="24" viewBox="0 0 24 24" fill="none" xmlns="http://www.w3.org/2000/svg">
<path d="M15.0462 14.6199C15.1663 14.8125 15.335 15.0398 15.5667 15.2828C15.8756 15.608 16.3303 15.9962 16.9794 16.375L16.992 16.3534C16.992 16.3534 16.992 16.3534 16.992 16.3534M15.0462 14.6199L18.1348 19.7146M15.0462 14.6199C14.9204 14.4211 14.8432 14.2601 14.7974 14.1496M15.0462 14.6199L14.7974 14.1496M16.992 16.3534C17.6349 16.727 18.4751 16.9662 19.5624 17.2473C19.6418 17.2675 19.7116 17.3112 19.7687 17.371L19.7692 17.3715L19.7692 17.3715C19.8187 17.4262 19.8603 17.4941 19.8794 17.5752L19.8867 17.5833L19.8835 17.5841C19.9044 17.6666 19.9075 17.7557 19.8895 17.8416L19.8894 17.842C19.8715 17.9213 19.8354 17.9978 19.778 18.0613C19.7576 18.085 19.7372 18.1087 19.7167 18.1325C19.2363 18.6906 18.7119 19.2997 18.1501 19.7344M16.992 16.3534C16.3449 15.9758 15.8921 15.589 15.5848 15.2656L15.5848 15.2656C15.3543 15.0238 15.1866 14.7978 15.0674 14.6067L15.0673 14.6066C14.9423 14.409 14.8657 14.2493 14.8205 14.1401L14.8203 14.1396L14.7872 14.064M16.992 16.3534L14.7872 14.064M18.1501 19.7344L18.1348 19.7146M18.1501 19.7344C18.1501 19.7344 18.1502 19.7344 18.1502 19.7344L18.1348 19.7146M18.1501 19.7344C18.0936 19.7785 18.0366 19.8231 17.9791 19.8681C17.4452 20.2861 16.8745 20.733 16.2754 21.025L16.2645 21.0025C16.861 20.7118 17.4296 20.2666 17.9639 19.8483C18.0212 19.8034 18.0782 19.7587 18.1348 19.7146M14.7872 14.064L14.8434 14.0098L14.8436 14.0096C14.8985 13.9553 14.9505 13.8979 14.9994 13.8407L14.9804 13.8245M14.7872 14.064L16.5869 7.27778H16.5869L16.5869 7.27665C16.5353 6.13747 16.303 5.25036 15.9811 4.56205M14.9804 13.8245C15.029 13.7708 15.0777 13.7172 15.1206 13.6604M14.9804 13.8245C14.9318 13.8813 14.8803 13.9381 14.826 13.9918M14.9804 13.8245L14.826 13.9918M15.1206 13.6604L15.14 13.676C15.1401 13.6759 15.1402 13.6758 15.1403 13.6757C15.1403 13.6756 15.1404 13.6755 15.1405 13.6754L15.1206 13.6604ZM15.1206 13.6604C15.7354 12.8965 16.1015 11.9337 16.316 10.9931C16.7192 9.21591 16.5819 7.50821 16.5619 7.28409M16.5619 7.28409H16.5869V7.28298C16.5869 7.2826 16.5868 7.28223 16.5868 7.28187L16.5619 7.28409ZM16.5619 7.28409V7.27778C16.5104 6.14141 16.2788 5.25758 15.9585 4.5726M15.9585 4.5726L15.9811 4.56205M15.9585 4.5726L15.9811 4.56201C15.9811 4.56202 15.9811 4.56203 15.9811 4.56205M15.9585 4.5726C15.541 3.67614 14.9718 3.11427 14.4657 2.76704C13.9595 2.41982 13.4361 2.23043 12.9871 2.12311C12.541 2.01894 12.1663 2 11.9576 2H11.7488C11.54 2 11.1683 2.01894 10.7193 2.12311C10.2703 2.23043 9.74693 2.41982 9.24074 2.76704C8.73455 3.11427 8.16258 3.67614 7.74504 4.5726M15.9811 4.56205L7.7224 4.56201M7.74504 4.5726L7.7224 4.56201M7.74504 4.5726L7.72238 4.56205C7.72239 4.56203 7.72239 4.56202 7.7224 4.56201M7.74504 4.5726C7.42474 5.25758 7.19309 6.14141 7.14448 7.27778V7.28409M7.7224 4.56201C7.40053 5.25034 7.16824 6.13748 7.1195 7.27671L7.11948 7.27671V7.27778V7.28306M7.14448 7.28409L7.11956 7.28204C7.11953 7.28238 7.11951 7.28272 7.11948 7.28306M7.14448 7.28409C7.13018 7.4577 7.04438 8.49937 7.18738 9.78093L7.11948 7.28306M7.14448 7.28409H7.11948V7.28306M14.7974 14.1496L14.7574 14.0581L14.826 13.9918M14.7974 14.1496L14.826 13.9918M8.01027 7.37457L8.01018 7.37456C7.99594 7.54436 7.87609 9.10072 8.21562 10.6785L8.21562 10.6785C8.39536 11.5192 8.70878 12.3704 9.23443 13.0259C9.55543 13.421 9.92708 13.7183 10.3579 13.9154L10.3579 13.9154C10.786 14.1126 11.2743 14.213 11.8262 14.2193C11.8263 14.2193 11.8263 14.2193 11.8263 14.2193L11.8804 14.2193H11.883C12.432 14.2099 12.9175 14.1094 13.3485 13.9122C13.7793 13.7151 14.1509 13.4178 14.4719 13.0197L14.4914 13.0354L14.4719 13.0197C15.0004 12.3642 15.3139 11.513 15.4965 10.6721C15.8516 9.02288 15.7032 7.39793 15.6992 7.35992L15.6975 7.34895L15.6937 7.34467L15.6933 7.33562C15.6305 5.80597 15.1973 4.80788 14.644 4.15638L8.01027 7.37457ZM8.01027 7.37457V7.37247M8.01027 7.37457V7.37247M8.01027 7.37247C8.01027 7.35674 8.01035 7.34064 8.01519 7.32192L8.01573 7.32206M8.01027 7.37247L8.01573 7.32206M8.01573 7.32206L8.01596 7.31678M8.01573 7.32206L8.01596 7.31678M8.01596 7.31678C8.08441 5.79646 8.51197 4.80469 9.06528 4.15638L9.06531 4.15635M8.01596 7.31678L9.06531 4.15635M9.06531 4.15635C9.97913 3.08193 11.2312 2.95934 11.7517 2.95934M9.06531 4.15635L11.7517 2.95934M11.7517 2.95934H11.9576M11.7517 2.95934H11.9576M11.9576 2.95934C12.4752 2.95934 13.7272 3.08192 14.6439 4.15634L11.9576 2.95934ZM9.72125 21.775C9.72127 21.775 9.72128 21.775 9.7213 21.775L9.72691 21.7506L9.72125 21.775ZM8.19118 10.6837C7.85086 9.10227 7.97097 7.54293 7.98527 7.37247L8.19118 10.6837ZM8.44956 20.3481L8.44954 20.3481C7.34775 19.8925 6.32131 18.9677 5.41454 18.0869L5.41451 18.0868L5.28052 17.9571L5.44833 17.8979L5.44843 17.8979C6.95001 17.3612 7.9604 16.896 8.63901 16.3311C9.30522 15.7764 9.64816 15.2556 9.81861 14.8474L9.8597 14.7516L9.94772 14.794C10.2184 14.9243 10.5061 15.0227 10.8109 15.0925L10.811 15.0926C11.1187 15.1624 11.4408 15.2005 11.7798 15.2068H11.7803L11.9261 15.2068L11.9265 15.2068C12.3087 15.2005 12.6681 15.1529 13.0075 15.0672C13.3471 14.9814 13.6638 14.8543 13.9602 14.6891L13.9604 14.689L14.0428 14.6423L14.0885 14.738L14.0886 14.7382C14.3189 15.2117 14.7931 15.9409 15.7288 16.66C16.3786 17.1614 17.2514 17.5286 18.4098 17.9264L18.4099 17.9265L18.5853 17.9858L18.4464 18.1183L18.4464 18.1183C17.5424 18.9866 16.5188 19.9051 15.4199 20.3576C14.3247 20.8077 13.1526 21.0438 11.9433 21.0438C10.7283 21.0438 9.55045 20.8046 8.44956 20.3481Z" fill="url(#paint0_linear)" stroke="url(#paint1_linear)" stroke-width="0.05"/>
<defs>
<linearGradient id="paint0_linear" x1="4" y1="12" x2="19.8763" y2="12" gradientUnits="userSpaceOnUse">
<stop stop-color="#03A868"/>
<stop offset="1" stop-color="#00783D"/>
</linearGradient>
<linearGradient id="paint1_linear" x1="4" y1="12" x2="19.8763" y2="12" gradientUnits="userSpaceOnUse">
<stop stop-color="#03A868"/>
<stop offset="1" stop-color="#00783D"/>
</linearGradient>
</defs>
</svg>
