<svg width="20" height="20" viewBox="0 0 20 20" fill="none" xmlns="http://www.w3.org/2000/svg">
<path fill-rule="evenodd" clip-rule="evenodd" d="M14.5 8C14.5 11.5899 11.5899 14.5 8 14.5C4.41015 14.5 1.5 11.5899 1.5 8C1.5 4.41015 4.41015 1.5 8 1.5C11.5899 1.5 14.5 4.41015 14.5 8ZM13.1018 14.1624C11.7171 15.3101 9.9391 16 8 16C3.58172 16 0 12.4183 0 8C0 3.58172 3.58172 0 8 0C12.4183 0 16 3.58172 16 8C16 9.93904 15.3101 11.717 14.1625 13.1017L19.7795 18.7187C20.0724 19.0116 20.0724 19.4865 19.7795 19.7793C19.4866 20.0722 19.0117 20.0722 18.7188 19.7793L13.1018 14.1624Z" fill="#777777"/>
</svg>
