<svg width="24" height="24" viewBox="0 0 24 24" fill="none" xmlns="http://www.w3.org/2000/svg">
<path fill-rule="evenodd" clip-rule="evenodd" d="M20.5 6C20.5 7.38071 19.3807 8.5 18 8.5C16.6193 8.5 15.5 7.38071 15.5 6C15.5 4.61929 16.6193 3.5 18 3.5C19.3807 3.5 20.5 4.61929 20.5 6ZM22 6C22 8.20914 20.2091 10 18 10C16.733 10 15.6036 9.41093 14.8707 8.49172L9.87171 10.9912C9.95544 11.3135 10 11.6515 10 12C10 12.3484 9.95545 12.6864 9.87175 13.0087L14.8708 15.5082C15.6037 14.589 16.7331 14 18 14C20.2091 14 22 15.7909 22 18C22 20.2091 20.2091 22 18 22C15.7909 22 14 20.2091 14 18C14 17.5951 14.0602 17.2042 14.172 16.8359L9.22738 14.3635C8.49946 15.3558 7.32496 16 6 16C3.79086 16 2 14.2091 2 12C2 9.79086 3.79086 8 6 8C7.32491 8 8.49938 8.64416 9.22729 9.63637L14.172 7.16402C14.0602 6.79569 14 6.40487 14 6C14 3.79086 15.7909 2 18 2C20.2091 2 22 3.79086 22 6ZM6 14.5C7.38071 14.5 8.5 13.3807 8.5 12C8.5 10.6193 7.38071 9.5 6 9.5C4.61929 9.5 3.5 10.6193 3.5 12C3.5 13.3807 4.61929 14.5 6 14.5ZM18 20.5C19.3807 20.5 20.5 19.3807 20.5 18C20.5 16.6193 19.3807 15.5 18 15.5C16.6193 15.5 15.5 16.6193 15.5 18C15.5 19.3807 16.6193 20.5 18 20.5Z" fill="#777777"/>
</svg>
