<svg width="25" height="24" viewBox="0 0 25 24" fill="none" xmlns="http://www.w3.org/2000/svg">
<rect x="5.63501" y="6.16626" width="1.5" height="18" rx="0.75" transform="rotate(-45 5.63501 6.16626)" fill="#03A868"/>
<mask id="path-2-outside-1" maskUnits="userSpaceOnUse" x="2.86719" y="5.9624" width="19" height="12" fill="black">
<rect fill="white" x="2.86719" y="5.9624" width="19" height="12"/>
<path fill-rule="evenodd" clip-rule="evenodd" d="M20.8736 11.3304C20.8304 11.28 20.7848 11.2248 20.7344 11.1696C20.6888 11.1192 20.6408 11.0664 20.5904 11.0136C20.5448 10.9656 20.4992 10.9176 20.4536 10.872C20.4032 10.8216 20.3528 10.7688 20.3024 10.7184C20.024 10.4472 19.7432 10.1856 19.4552 9.936C19.1696 9.6864 18.8768 9.4488 18.5744 9.2256C18.2768 9.0024 17.972 8.7912 17.6576 8.592C17.3456 8.3952 17.0264 8.2104 16.6976 8.0424C16.4672 7.9224 16.2344 7.812 16.0064 7.7136C15.776 7.6128 15.548 7.524 15.32 7.4424C15.092 7.3632 14.8664 7.2936 14.6408 7.2336C14.4128 7.1736 14.1872 7.1232 13.964 7.0824C13.8344 7.0608 13.7096 7.0416 13.5896 7.0248C13.4624 7.0104 13.3376 6.996 13.2128 6.9888C13.0904 6.9792 12.9728 6.972 12.86 6.9672C12.7496 6.9624 12.6392 6.9624 12.5336 6.9624H12.5144H12.512H12.4904C12.38 6.9624 12.2672 6.9648 12.1496 6.9672C12.0344 6.972 11.9144 6.9768 11.7896 6.9864C11.6624 6.996 11.5352 7.008 11.408 7.0248C11.2856 7.0416 11.1584 7.0608 11.0312 7.0824C10.808 7.1256 10.58 7.176 10.352 7.236C10.124 7.2984 9.89599 7.368 9.67039 7.4472C9.44239 7.5264 9.21439 7.6176 8.98399 7.716C8.75599 7.8144 8.52559 7.9224 8.29519 8.0424C7.98079 8.2056 7.66879 8.3832 7.36159 8.5752C7.05199 8.7696 6.74719 8.9808 6.44479 9.2064C6.14479 9.4296 5.85199 9.6672 5.56159 9.9168C5.26879 10.1688 4.97839 10.4376 4.69279 10.7184C4.63999 10.7736 4.58719 10.8264 4.53439 10.8768C4.48399 10.9296 4.43599 10.98 4.38799 11.0328C4.33759 11.0832 4.29199 11.1336 4.24879 11.1816C4.20319 11.232 4.15999 11.2824 4.11919 11.3304C4.08079 11.3784 4.04479 11.4264 4.01359 11.4792C3.98239 11.5296 3.95599 11.5848 3.93439 11.6376C3.91279 11.6928 3.89839 11.748 3.88639 11.8032C3.87439 11.8584 3.86719 11.9136 3.86719 11.9664V12.0144C3.86719 12.0696 3.87439 12.1248 3.88639 12.18C3.89839 12.2352 3.91519 12.2904 3.93439 12.3456C3.95599 12.3984 3.98239 12.4512 4.01359 12.504C4.04479 12.5544 4.08079 12.6048 4.11919 12.6528C4.23439 12.7872 4.35919 12.9264 4.49359 13.0656C4.62799 13.2072 4.77199 13.3488 4.92559 13.4904C5.07679 13.6344 5.24239 13.7808 5.41759 13.9296C5.59039 14.0784 5.77519 14.232 5.97199 14.388C6.38479 14.7168 6.79519 15.0168 7.20319 15.2832C7.60879 15.552 8.01439 15.7896 8.41759 15.996C8.81839 16.2024 9.21679 16.3776 9.61519 16.524C10.0112 16.6704 10.4048 16.7856 10.7984 16.872C10.9352 16.9008 11.0768 16.9272 11.216 16.9464C11.3576 16.968 11.4992 16.9872 11.6384 16.9992C11.7776 17.0112 11.9192 17.0232 12.0632 17.028C12.2096 17.0352 12.3584 17.0376 12.512 17.0376C12.6608 17.0376 12.8072 17.0352 12.9464 17.028C13.088 17.0232 13.2272 17.0112 13.364 16.9992C13.5032 16.9872 13.6448 16.968 13.7864 16.9464C13.9256 16.9248 14.0624 16.9008 14.1968 16.872C14.5952 16.7856 14.9936 16.6704 15.392 16.524C15.7928 16.3776 16.1936 16.2024 16.5968 15.996C17 15.7896 17.408 15.552 17.816 15.2832C18.2216 15.0168 18.632 14.7168 19.0424 14.388C19.2368 14.2344 19.4192 14.0808 19.5896 13.932C19.7672 13.7808 19.9304 13.632 20.0816 13.488C20.2376 13.3416 20.3792 13.1976 20.5088 13.0608C20.6456 12.9168 20.768 12.78 20.8736 12.6528C20.96 12.5496 21.0248 12.4416 21.068 12.3288C21.1112 12.2184 21.1328 12.1008 21.1328 11.988C21.1328 11.8728 21.1112 11.76 21.068 11.6472C21.0248 11.5392 20.96 11.4312 20.8736 11.3304ZM20.3336 12.1992C20.228 12.3312 20.1104 12.4632 19.9832 12.5952C19.8584 12.7296 19.7216 12.8616 19.5776 12.9984C19.4336 13.1328 19.2776 13.272 19.112 13.4136C18.9488 13.5552 18.7736 13.6992 18.5936 13.8432C18.212 14.1456 17.8328 14.424 17.4536 14.676C17.0744 14.9256 16.6952 15.1512 16.3184 15.3456C15.9368 15.5424 15.5552 15.7128 15.176 15.8496C14.7992 15.9888 14.4248 16.0968 14.0504 16.1736C13.9112 16.2024 13.7744 16.2264 13.6424 16.248C13.5104 16.2672 13.3784 16.284 13.2488 16.296C13.1168 16.308 12.9896 16.3176 12.8696 16.3224C12.7448 16.3296 12.6248 16.332 12.512 16.332H12.4832C12.368 16.332 12.248 16.3296 12.1232 16.3224C11.9984 16.3176 11.8736 16.308 11.744 16.2936C11.6144 16.2816 11.4848 16.2648 11.3528 16.2456C11.2256 16.2264 11.0936 16.2024 10.964 16.1736C10.5944 16.0944 10.22 15.9864 9.84319 15.8496C9.46399 15.7128 9.08479 15.5448 8.70319 15.3504C8.32159 15.156 7.93999 14.9328 7.55599 14.6808C7.17439 14.4312 6.78799 14.1504 6.40159 13.8432C6.21919 13.6992 6.04639 13.5552 5.88319 13.4136C5.71999 13.2696 5.56639 13.1304 5.42239 12.9936C5.28079 12.8568 5.14639 12.7224 5.02159 12.5904C4.90159 12.4584 4.78639 12.3312 4.68319 12.2016L4.67359 12.1944H4.67119L4.66399 12.1872L4.66159 12.1848C4.63759 12.1608 4.61839 12.132 4.60399 12.1032C4.59199 12.0744 4.58239 12.0408 4.58239 12.0096C4.57999 11.976 4.58479 11.9448 4.59439 11.916C4.60399 11.8872 4.62079 11.8584 4.63999 11.8296L4.64719 11.8224V11.82L4.67119 11.7936C4.68559 11.7744 4.70239 11.7504 4.72159 11.7288C4.73839 11.7048 4.75759 11.6832 4.77679 11.6616C4.79599 11.6376 4.81999 11.6136 4.84399 11.5848C4.86799 11.5584 4.89679 11.5272 4.92799 11.496L5.08399 11.3328L5.13919 11.2728C5.15359 11.256 5.16799 11.2416 5.17759 11.2272L5.18239 11.2224L5.18479 11.22L5.18719 11.2152L5.19199 11.2128C5.46799 10.9416 5.74399 10.6872 6.02239 10.4496C6.30559 10.2072 6.59119 9.9816 6.87439 9.7728C7.16239 9.5616 7.45279 9.3648 7.74319 9.1872C8.03599 9.0072 8.32879 8.8416 8.62399 8.6928C8.85679 8.5776 9.08239 8.472 9.30319 8.376C9.52399 8.28 9.73999 8.1912 9.95119 8.1168C10.1648 8.04 10.3712 7.9728 10.5728 7.92C10.7744 7.8648 10.9712 7.8192 11.1608 7.788C11.2736 7.7688 11.3888 7.752 11.5064 7.7352C11.6192 7.7208 11.7296 7.7088 11.84 7.6992C11.9504 7.6896 12.0632 7.6824 12.1784 7.6776C12.2936 7.6728 12.404 7.6704 12.512 7.6704C12.6176 7.6704 12.728 7.6728 12.8408 7.6776C12.9536 7.6824 13.0664 7.6896 13.1768 7.6992C13.2848 7.7088 13.3976 7.7208 13.5128 7.7352C13.628 7.7496 13.7408 7.7688 13.8536 7.788C14.0456 7.8216 14.2424 7.8648 14.4464 7.92C14.6504 7.9776 14.8592 8.0424 15.0728 8.1192C15.284 8.196 15.5 8.2824 15.7208 8.3784C15.9392 8.4744 16.1648 8.58 16.3904 8.6928C16.688 8.844 16.9808 9.0072 17.2736 9.1872C17.5616 9.3672 17.8496 9.5592 18.1304 9.768C18.416 9.9768 18.6968 10.2024 18.9776 10.4448C19.256 10.6848 19.532 10.9416 19.8056 11.2128C19.8656 11.2728 19.9208 11.3304 19.9736 11.3856C20.0312 11.4432 20.0816 11.4984 20.1272 11.5464C20.1704 11.592 20.2112 11.6376 20.2472 11.6784C20.2832 11.7192 20.3144 11.7576 20.3432 11.7936C20.3696 11.8248 20.3888 11.8584 20.4008 11.8896C20.4152 11.9256 20.42 11.9592 20.42 11.9952C20.42 12.0336 20.4128 12.0696 20.3984 12.1056C20.384 12.1392 20.3624 12.1704 20.3336 12.1992Z"/>
</mask>
<path fill-rule="evenodd" clip-rule="evenodd" d="M20.8736 11.3304C20.8304 11.28 20.7848 11.2248 20.7344 11.1696C20.6888 11.1192 20.6408 11.0664 20.5904 11.0136C20.5448 10.9656 20.4992 10.9176 20.4536 10.872C20.4032 10.8216 20.3528 10.7688 20.3024 10.7184C20.024 10.4472 19.7432 10.1856 19.4552 9.936C19.1696 9.6864 18.8768 9.4488 18.5744 9.2256C18.2768 9.0024 17.972 8.7912 17.6576 8.592C17.3456 8.3952 17.0264 8.2104 16.6976 8.0424C16.4672 7.9224 16.2344 7.812 16.0064 7.7136C15.776 7.6128 15.548 7.524 15.32 7.4424C15.092 7.3632 14.8664 7.2936 14.6408 7.2336C14.4128 7.1736 14.1872 7.1232 13.964 7.0824C13.8344 7.0608 13.7096 7.0416 13.5896 7.0248C13.4624 7.0104 13.3376 6.996 13.2128 6.9888C13.0904 6.9792 12.9728 6.972 12.86 6.9672C12.7496 6.9624 12.6392 6.9624 12.5336 6.9624H12.5144H12.512H12.4904C12.38 6.9624 12.2672 6.9648 12.1496 6.9672C12.0344 6.972 11.9144 6.9768 11.7896 6.9864C11.6624 6.996 11.5352 7.008 11.408 7.0248C11.2856 7.0416 11.1584 7.0608 11.0312 7.0824C10.808 7.1256 10.58 7.176 10.352 7.236C10.124 7.2984 9.89599 7.368 9.67039 7.4472C9.44239 7.5264 9.21439 7.6176 8.98399 7.716C8.75599 7.8144 8.52559 7.9224 8.29519 8.0424C7.98079 8.2056 7.66879 8.3832 7.36159 8.5752C7.05199 8.7696 6.74719 8.9808 6.44479 9.2064C6.14479 9.4296 5.85199 9.6672 5.56159 9.9168C5.26879 10.1688 4.97839 10.4376 4.69279 10.7184C4.63999 10.7736 4.58719 10.8264 4.53439 10.8768C4.48399 10.9296 4.43599 10.98 4.38799 11.0328C4.33759 11.0832 4.29199 11.1336 4.24879 11.1816C4.20319 11.232 4.15999 11.2824 4.11919 11.3304C4.08079 11.3784 4.04479 11.4264 4.01359 11.4792C3.98239 11.5296 3.95599 11.5848 3.93439 11.6376C3.91279 11.6928 3.89839 11.748 3.88639 11.8032C3.87439 11.8584 3.86719 11.9136 3.86719 11.9664V12.0144C3.86719 12.0696 3.87439 12.1248 3.88639 12.18C3.89839 12.2352 3.91519 12.2904 3.93439 12.3456C3.95599 12.3984 3.98239 12.4512 4.01359 12.504C4.04479 12.5544 4.08079 12.6048 4.11919 12.6528C4.23439 12.7872 4.35919 12.9264 4.49359 13.0656C4.62799 13.2072 4.77199 13.3488 4.92559 13.4904C5.07679 13.6344 5.24239 13.7808 5.41759 13.9296C5.59039 14.0784 5.77519 14.232 5.97199 14.388C6.38479 14.7168 6.79519 15.0168 7.20319 15.2832C7.60879 15.552 8.01439 15.7896 8.41759 15.996C8.81839 16.2024 9.21679 16.3776 9.61519 16.524C10.0112 16.6704 10.4048 16.7856 10.7984 16.872C10.9352 16.9008 11.0768 16.9272 11.216 16.9464C11.3576 16.968 11.4992 16.9872 11.6384 16.9992C11.7776 17.0112 11.9192 17.0232 12.0632 17.028C12.2096 17.0352 12.3584 17.0376 12.512 17.0376C12.6608 17.0376 12.8072 17.0352 12.9464 17.028C13.088 17.0232 13.2272 17.0112 13.364 16.9992C13.5032 16.9872 13.6448 16.968 13.7864 16.9464C13.9256 16.9248 14.0624 16.9008 14.1968 16.872C14.5952 16.7856 14.9936 16.6704 15.392 16.524C15.7928 16.3776 16.1936 16.2024 16.5968 15.996C17 15.7896 17.408 15.552 17.816 15.2832C18.2216 15.0168 18.632 14.7168 19.0424 14.388C19.2368 14.2344 19.4192 14.0808 19.5896 13.932C19.7672 13.7808 19.9304 13.632 20.0816 13.488C20.2376 13.3416 20.3792 13.1976 20.5088 13.0608C20.6456 12.9168 20.768 12.78 20.8736 12.6528C20.96 12.5496 21.0248 12.4416 21.068 12.3288C21.1112 12.2184 21.1328 12.1008 21.1328 11.988C21.1328 11.8728 21.1112 11.76 21.068 11.6472C21.0248 11.5392 20.96 11.4312 20.8736 11.3304ZM20.3336 12.1992C20.228 12.3312 20.1104 12.4632 19.9832 12.5952C19.8584 12.7296 19.7216 12.8616 19.5776 12.9984C19.4336 13.1328 19.2776 13.272 19.112 13.4136C18.9488 13.5552 18.7736 13.6992 18.5936 13.8432C18.212 14.1456 17.8328 14.424 17.4536 14.676C17.0744 14.9256 16.6952 15.1512 16.3184 15.3456C15.9368 15.5424 15.5552 15.7128 15.176 15.8496C14.7992 15.9888 14.4248 16.0968 14.0504 16.1736C13.9112 16.2024 13.7744 16.2264 13.6424 16.248C13.5104 16.2672 13.3784 16.284 13.2488 16.296C13.1168 16.308 12.9896 16.3176 12.8696 16.3224C12.7448 16.3296 12.6248 16.332 12.512 16.332H12.4832C12.368 16.332 12.248 16.3296 12.1232 16.3224C11.9984 16.3176 11.8736 16.308 11.744 16.2936C11.6144 16.2816 11.4848 16.2648 11.3528 16.2456C11.2256 16.2264 11.0936 16.2024 10.964 16.1736C10.5944 16.0944 10.22 15.9864 9.84319 15.8496C9.46399 15.7128 9.08479 15.5448 8.70319 15.3504C8.32159 15.156 7.93999 14.9328 7.55599 14.6808C7.17439 14.4312 6.78799 14.1504 6.40159 13.8432C6.21919 13.6992 6.04639 13.5552 5.88319 13.4136C5.71999 13.2696 5.56639 13.1304 5.42239 12.9936C5.28079 12.8568 5.14639 12.7224 5.02159 12.5904C4.90159 12.4584 4.78639 12.3312 4.68319 12.2016L4.67359 12.1944H4.67119L4.66399 12.1872L4.66159 12.1848C4.63759 12.1608 4.61839 12.132 4.60399 12.1032C4.59199 12.0744 4.58239 12.0408 4.58239 12.0096C4.57999 11.976 4.58479 11.9448 4.59439 11.916C4.60399 11.8872 4.62079 11.8584 4.63999 11.8296L4.64719 11.8224V11.82L4.67119 11.7936C4.68559 11.7744 4.70239 11.7504 4.72159 11.7288C4.73839 11.7048 4.75759 11.6832 4.77679 11.6616C4.79599 11.6376 4.81999 11.6136 4.84399 11.5848C4.86799 11.5584 4.89679 11.5272 4.92799 11.496L5.08399 11.3328L5.13919 11.2728C5.15359 11.256 5.16799 11.2416 5.17759 11.2272L5.18239 11.2224L5.18479 11.22L5.18719 11.2152L5.19199 11.2128C5.46799 10.9416 5.74399 10.6872 6.02239 10.4496C6.30559 10.2072 6.59119 9.9816 6.87439 9.7728C7.16239 9.5616 7.45279 9.3648 7.74319 9.1872C8.03599 9.0072 8.32879 8.8416 8.62399 8.6928C8.85679 8.5776 9.08239 8.472 9.30319 8.376C9.52399 8.28 9.73999 8.1912 9.95119 8.1168C10.1648 8.04 10.3712 7.9728 10.5728 7.92C10.7744 7.8648 10.9712 7.8192 11.1608 7.788C11.2736 7.7688 11.3888 7.752 11.5064 7.7352C11.6192 7.7208 11.7296 7.7088 11.84 7.6992C11.9504 7.6896 12.0632 7.6824 12.1784 7.6776C12.2936 7.6728 12.404 7.6704 12.512 7.6704C12.6176 7.6704 12.728 7.6728 12.8408 7.6776C12.9536 7.6824 13.0664 7.6896 13.1768 7.6992C13.2848 7.7088 13.3976 7.7208 13.5128 7.7352C13.628 7.7496 13.7408 7.7688 13.8536 7.788C14.0456 7.8216 14.2424 7.8648 14.4464 7.92C14.6504 7.9776 14.8592 8.0424 15.0728 8.1192C15.284 8.196 15.5 8.2824 15.7208 8.3784C15.9392 8.4744 16.1648 8.58 16.3904 8.6928C16.688 8.844 16.9808 9.0072 17.2736 9.1872C17.5616 9.3672 17.8496 9.5592 18.1304 9.768C18.416 9.9768 18.6968 10.2024 18.9776 10.4448C19.256 10.6848 19.532 10.9416 19.8056 11.2128C19.8656 11.2728 19.9208 11.3304 19.9736 11.3856C20.0312 11.4432 20.0816 11.4984 20.1272 11.5464C20.1704 11.592 20.2112 11.6376 20.2472 11.6784C20.2832 11.7192 20.3144 11.7576 20.3432 11.7936C20.3696 11.8248 20.3888 11.8584 20.4008 11.8896C20.4152 11.9256 20.42 11.9592 20.42 11.9952C20.42 12.0336 20.4128 12.0696 20.3984 12.1056C20.384 12.1392 20.3624 12.1704 20.3336 12.1992Z" fill="#03A868"/>
<path fill-rule="evenodd" clip-rule="evenodd" d="M20.8736 11.3304C20.8304 11.28 20.7848 11.2248 20.7344 11.1696C20.6888 11.1192 20.6408 11.0664 20.5904 11.0136C20.5448 10.9656 20.4992 10.9176 20.4536 10.872C20.4032 10.8216 20.3528 10.7688 20.3024 10.7184C20.024 10.4472 19.7432 10.1856 19.4552 9.936C19.1696 9.6864 18.8768 9.4488 18.5744 9.2256C18.2768 9.0024 17.972 8.7912 17.6576 8.592C17.3456 8.3952 17.0264 8.2104 16.6976 8.0424C16.4672 7.9224 16.2344 7.812 16.0064 7.7136C15.776 7.6128 15.548 7.524 15.32 7.4424C15.092 7.3632 14.8664 7.2936 14.6408 7.2336C14.4128 7.1736 14.1872 7.1232 13.964 7.0824C13.8344 7.0608 13.7096 7.0416 13.5896 7.0248C13.4624 7.0104 13.3376 6.996 13.2128 6.9888C13.0904 6.9792 12.9728 6.972 12.86 6.9672C12.7496 6.9624 12.6392 6.9624 12.5336 6.9624H12.5144H12.512H12.4904C12.38 6.9624 12.2672 6.9648 12.1496 6.9672C12.0344 6.972 11.9144 6.9768 11.7896 6.9864C11.6624 6.996 11.5352 7.008 11.408 7.0248C11.2856 7.0416 11.1584 7.0608 11.0312 7.0824C10.808 7.1256 10.58 7.176 10.352 7.236C10.124 7.2984 9.89599 7.368 9.67039 7.4472C9.44239 7.5264 9.21439 7.6176 8.98399 7.716C8.75599 7.8144 8.52559 7.9224 8.29519 8.0424C7.98079 8.2056 7.66879 8.3832 7.36159 8.5752C7.05199 8.7696 6.74719 8.9808 6.44479 9.2064C6.14479 9.4296 5.85199 9.6672 5.56159 9.9168C5.26879 10.1688 4.97839 10.4376 4.69279 10.7184C4.63999 10.7736 4.58719 10.8264 4.53439 10.8768C4.48399 10.9296 4.43599 10.98 4.38799 11.0328C4.33759 11.0832 4.29199 11.1336 4.24879 11.1816C4.20319 11.232 4.15999 11.2824 4.11919 11.3304C4.08079 11.3784 4.04479 11.4264 4.01359 11.4792C3.98239 11.5296 3.95599 11.5848 3.93439 11.6376C3.91279 11.6928 3.89839 11.748 3.88639 11.8032C3.87439 11.8584 3.86719 11.9136 3.86719 11.9664V12.0144C3.86719 12.0696 3.87439 12.1248 3.88639 12.18C3.89839 12.2352 3.91519 12.2904 3.93439 12.3456C3.95599 12.3984 3.98239 12.4512 4.01359 12.504C4.04479 12.5544 4.08079 12.6048 4.11919 12.6528C4.23439 12.7872 4.35919 12.9264 4.49359 13.0656C4.62799 13.2072 4.77199 13.3488 4.92559 13.4904C5.07679 13.6344 5.24239 13.7808 5.41759 13.9296C5.59039 14.0784 5.77519 14.232 5.97199 14.388C6.38479 14.7168 6.79519 15.0168 7.20319 15.2832C7.60879 15.552 8.01439 15.7896 8.41759 15.996C8.81839 16.2024 9.21679 16.3776 9.61519 16.524C10.0112 16.6704 10.4048 16.7856 10.7984 16.872C10.9352 16.9008 11.0768 16.9272 11.216 16.9464C11.3576 16.968 11.4992 16.9872 11.6384 16.9992C11.7776 17.0112 11.9192 17.0232 12.0632 17.028C12.2096 17.0352 12.3584 17.0376 12.512 17.0376C12.6608 17.0376 12.8072 17.0352 12.9464 17.028C13.088 17.0232 13.2272 17.0112 13.364 16.9992C13.5032 16.9872 13.6448 16.968 13.7864 16.9464C13.9256 16.9248 14.0624 16.9008 14.1968 16.872C14.5952 16.7856 14.9936 16.6704 15.392 16.524C15.7928 16.3776 16.1936 16.2024 16.5968 15.996C17 15.7896 17.408 15.552 17.816 15.2832C18.2216 15.0168 18.632 14.7168 19.0424 14.388C19.2368 14.2344 19.4192 14.0808 19.5896 13.932C19.7672 13.7808 19.9304 13.632 20.0816 13.488C20.2376 13.3416 20.3792 13.1976 20.5088 13.0608C20.6456 12.9168 20.768 12.78 20.8736 12.6528C20.96 12.5496 21.0248 12.4416 21.068 12.3288C21.1112 12.2184 21.1328 12.1008 21.1328 11.988C21.1328 11.8728 21.1112 11.76 21.068 11.6472C21.0248 11.5392 20.96 11.4312 20.8736 11.3304ZM20.3336 12.1992C20.228 12.3312 20.1104 12.4632 19.9832 12.5952C19.8584 12.7296 19.7216 12.8616 19.5776 12.9984C19.4336 13.1328 19.2776 13.272 19.112 13.4136C18.9488 13.5552 18.7736 13.6992 18.5936 13.8432C18.212 14.1456 17.8328 14.424 17.4536 14.676C17.0744 14.9256 16.6952 15.1512 16.3184 15.3456C15.9368 15.5424 15.5552 15.7128 15.176 15.8496C14.7992 15.9888 14.4248 16.0968 14.0504 16.1736C13.9112 16.2024 13.7744 16.2264 13.6424 16.248C13.5104 16.2672 13.3784 16.284 13.2488 16.296C13.1168 16.308 12.9896 16.3176 12.8696 16.3224C12.7448 16.3296 12.6248 16.332 12.512 16.332H12.4832C12.368 16.332 12.248 16.3296 12.1232 16.3224C11.9984 16.3176 11.8736 16.308 11.744 16.2936C11.6144 16.2816 11.4848 16.2648 11.3528 16.2456C11.2256 16.2264 11.0936 16.2024 10.964 16.1736C10.5944 16.0944 10.22 15.9864 9.84319 15.8496C9.46399 15.7128 9.08479 15.5448 8.70319 15.3504C8.32159 15.156 7.93999 14.9328 7.55599 14.6808C7.17439 14.4312 6.78799 14.1504 6.40159 13.8432C6.21919 13.6992 6.04639 13.5552 5.88319 13.4136C5.71999 13.2696 5.56639 13.1304 5.42239 12.9936C5.28079 12.8568 5.14639 12.7224 5.02159 12.5904C4.90159 12.4584 4.78639 12.3312 4.68319 12.2016L4.67359 12.1944H4.67119L4.66399 12.1872L4.66159 12.1848C4.63759 12.1608 4.61839 12.132 4.60399 12.1032C4.59199 12.0744 4.58239 12.0408 4.58239 12.0096C4.57999 11.976 4.58479 11.9448 4.59439 11.916C4.60399 11.8872 4.62079 11.8584 4.63999 11.8296L4.64719 11.8224V11.82L4.67119 11.7936C4.68559 11.7744 4.70239 11.7504 4.72159 11.7288C4.73839 11.7048 4.75759 11.6832 4.77679 11.6616C4.79599 11.6376 4.81999 11.6136 4.84399 11.5848C4.86799 11.5584 4.89679 11.5272 4.92799 11.496L5.08399 11.3328L5.13919 11.2728C5.15359 11.256 5.16799 11.2416 5.17759 11.2272L5.18239 11.2224L5.18479 11.22L5.18719 11.2152L5.19199 11.2128C5.46799 10.9416 5.74399 10.6872 6.02239 10.4496C6.30559 10.2072 6.59119 9.9816 6.87439 9.7728C7.16239 9.5616 7.45279 9.3648 7.74319 9.1872C8.03599 9.0072 8.32879 8.8416 8.62399 8.6928C8.85679 8.5776 9.08239 8.472 9.30319 8.376C9.52399 8.28 9.73999 8.1912 9.95119 8.1168C10.1648 8.04 10.3712 7.9728 10.5728 7.92C10.7744 7.8648 10.9712 7.8192 11.1608 7.788C11.2736 7.7688 11.3888 7.752 11.5064 7.7352C11.6192 7.7208 11.7296 7.7088 11.84 7.6992C11.9504 7.6896 12.0632 7.6824 12.1784 7.6776C12.2936 7.6728 12.404 7.6704 12.512 7.6704C12.6176 7.6704 12.728 7.6728 12.8408 7.6776C12.9536 7.6824 13.0664 7.6896 13.1768 7.6992C13.2848 7.7088 13.3976 7.7208 13.5128 7.7352C13.628 7.7496 13.7408 7.7688 13.8536 7.788C14.0456 7.8216 14.2424 7.8648 14.4464 7.92C14.6504 7.9776 14.8592 8.0424 15.0728 8.1192C15.284 8.196 15.5 8.2824 15.7208 8.3784C15.9392 8.4744 16.1648 8.58 16.3904 8.6928C16.688 8.844 16.9808 9.0072 17.2736 9.1872C17.5616 9.3672 17.8496 9.5592 18.1304 9.768C18.416 9.9768 18.6968 10.2024 18.9776 10.4448C19.256 10.6848 19.532 10.9416 19.8056 11.2128C19.8656 11.2728 19.9208 11.3304 19.9736 11.3856C20.0312 11.4432 20.0816 11.4984 20.1272 11.5464C20.1704 11.592 20.2112 11.6376 20.2472 11.6784C20.2832 11.7192 20.3144 11.7576 20.3432 11.7936C20.3696 11.8248 20.3888 11.8584 20.4008 11.8896C20.4152 11.9256 20.42 11.9592 20.42 11.9952C20.42 12.0336 20.4128 12.0696 20.3984 12.1056C20.384 12.1392 20.3624 12.1704 20.3336 12.1992Z" stroke="#03A868" mask="url(#path-2-outside-1)"/>
<path d="M12.5283 9C13.3562 9 14.1075 9.33432 14.6502 9.87709C15.193 10.4199 15.5293 11.1711 15.5293 11.999C15.5293 12.8269 15.193 13.5782 14.6502 14.1209C14.1075 14.6637 13.3562 15 12.5283 15C11.7004 15 10.9492 14.6637 10.4064 14.1209C9.86361 13.5782 9.5293 12.8269 9.5293 11.999C9.5293 11.1711 9.86361 10.4199 10.4064 9.87709C10.9492 9.33432 11.7004 9 12.5283 9ZM14.2392 10.2881C13.8027 9.85152 13.1969 9.58014 12.5283 9.58014C11.8597 9.58014 11.2559 9.85152 10.8174 10.2881C10.3808 10.7266 10.1094 11.3304 10.1094 11.999C10.1094 12.6676 10.3808 13.2734 10.8174 13.7099C11.2559 14.1485 11.8597 14.4179 12.5283 14.4179C13.1969 14.4179 13.8027 14.1485 14.2392 13.7099C14.6778 13.2734 14.9472 12.6676 14.9472 11.999C14.9472 11.3304 14.6778 10.7266 14.2392 10.2881Z" fill="#03A868" stroke="#03A868"/>
</svg>
