<svg width="12" height="12" viewBox="0 0 12 12" fill="none" xmlns="http://www.w3.org/2000/svg">
<path fill-rule="evenodd" clip-rule="evenodd" d="M6.00317 1.0954L7.47599 4.22354L10.9012 4.65647L8.3843 7.02062L9.02945 10.4119L6.00317 8.7481L2.9769 10.4119L3.62629 7.02062L1.1051 4.65647L4.5346 4.22354L6.00317 1.0954Z" fill="white"/>
<path fill-rule="evenodd" clip-rule="evenodd" d="M6.99638 0.632755L8.20605 3.20912L11.0328 3.56566C11.6355 3.63781 12.0642 4.18959 11.9921 4.7923C11.9581 5.08092 11.8096 5.33558 11.6016 5.5096L9.57275 7.41111L10.1075 10.2124C10.2221 10.8067 9.83166 11.3839 9.2332 11.4985C8.9658 11.5494 8.70264 11.4985 8.48618 11.3754L5.99894 10.0087L3.49897 11.3839C2.96842 11.6768 2.2978 11.4815 2.00494 10.951C1.8776 10.7175 1.84365 10.4586 1.89034 10.2167L2.42513 7.41535L0.345364 5.46292C-0.0960566 5.04696 -0.117279 4.35087 0.298675 3.90945C0.481186 3.71421 0.718874 3.60386 0.965051 3.5699V3.56566L3.79184 3.20912L5.0015 0.632755C5.25617 0.0852236 5.90981 -0.152464 6.45734 0.102201C6.69927 0.216801 6.88178 0.4078 6.9879 0.632755H6.99638ZM6.00319 1.0954L7.47176 4.22354L10.9013 4.65647L8.38007 7.02062L9.02947 10.4162L6.00319 8.7481L2.97691 10.4162L3.62631 7.02062L1.10512 4.65647L4.53462 4.22354L6.00319 1.0954Z" fill="#03A868"/>
<path fill-rule="evenodd" clip-rule="evenodd" d="M7.47599 4.22356L6.00317 1.09541V6.24815L7.47599 4.22356Z" fill="white"/>
<path fill-rule="evenodd" clip-rule="evenodd" d="M7.47599 4.22356L10.9012 4.65649L6.00317 6.24815L7.47599 4.22356Z" fill="white"/>
<path fill-rule="evenodd" clip-rule="evenodd" d="M8.3843 7.02064L10.9012 4.65649L6.00317 6.24815L8.3843 7.02064Z" fill="white"/>
<path fill-rule="evenodd" clip-rule="evenodd" d="M8.3843 7.02065L9.02945 10.412L6.00317 6.24817L8.3843 7.02065Z" fill="white"/>
<path fill-rule="evenodd" clip-rule="evenodd" d="M6.00317 8.74814L9.02945 10.412L6.00317 6.24817V8.74814Z" fill="white"/>
<path fill-rule="evenodd" clip-rule="evenodd" d="M6.00321 8.74814L2.97693 10.412L6.00321 6.24817V8.74814Z" fill="white"/>
<path fill-rule="evenodd" clip-rule="evenodd" d="M3.62633 7.02065L2.97693 10.412L6.00321 6.24817L3.62633 7.02065Z" fill="white"/>
<path fill-rule="evenodd" clip-rule="evenodd" d="M3.62629 7.02064L1.1051 4.65649L6.00317 6.24815L3.62629 7.02064Z" fill="white"/>
<path fill-rule="evenodd" clip-rule="evenodd" d="M4.5346 4.22356L1.1051 4.65649L6.00317 6.24815L4.5346 4.22356Z" fill="white"/>
<path fill-rule="evenodd" clip-rule="evenodd" d="M4.53455 4.22356L6.00312 1.09541V6.24815L4.53455 4.22356Z" fill="white"/>
</svg>
