<svg width="14" height="14" viewBox="0 0 14 14" fill="none" xmlns="http://www.w3.org/2000/svg">
<path fill-rule="evenodd" clip-rule="evenodd" d="M9.68568 0.516779C8.44855 0.790828 7.51678 1.89485 7.51678 3.22595C7.51678 3.25727 7.52461 3.28859 7.52461 3.31991C9.4821 3.74273 10.4687 5.066 10.4687 6.81991C10.4687 8.78524 8.87136 10.3826 6.9217 10.3826C4.97204 10.3826 3.14765 8.73825 3.14765 6.31096C3.14765 3.3434 5.67673 0.555928 9.27852 0.461969C9.34116 0.461969 9.44295 0.461969 9.55257 0.469799C8.76175 0.16443 7.90045 0 7 0C3.13199 0 0 3.05369 0 6.81991C0 10.5861 3.13199 13.6398 7 13.6398C10.8602 13.6398 14 10.5861 14 6.81991C14 3.98546 12.2226 1.55034 9.70134 0.524609L9.68568 0.516779Z" fill="#03A868"/>
</svg>
